<svg width="125" height="19" viewBox="0 0 125 19" fill="none" xmlns="http://www.w3.org/2000/svg">
  <path d="M8.64608 13.728C8.64608 13.1712 8.43961 12.7189 8.02666 12.3709C7.63092 12.0229 7.12334 11.7097 6.50392 11.4313C5.9017 11.1355 5.23927 10.8397 4.51661 10.544C3.81116 10.2308 3.14872 9.85668 2.5293 9.4217C1.92709 8.96932 1.41951 8.41255 1.00656 7.75137C0.610818 7.0902 0.412947 6.24634 0.412947 5.21978C0.412947 4.33242 0.559199 3.56685 0.851704 2.92308C1.14421 2.2619 1.55716 1.71383 2.09055 1.27885C2.64114 0.843864 3.28637 0.521978 4.02624 0.313187C4.7661 0.104396 5.59199 0 6.50392 0C7.55349 0 8.54284 0.0956963 9.47198 0.287089C10.4011 0.461081 11.1668 0.72207 11.769 1.07006L10.6592 4.07143C10.2807 3.82784 9.71286 3.61035 8.95579 3.41896C8.19872 3.21017 7.38143 3.10577 6.50392 3.10577C5.67802 3.10577 5.0414 3.27106 4.59404 3.60165C4.16388 3.93223 3.94881 4.37592 3.94881 4.93269C3.94881 5.45467 4.14668 5.88965 4.54242 6.23764C4.95537 6.58562 5.46295 6.90751 6.06516 7.2033C6.68458 7.49908 7.34702 7.80357 8.05247 8.11676C8.77513 8.42994 9.43756 8.81273 10.0398 9.26511C10.6592 9.70009 11.1668 10.2482 11.5625 10.9093C11.9755 11.5531 12.1819 12.3622 12.1819 13.3365C12.1819 14.3109 12.0185 15.1548 11.6916 15.8681C11.3819 16.5641 10.9345 17.147 10.3495 17.6168C9.78169 18.0865 9.08484 18.4345 8.25894 18.6607C7.45026 18.8869 6.55554 19 5.57479 19C4.28433 19 3.14872 18.8782 2.16797 18.6346C1.18722 18.391 0.464566 18.1474 0 17.9038L1.1356 14.8503C1.32487 14.9547 1.56576 15.0678 1.85826 15.1896C2.16797 15.3114 2.5121 15.4245 2.89063 15.5288C3.26917 15.6332 3.66491 15.7202 4.07785 15.7898C4.50801 15.8594 4.94676 15.8942 5.39412 15.8942C6.4437 15.8942 7.24378 15.7202 7.79438 15.3723C8.36218 15.0069 8.64608 14.4588 8.64608 13.728Z" fill="#23024D"/>
  <path d="M13.1181 5.58517H14.899V3.13187L18.2542 2.16621V5.58517H21.4029V8.45604H18.2542V13.467C18.2542 14.3718 18.3402 15.0243 18.5123 15.4244C18.7015 15.8072 19.0456 15.9986 19.5446 15.9986C19.8887 15.9986 20.1812 15.9638 20.4221 15.8942C20.6802 15.8246 20.9641 15.7202 21.2738 15.581L21.8674 18.1909C21.4029 18.4171 20.8609 18.6085 20.2415 18.7651C19.622 18.9217 18.994 19 18.3574 19C17.1702 19 16.2927 18.6955 15.7249 18.0865C15.1743 17.4602 14.899 16.4423 14.899 15.033V8.45604H13.1181V5.58517Z" fill="#23024D"/>
  <path d="M33.6558 17.5124C33.1396 17.9299 32.4342 18.2866 31.5394 18.5824C30.6619 18.8608 29.7242 19 28.7262 19C26.6443 19 25.1216 18.391 24.158 17.1731C23.1945 15.9377 22.7127 14.25 22.7127 12.1099C22.7127 9.81319 23.2547 8.09066 24.3387 6.94231C25.4227 5.79396 26.9454 5.21978 28.9069 5.21978C29.5607 5.21978 30.1974 5.30678 30.8168 5.48077C31.4362 5.65476 31.9868 5.94185 32.4686 6.34203C32.9503 6.74222 33.3375 7.28159 33.63 7.96016C33.9225 8.63874 34.0687 9.4826 34.0687 10.4918C34.0687 10.8571 34.0429 11.2486 33.9913 11.6662C33.9569 12.0838 33.8967 12.5188 33.8107 12.9712H26.0679C26.1195 14.0673 26.3948 14.8938 26.8938 15.4505C27.41 16.0073 28.2359 16.2857 29.3715 16.2857C30.0769 16.2857 30.705 16.1813 31.2555 15.9725C31.8233 15.7463 32.2535 15.5201 32.546 15.294L33.6558 17.5124ZM28.8553 7.93407C27.9778 7.93407 27.3239 8.20375 26.8938 8.74313C26.4808 9.26511 26.2314 9.96978 26.1453 10.8571H30.9458C31.0147 9.91758 30.8684 9.19551 30.5071 8.69093C30.163 8.18635 29.6124 7.93407 28.8553 7.93407Z" fill="#23024D"/>
  <path d="M39.8968 14.25C39.8968 14.859 39.9742 15.3027 40.1291 15.581C40.2839 15.8594 40.5334 15.9986 40.8775 15.9986C41.084 15.9986 41.2819 15.9812 41.4711 15.9464C41.6776 15.9116 41.9271 15.8333 42.2196 15.7115L42.5809 18.3736C42.3056 18.5128 41.8841 18.652 41.3163 18.7912C40.7485 18.9304 40.1635 19 39.5613 19C38.5805 19 37.8321 18.7738 37.3159 18.3214C36.7997 17.8516 36.5416 17.0861 36.5416 16.0247V0.365385H39.8968V14.25Z" fill="#23024D"/>
  <path d="M47.4833 14.25C47.4833 14.859 47.5607 15.3027 47.7156 15.581C47.8704 15.8594 48.1199 15.9986 48.464 15.9986C48.6705 15.9986 48.8684 15.9812 49.0576 15.9464C49.2641 15.9116 49.5136 15.8333 49.8061 15.7115L50.1674 18.3736C49.8921 18.5128 49.4706 18.652 48.9028 18.7912C48.335 18.9304 47.75 19 47.1478 19C46.167 19 45.4185 18.7738 44.9024 18.3214C44.3862 17.8516 44.1281 17.0861 44.1281 16.0247V0.365385H47.4833V14.25Z" fill="#23024D"/>
  <path d="M51.5339 6.34203C52.2222 6.02885 53.0394 5.78526 53.9858 5.61126C54.9321 5.41987 55.9215 5.32417 56.9538 5.32417C57.8486 5.32417 58.597 5.43727 59.1992 5.66346C59.8015 5.87225 60.2746 6.17674 60.6188 6.57692C60.9801 6.97711 61.2296 7.45559 61.3672 8.01236C61.5221 8.56914 61.5995 9.19551 61.5995 9.89148C61.5995 10.6571 61.5737 11.4313 61.5221 12.2143C61.4705 12.9799 61.436 13.7367 61.4188 14.4849C61.4188 15.2331 61.4446 15.9638 61.4963 16.6772C61.5479 17.3732 61.6769 18.0343 61.8834 18.6607H59.1476L58.6056 16.8599H58.4766C58.1325 17.3993 57.6507 17.869 57.0313 18.2692C56.4291 18.652 55.6462 18.8434 54.6826 18.8434C54.0804 18.8434 53.5384 18.7564 53.0567 18.5824C52.5749 18.391 52.1619 18.13 51.8178 17.7995C51.4737 17.4515 51.207 17.0513 51.0177 16.5989C50.8285 16.1291 50.7338 15.6071 50.7338 15.033C50.7338 14.2326 50.9059 13.5627 51.25 13.0234C51.6113 12.4666 52.1189 12.0229 52.7728 11.6923C53.4438 11.3443 54.2353 11.1094 55.1472 10.9876C56.0763 10.8484 57.1087 10.8049 58.2443 10.8571C58.3647 9.88278 58.2959 9.18681 58.0378 8.76923C57.7797 8.33425 57.2033 8.11676 56.3086 8.11676C55.6376 8.11676 54.9235 8.18636 54.1665 8.32555C53.4266 8.46474 52.8158 8.64744 52.334 8.87363L51.5339 6.34203ZM55.7924 16.0508C56.4635 16.0508 56.9969 15.9029 57.3926 15.6071C57.7883 15.294 58.0808 14.9634 58.2701 14.6154V12.919C57.7367 12.8668 57.2205 12.8581 56.7216 12.8929C56.2398 12.9277 55.8096 13.006 55.4311 13.1277C55.0526 13.2495 54.7515 13.4235 54.5278 13.6497C54.3041 13.8759 54.1923 14.163 54.1923 14.511C54.1923 14.9982 54.3299 15.381 54.6052 15.6593C54.8977 15.9203 55.2935 16.0508 55.7924 16.0508Z" fill="#23024D"/>
  <path d="M71.5385 8.76923C71.0051 8.57784 70.5233 8.48214 70.0931 8.48214C69.4909 8.48214 68.9834 8.64744 68.5704 8.97802C68.1747 9.29121 67.908 9.70009 67.7703 10.2047V18.6346H64.4151V5.58517H67.0219L67.409 7.30769H67.5122C67.8047 6.66392 68.2005 6.16804 68.6994 5.82005C69.1984 5.47207 69.7834 5.29808 70.4545 5.29808C70.9018 5.29808 71.4094 5.39377 71.9772 5.58517L71.5385 8.76923Z" fill="#23024D"/>
  <path d="M86.3681 3.54945H81.103V18.6346H77.5671V3.54945H72.2762V0.365385H86.3681V3.54945Z" fill="#23024D"/>
  <path d="M95.1543 17.5124C94.6381 17.9299 93.9326 18.2866 93.0379 18.5824C92.1604 18.8608 91.2227 19 90.2247 19C88.1428 19 86.62 18.391 85.6565 17.1731C84.693 15.9377 84.2112 14.25 84.2112 12.1099C84.2112 9.81319 84.7532 8.09066 85.8372 6.94231C86.9211 5.79396 88.4439 5.21978 90.4054 5.21978C91.0592 5.21978 91.6959 5.30678 92.3153 5.48077C92.9347 5.65476 93.4853 5.94185 93.9671 6.34203C94.4488 6.74222 94.836 7.28159 95.1285 7.96016C95.421 8.63874 95.5672 9.4826 95.5672 10.4918C95.5672 10.8571 95.5414 11.2486 95.4898 11.6662C95.4554 12.0838 95.3952 12.5188 95.3091 12.9712H87.5664C87.618 14.0673 87.8933 14.8938 88.3923 15.4505C88.9085 16.0073 89.7343 16.2857 90.8699 16.2857C91.5754 16.2857 92.2034 16.1813 92.754 15.9725C93.3218 15.7463 93.752 15.5201 94.0445 15.294L95.1543 17.5124ZM90.3538 7.93407C89.4763 7.93407 88.8224 8.20375 88.3923 8.74313C87.9793 9.26511 87.7298 9.96978 87.6438 10.8571H92.4443C92.5131 9.91758 92.3669 9.19551 92.0056 8.69093C91.6614 8.18635 91.1108 7.93407 90.3538 7.93407Z" fill="#23024D"/>
  <path d="M105.06 8.76923C104.527 8.57784 104.045 8.48214 103.615 8.48214C103.013 8.48214 102.505 8.64744 102.092 8.97802C101.696 9.29121 101.43 9.70009 101.292 10.2047V18.6346H97.9368V5.58517H100.544L100.931 7.30769H101.034C101.326 6.66392 101.722 6.16804 102.221 5.82005C102.72 5.47207 103.305 5.29808 103.976 5.29808C104.424 5.29808 104.931 5.39377 105.499 5.58517L105.06 8.76923Z" fill="#23024D"/>
  <path d="M114.315 18.6346V11.5357C114.315 10.3352 114.203 9.4826 113.979 8.97802C113.756 8.47344 113.291 8.22115 112.586 8.22115C112.001 8.22115 111.528 8.38645 111.166 8.71703C110.805 9.03022 110.53 9.4391 110.34 9.94368V18.6346H106.985V5.58517H109.592L109.979 7.30769H110.082C110.478 6.75092 110.977 6.26374 111.579 5.84615C112.199 5.42857 112.99 5.21978 113.954 5.21978C114.78 5.21978 115.451 5.39377 115.967 5.74176C116.5 6.07234 116.913 6.63782 117.206 7.43819C117.601 6.75962 118.109 6.22024 118.728 5.82005C119.348 5.41987 120.096 5.21978 120.974 5.21978C121.696 5.21978 122.307 5.30678 122.806 5.48077C123.322 5.65476 123.735 5.95925 124.045 6.39423C124.372 6.81181 124.613 7.37729 124.768 8.09066C124.923 8.80403 125 9.70879 125 10.8049V18.6346H121.645V11.3008C121.645 10.2743 121.533 9.5087 121.309 9.00412C121.103 8.48214 120.63 8.22115 119.89 8.22115C119.288 8.22115 118.806 8.38645 118.444 8.71703C118.1 9.04762 117.842 9.5 117.67 10.0742V18.6346H114.315Z" fill="#23024D"/>
</svg>
