<svg width="107" height="21" viewBox="0 0 107 21" fill="none" xmlns="http://www.w3.org/2000/svg">
  <path d="M19.6491 0V5.03989H21.6844V8.45872H19.6491V20.5947H15.0645V8.45872H13.1162V5.03989H15.0645V0H19.65H19.6491ZM29.9003 4.57661C34.8006 4.57661 38.1536 8.13961 38.1536 13.9329V14.4252H26.5464C26.9482 16.0761 28.1224 16.9447 30.1003 16.9447C31.0171 16.9447 31.7625 16.6845 32.4505 16.0761H37.4369C35.9461 19.32 33.3959 20.971 29.9568 20.971C27.6067 20.971 25.7158 20.1605 24.1389 18.4805C22.6489 16.8867 21.8757 14.9175 21.8757 12.7162C21.8757 10.544 22.7064 8.54488 24.225 7.00996C25.7732 5.44516 27.8076 4.57661 29.9003 4.57661ZM26.4038 11.1813H33.5968C33.0515 9.58749 31.7625 8.71894 29.9568 8.71894C28.065 8.71894 26.7186 9.70353 26.4029 11.1804L26.4038 11.1813ZM40.0462 20.5947V0H44.5456V20.5947H40.0462ZM47.4454 20.5947V0H51.943V20.5947H47.4463H47.4454ZM65.7942 6.77788V5.04077H70.3223V20.5947H65.9386V18.8576C64.5904 20.1895 63.2162 20.6818 61.381 20.6818C59.5188 20.6818 57.914 20.0734 56.5659 18.8576C54.7898 17.2638 53.8722 15.1777 53.8722 12.7452C53.8722 10.5141 54.7324 8.51587 56.3371 6.95194C57.7705 5.53219 59.5188 4.80869 61.4671 4.80869C63.3301 4.80869 64.7635 5.44516 65.7942 6.77788ZM62.3847 16.5394C64.333 16.5394 65.9664 14.9175 65.9664 12.7742C65.9664 10.544 64.333 8.86311 62.2125 8.86311C60.0632 8.86311 58.4002 10.6301 58.4002 12.7162C58.4002 14.8876 60.0632 16.5403 62.3838 16.5403L62.3847 16.5394ZM73.0603 20.5947V5.04077H77.6458V20.5947H73.0603ZM82.1364 4.80869C82.9445 4.80869 83.7195 5.13314 84.2909 5.71065C84.8623 6.28817 85.1833 7.07145 85.1833 7.88819C85.1833 8.70492 84.8623 9.4882 84.2909 10.0657C83.7195 10.6432 82.9445 10.9677 82.1364 10.9677C81.3284 10.9677 80.5534 10.6432 79.982 10.0657C79.4106 9.4882 79.0896 8.70492 79.0896 7.88819C79.0896 7.07145 79.4106 6.28817 79.982 5.71065C80.5534 5.13314 81.3284 4.80869 82.1364 4.80869ZM95.9267 12.8692L90.5602 5.03989H96.092L98.7283 8.83674L99.8216 7.26227L101.365 5.03989H106.895L105.372 7.26227L104.294 8.83586H98.7283L99.178 9.48464L100.722 11.7061L106.895 20.5947H101.223L98.7283 16.9552L97.7567 18.3724L96.2338 20.5947H90.5602L92.1041 18.3724L95.9267 12.8692ZM7.76012 10.9492C10.9122 11.8187 12.4882 13.0345 12.4882 15.6129C12.4882 18.7407 10.0528 21 6.32672 21C2.88763 21 0.767114 19.1178 0.452255 15.9601H4.72286V16.1052C4.72286 16.9737 5.40998 17.5821 6.38413 17.5821C7.35915 17.5821 7.93233 17.0898 7.93233 16.2212C7.93233 14.9465 6.69986 15.0045 4.77939 14.3962C2.1144 13.5558 0.82452 12.1079 0.82452 9.76155C0.82452 6.71986 3.03114 4.57661 6.69986 4.57661C9.88063 4.57661 11.915 6.40162 12.0881 9.35629H7.98974C7.81752 8.3418 7.44439 7.90753 6.64245 7.90753C5.75354 7.90753 5.23863 8.42883 5.23863 9.18223C5.23863 10.2547 6.18408 10.5141 7.76012 10.9492Z" fill="#25044F"/>
</svg>
