<svg width="852" height="351" viewBox="0 0 852 351" fill="none" xmlns="http://www.w3.org/2000/svg">
<mask id="mask0" mask-type="alpha" maskUnits="userSpaceOnUse" x="30" y="10" width="792" height="291">
<path d="M30 20C30 14.4772 34.4772 10 40 10H812C817.523 10 822 14.4772 822 20V301H30V20Z" fill="#23024D"/>
</mask>
<g mask="url(#mask0)">
<g filter="url(#filter0_d)">
<path d="M30 20C30 14.4772 34.4772 10 40 10H812C817.523 10 822 14.4772 822 20V301H30V20Z" fill="#23024D"/>
</g>
<mask id="mask1" mask-type="alpha" maskUnits="userSpaceOnUse" x="-40" y="-64" width="1007" height="460">
<rect x="-40" y="-64" width="1007" height="460" fill="#24034F"/>
</mask>
<g mask="url(#mask1)">
<g opacity="0.1">
<path opacity="0.1" d="M468.531 145.041C468.531 145.769 467.941 146.36 467.213 146.36C466.486 146.36 465.896 145.769 465.896 145.041C465.896 144.312 466.486 143.722 467.213 143.722C467.941 143.722 468.531 144.312 468.531 145.041Z" fill="white"/>
<path opacity="0.1" d="M285.096 127.899C285.096 128.628 284.506 129.218 283.778 129.218C283.051 129.218 282.461 128.628 282.461 127.899C282.461 127.171 283.051 126.58 283.778 126.58C284.506 126.58 285.096 127.171 285.096 127.899Z" fill="white"/>
<path d="M305.068 230.66C305.068 231.57 304.331 232.309 303.421 232.309C302.512 232.309 301.774 231.57 301.774 230.66C301.774 229.749 302.512 229.011 303.421 229.011C304.331 229.011 305.068 229.749 305.068 230.66Z" fill="white"/>
<path d="M168.557 119.16C168.557 120.07 167.82 120.808 166.91 120.808C166.001 120.808 165.264 120.07 165.264 119.16C165.264 118.249 166.001 117.511 166.91 117.511C167.82 117.511 168.557 118.249 168.557 119.16Z" fill="white"/>
<path fill-rule="evenodd" clip-rule="evenodd" d="M474.327 291.341C473.615 291.341 473.038 291.919 473.038 292.632C473.038 293.345 473.615 293.923 474.327 293.923C475.039 293.923 475.616 293.345 475.616 292.632C475.616 291.919 475.039 291.341 474.327 291.341ZM472.323 292.632C472.323 291.523 473.22 290.625 474.327 290.625C475.434 290.625 476.331 291.523 476.331 292.632C476.331 293.74 475.434 294.639 474.327 294.639C473.22 294.639 472.323 293.74 472.323 292.632Z" fill="white"/>
<path fill-rule="evenodd" clip-rule="evenodd" d="M622.768 39.6945C623.465 39.6945 624.029 39.1292 624.029 38.4318C624.029 37.7344 623.465 37.169 622.768 37.169C622.072 37.169 621.507 37.7344 621.507 38.4318C621.507 39.1292 622.072 39.6945 622.768 39.6945ZM622.768 40.4104C623.86 40.4104 624.744 39.5245 624.744 38.4318C624.744 37.339 623.86 36.4531 622.768 36.4531C621.677 36.4531 620.792 37.339 620.792 38.4318C620.792 39.5245 621.677 40.4104 622.768 40.4104Z" fill="white"/>
<path fill-rule="evenodd" clip-rule="evenodd" d="M407.419 59.6642C408.116 59.6642 408.68 59.0989 408.68 58.4015C408.68 57.7041 408.116 57.1387 407.419 57.1387C406.723 57.1387 406.158 57.7041 406.158 58.4015C406.158 59.0989 406.723 59.6642 407.419 59.6642ZM407.419 60.3801C408.511 60.3801 409.395 59.4943 409.395 58.4015C409.395 57.3087 408.511 56.4229 407.419 56.4229C406.328 56.4229 405.443 57.3087 405.443 58.4015C405.443 59.4943 406.328 60.3801 407.419 60.3801Z" fill="white"/>
<path fill-rule="evenodd" clip-rule="evenodd" d="M296.193 107.436C296.89 107.436 297.454 106.87 297.454 106.173C297.454 105.476 296.89 104.91 296.193 104.91C295.496 104.91 294.932 105.476 294.932 106.173C294.932 106.87 295.496 107.436 296.193 107.436ZM296.193 108.152C297.284 108.152 298.169 107.266 298.169 106.173C298.169 105.08 297.284 104.194 296.193 104.194C295.102 104.194 294.217 105.08 294.217 106.173C294.217 107.266 295.102 108.152 296.193 108.152Z" fill="white"/>
<path fill-rule="evenodd" clip-rule="evenodd" d="M492.505 141.277C493.202 141.277 493.766 140.711 493.766 140.014C493.766 139.316 493.202 138.751 492.505 138.751C491.808 138.751 491.244 139.316 491.244 140.014C491.244 140.711 491.808 141.277 492.505 141.277ZM492.505 141.992C493.596 141.992 494.481 141.107 494.481 140.014C494.481 138.921 493.596 138.035 492.505 138.035C491.414 138.035 490.529 138.921 490.529 140.014C490.529 141.107 491.414 141.992 492.505 141.992Z" fill="white"/>
<path d="M636.743 191.717C636.743 192.81 635.859 193.696 634.767 193.696C633.676 193.696 632.791 192.81 632.791 191.717C632.791 190.624 633.676 189.738 634.767 189.738C635.859 189.738 636.743 190.624 636.743 191.717Z" fill="white"/>
<path fill-rule="evenodd" clip-rule="evenodd" d="M696.642 231.626C697.338 231.626 697.903 231.061 697.903 230.363C697.903 229.666 697.338 229.101 696.642 229.101C695.945 229.101 695.381 229.666 695.381 230.363C695.381 231.061 695.945 231.626 696.642 231.626ZM696.642 232.342C697.733 232.342 698.618 231.456 698.618 230.363C698.618 229.271 697.733 228.385 696.642 228.385C695.55 228.385 694.666 229.271 694.666 230.363C694.666 231.456 695.55 232.342 696.642 232.342Z" fill="white"/>
</g>
<g opacity="0.1" filter="url(#filter1_f)">
<path opacity="0.1" d="M249.083 193.345C249.083 193.955 248.59 194.449 247.981 194.449C247.372 194.449 246.878 193.955 246.878 193.345C246.878 192.736 247.372 192.241 247.981 192.241C248.59 192.241 249.083 192.736 249.083 193.345Z" fill="white"/>
<path opacity="0.1" d="M95.5511 178.999C95.5511 179.608 95.0574 180.103 94.4484 180.103C93.8394 180.103 93.3457 179.608 93.3457 178.999C93.3457 178.389 93.8394 177.895 94.4484 177.895C95.0574 177.895 95.5511 178.389 95.5511 178.999Z" fill="white"/>
<path d="M112.268 265.007C112.268 265.769 111.65 266.387 110.889 266.387C110.128 266.387 109.511 265.769 109.511 265.007C109.511 264.245 110.128 263.627 110.889 263.627C111.65 263.627 112.268 264.245 112.268 265.007Z" fill="white"/>
<path d="M73.2044 66.9312C73.2044 67.541 72.7107 68.0353 72.1017 68.0353C71.4927 68.0353 70.999 67.541 70.999 66.9312C70.999 66.3215 71.4927 65.8271 72.1017 65.8271C72.7107 65.8271 73.2044 66.3215 73.2044 66.9312Z" fill="white"/>
<path fill-rule="evenodd" clip-rule="evenodd" d="M378.178 105.172C378.761 105.172 379.234 104.699 379.234 104.115C379.234 103.531 378.761 103.058 378.178 103.058C377.595 103.058 377.122 103.531 377.122 104.115C377.122 104.699 377.595 105.172 378.178 105.172ZM378.178 105.771C379.091 105.771 379.832 105.03 379.832 104.115C379.832 103.2 379.091 102.459 378.178 102.459C377.264 102.459 376.524 103.2 376.524 104.115C376.524 105.03 377.264 105.771 378.178 105.771Z" fill="white"/>
<path fill-rule="evenodd" clip-rule="evenodd" d="M197.934 121.886C198.517 121.886 198.989 121.413 198.989 120.829C198.989 120.245 198.517 119.772 197.934 119.772C197.351 119.772 196.878 120.245 196.878 120.829C196.878 121.413 197.351 121.886 197.934 121.886ZM197.934 122.485C198.847 122.485 199.588 121.744 199.588 120.829C199.588 119.914 198.847 119.173 197.934 119.173C197.02 119.173 196.28 119.914 196.28 120.829C196.28 121.744 197.02 122.485 197.934 122.485Z" fill="white"/>
<path fill-rule="evenodd" clip-rule="evenodd" d="M104.839 161.87C105.422 161.87 105.895 161.397 105.895 160.813C105.895 160.23 105.422 159.756 104.839 159.756C104.256 159.756 103.784 160.23 103.784 160.813C103.784 161.397 104.256 161.87 104.839 161.87ZM104.839 162.469C105.753 162.469 106.493 161.728 106.493 160.813C106.493 159.899 105.753 159.157 104.839 159.157C103.926 159.157 103.185 159.899 103.185 160.813C103.185 161.728 103.926 162.469 104.839 162.469Z" fill="white"/>
<path fill-rule="evenodd" clip-rule="evenodd" d="M269.149 190.194C269.732 190.194 270.205 189.721 270.205 189.138C270.205 188.554 269.732 188.081 269.149 188.081C268.566 188.081 268.094 188.554 268.094 189.138C268.094 189.721 268.566 190.194 269.149 190.194ZM269.149 190.794C270.063 190.794 270.803 190.052 270.803 189.138C270.803 188.223 270.063 187.481 269.149 187.481C268.236 187.481 267.495 188.223 267.495 189.138C267.495 190.052 268.236 190.794 269.149 190.794Z" fill="white"/>
<path d="M389.875 232.413C389.875 233.328 389.134 234.069 388.22 234.069C387.307 234.069 386.566 233.328 386.566 232.413C386.566 231.498 387.307 230.757 388.22 230.757C389.134 230.757 389.875 231.498 389.875 232.413Z" fill="white"/>
<path fill-rule="evenodd" clip-rule="evenodd" d="M442.428 204.03C443.011 204.03 443.484 203.557 443.484 202.973C443.484 202.39 443.011 201.917 442.428 201.917C441.845 201.917 441.373 202.39 441.373 202.973C441.373 203.557 441.845 204.03 442.428 204.03ZM442.428 204.63C443.342 204.63 444.082 203.888 444.082 202.973C444.082 202.059 443.342 201.317 442.428 201.317C441.515 201.317 440.774 202.059 440.774 202.973C440.774 203.888 441.515 204.63 442.428 204.63Z" fill="white"/>
</g>
<g opacity="0.1" filter="url(#filter2_f)">
<path opacity="0.1" d="M691.457 193.345C691.457 193.955 690.963 194.449 690.354 194.449C689.745 194.449 689.251 193.955 689.251 193.345C689.251 192.736 689.745 192.241 690.354 192.241C690.963 192.241 691.457 192.736 691.457 193.345Z" fill="white"/>
<path opacity="0.1" d="M537.925 178.999C537.925 179.608 537.431 180.103 536.822 180.103C536.213 180.103 535.719 179.608 535.719 178.999C535.719 178.389 536.213 177.895 536.822 177.895C537.431 177.895 537.925 178.389 537.925 178.999Z" fill="white"/>
<path d="M554.641 265.007C554.641 265.769 554.024 266.387 553.263 266.387C552.501 266.387 551.884 265.769 551.884 265.007C551.884 264.245 552.501 263.627 553.263 263.627C554.024 263.627 554.641 264.245 554.641 265.007Z" fill="white"/>
<path d="M440.384 171.683C440.384 172.445 439.767 173.063 439.005 173.063C438.244 173.063 437.627 172.445 437.627 171.683C437.627 170.921 438.244 170.303 439.005 170.303C439.767 170.303 440.384 170.921 440.384 171.683Z" fill="white"/>
<path d="M515.578 66.9312C515.578 67.541 515.084 68.0353 514.475 68.0353C513.866 68.0353 513.373 67.541 513.373 66.9312C513.373 66.3215 513.866 65.8271 514.475 65.8271C515.084 65.8271 515.578 66.3215 515.578 66.9312Z" fill="white"/>
<path fill-rule="evenodd" clip-rule="evenodd" d="M820.551 105.172C821.134 105.172 821.607 104.699 821.607 104.115C821.607 103.531 821.134 103.058 820.551 103.058C819.968 103.058 819.495 103.531 819.495 104.115C819.495 104.699 819.968 105.172 820.551 105.172ZM820.551 105.771C821.465 105.771 822.205 105.03 822.205 104.115C822.205 103.2 821.465 102.459 820.551 102.459C819.638 102.459 818.897 103.2 818.897 104.115C818.897 105.03 819.638 105.771 820.551 105.771Z" fill="white"/>
<path fill-rule="evenodd" clip-rule="evenodd" d="M640.307 121.886C640.89 121.886 641.363 121.413 641.363 120.829C641.363 120.245 640.89 119.772 640.307 119.772C639.724 119.772 639.252 120.245 639.252 120.829C639.252 121.413 639.724 121.886 640.307 121.886ZM640.307 122.485C641.221 122.485 641.961 121.744 641.961 120.829C641.961 119.914 641.221 119.173 640.307 119.173C639.394 119.173 638.653 119.914 638.653 120.829C638.653 121.744 639.394 122.485 640.307 122.485Z" fill="white"/>
<path fill-rule="evenodd" clip-rule="evenodd" d="M547.213 161.87C547.796 161.87 548.268 161.397 548.268 160.813C548.268 160.23 547.796 159.756 547.213 159.756C546.63 159.756 546.157 160.23 546.157 160.813C546.157 161.397 546.63 161.87 547.213 161.87ZM547.213 162.469C548.126 162.469 548.867 161.728 548.867 160.813C548.867 159.899 548.126 159.157 547.213 159.157C546.299 159.157 545.559 159.899 545.559 160.813C545.559 161.728 546.299 162.469 547.213 162.469Z" fill="white"/>
<path fill-rule="evenodd" clip-rule="evenodd" d="M711.523 190.194C712.106 190.194 712.578 189.721 712.578 189.138C712.578 188.554 712.106 188.081 711.523 188.081C710.94 188.081 710.467 188.554 710.467 189.138C710.467 189.721 710.94 190.194 711.523 190.194ZM711.523 190.794C712.436 190.794 713.177 190.052 713.177 189.138C713.177 188.223 712.436 187.481 711.523 187.481C710.609 187.481 709.869 188.223 709.869 189.138C709.869 190.052 710.609 190.794 711.523 190.794Z" fill="white"/>
</g>
<path d="M467.967 28.7822L467.482 30.5646L465.702 31.0507L467.482 31.5367L467.967 33.3191L468.453 31.5367L470.233 31.0507L468.453 30.5646L467.967 28.7822Z" fill="white"/>
<path d="M232.037 36.6857C232.037 35.836 232.725 35.1473 233.573 35.1473C234.422 35.1473 235.11 35.836 235.11 36.6857C235.11 37.5353 234.422 38.2241 233.573 38.2241C232.725 38.2241 232.037 37.5353 232.037 36.6857Z" fill="white"/>
<path d="M699.749 140.959L698.903 144.067L695.798 144.915L698.903 145.763L699.749 148.871L700.596 145.763L703.701 144.915L700.596 144.067L699.749 140.959Z" fill="white"/>
<path d="M697.757 147.008L698.416 146.349L698.317 146.25L697.659 146.909L697.757 147.008Z" fill="white"/>
<path d="M697.648 147.118L697.428 147.338L697.329 147.239L697.549 147.019L697.648 147.118Z" fill="white"/>
<path d="M697.099 147.667L697.318 147.448L697.22 147.349L697 147.569L697.099 147.667Z" fill="white"/>
<path d="M701.248 143.514L701.906 142.855L701.807 142.756L701.149 143.415L701.248 143.514Z" fill="white"/>
<path d="M702.235 142.525L702.016 142.745L701.917 142.646L702.137 142.426L702.235 142.525Z" fill="white"/>
<path d="M702.345 142.415L702.565 142.195L702.466 142.097L702.246 142.316L702.345 142.415Z" fill="white"/>
<path d="M697.593 142.855L698.251 143.514L698.35 143.415L697.692 142.756L697.593 142.855Z" fill="white"/>
<path d="M697.483 142.745L697.264 142.525L697.362 142.426L697.582 142.646L697.483 142.745Z" fill="white"/>
<path d="M696.934 142.195L697.154 142.415L697.253 142.316L697.033 142.097L696.934 142.195Z" fill="white"/>
<path d="M701.083 146.349L701.742 147.008L701.84 146.909L701.182 146.25L701.083 146.349Z" fill="white"/>
<path d="M702.071 147.338L701.851 147.118L701.95 147.019L702.17 147.239L702.071 147.338Z" fill="white"/>
<path d="M702.181 147.448L702.4 147.668L702.499 147.569L702.279 147.349L702.181 147.448Z" fill="white"/>
<path d="M163.247 270.943L162.401 274.051L159.296 274.898L162.401 275.746L163.247 278.854L164.094 275.746L167.199 274.898L164.094 274.051L163.247 270.943Z" fill="white"/>
<path d="M161.914 276.332L161.255 276.991L161.156 276.893L161.815 276.233L161.914 276.332Z" fill="white"/>
<path d="M160.926 277.321L161.145 277.101L161.047 277.002L160.827 277.222L160.926 277.321Z" fill="white"/>
<path d="M160.816 277.431L160.597 277.651L160.498 277.552L160.717 277.332L160.816 277.431Z" fill="white"/>
<path d="M165.404 272.838L164.745 273.497L164.647 273.398L165.305 272.739L165.404 272.838Z" fill="white"/>
<path d="M165.514 272.728L165.733 272.508L165.634 272.409L165.415 272.629L165.514 272.728Z" fill="white"/>
<path d="M166.062 272.179L165.843 272.398L165.744 272.3L165.964 272.08L166.062 272.179Z" fill="white"/>
<path d="M161.749 273.497L161.091 272.838L161.189 272.739L161.848 273.398L161.749 273.497Z" fill="white"/>
<path d="M160.761 272.508L160.981 272.728L161.08 272.629L160.86 272.409L160.761 272.508Z" fill="white"/>
<path d="M160.652 272.398L160.432 272.179L160.531 272.08L160.75 272.3L160.652 272.398Z" fill="white"/>
<path d="M165.239 276.991L164.581 276.332L164.68 276.233L165.338 276.893L165.239 276.991Z" fill="white"/>
<path d="M165.349 277.101L165.569 277.321L165.667 277.222L165.448 277.002L165.349 277.101Z" fill="white"/>
<path d="M165.898 277.651L165.678 277.431L165.777 277.332L165.997 277.552L165.898 277.651Z" fill="white"/>
<path d="M665.516 286.68C664.668 286.68 663.98 287.369 663.98 288.219C663.98 289.068 664.668 289.757 665.516 289.757C666.365 289.757 667.053 289.068 667.053 288.219C667.053 287.369 666.365 286.68 665.516 286.68Z" fill="white"/>
<path d="M651.201 272.231C651.557 272.231 651.845 271.943 651.845 271.587C651.845 271.231 651.557 270.943 651.201 270.943C650.846 270.943 650.558 271.231 650.558 271.587C650.558 271.943 650.846 272.231 651.201 272.231Z" fill="white"/>
<path d="M514.347 257.7L513.5 260.808L510.396 261.656L513.5 262.504L514.347 265.612L515.193 262.504L518.298 261.656L515.193 260.808L514.347 257.7Z" fill="white"/>
<path d="M513.013 263.09L512.355 263.749L512.256 263.65L512.914 262.991L513.013 263.09Z" fill="white"/>
<path d="M512.025 264.079L512.245 263.859L512.146 263.76L511.927 263.98L512.025 264.079Z" fill="white"/>
<path d="M511.916 264.189L511.696 264.408L511.597 264.31L511.817 264.09L511.916 264.189Z" fill="white"/>
<path d="M516.504 259.596L515.845 260.255L515.746 260.156L516.405 259.497L516.504 259.596Z" fill="white"/>
<path d="M516.613 259.486L516.833 259.266L516.734 259.167L516.514 259.387L516.613 259.486Z" fill="white"/>
<path d="M517.162 258.936L516.943 259.156L516.844 259.057L517.063 258.838L517.162 258.936Z" fill="white"/>
<path d="M512.849 260.255L512.19 259.596L512.289 259.497L512.948 260.156L512.849 260.255Z" fill="white"/>
<path d="M511.861 259.266L512.08 259.486L512.179 259.387L511.96 259.167L511.861 259.266Z" fill="white"/>
<path d="M511.751 259.156L511.532 258.936L511.63 258.838L511.85 259.057L511.751 259.156Z" fill="white"/>
<path d="M516.339 263.749L515.68 263.09L515.779 262.991L516.438 263.65L516.339 263.749Z" fill="white"/>
<path d="M516.449 263.859L516.668 264.079L516.767 263.98L516.548 263.76L516.449 263.859Z" fill="white"/>
<path d="M516.998 264.409L516.778 264.189L516.877 264.09L517.096 264.31L516.998 264.409Z" fill="white"/>
<path d="M336.085 130.743L336.931 127.635L337.778 130.743L340.883 131.591L337.778 132.439L336.931 135.547L336.085 132.439L332.98 131.591L336.085 130.743Z" fill="white"/>
<path d="M334.939 133.684L335.598 133.025L335.499 132.926L334.841 133.585L334.939 133.684Z" fill="white"/>
<path d="M334.83 133.794L334.61 134.014L334.511 133.915L334.731 133.695L334.83 133.794Z" fill="white"/>
<path d="M334.281 134.343L334.5 134.124L334.402 134.025L334.182 134.245L334.281 134.343Z" fill="white"/>
<path d="M338.43 130.19L339.088 129.531L338.989 129.432L338.331 130.091L338.43 130.19Z" fill="white"/>
<path d="M339.417 129.201L339.198 129.421L339.099 129.322L339.319 129.102L339.417 129.201Z" fill="white"/>
<path d="M339.527 129.091L339.747 128.871L339.648 128.772L339.428 128.992L339.527 129.091Z" fill="white"/>
<path d="M334.775 129.531L335.433 130.19L335.532 130.091L334.874 129.432L334.775 129.531Z" fill="white"/>
<path d="M334.665 129.421L334.446 129.201L334.544 129.102L334.764 129.322L334.665 129.421Z" fill="white"/>
<path d="M334.116 128.871L334.336 129.091L334.435 128.992L334.215 128.773L334.116 128.871Z" fill="white"/>
<path d="M338.265 133.025L338.924 133.684L339.022 133.585L338.364 132.926L338.265 133.025Z" fill="white"/>
<path d="M339.253 134.014L339.033 133.794L339.132 133.695L339.352 133.915L339.253 134.014Z" fill="white"/>
<path d="M339.363 134.124L339.582 134.343L339.681 134.245L339.461 134.025L339.363 134.124Z" fill="white"/>
<path d="M467.224 31.894L466.846 32.2721L466.747 32.1732L467.125 31.7951L467.224 31.894Z" fill="white"/>
<path d="M466.657 32.4613L466.783 32.3353L466.685 32.2364L466.559 32.3624L466.657 32.4613Z" fill="white"/>
<path d="M466.595 32.5243L466.469 32.6503L466.37 32.5514L466.496 32.4254L466.595 32.5243Z" fill="white"/>
<path d="M469.225 29.8904L468.848 30.2685L468.749 30.1696L469.127 29.7915L469.225 29.8904Z" fill="white"/>
<path d="M469.288 29.8274L469.414 29.7014L469.316 29.6025L469.19 29.7285L469.288 29.8274Z" fill="white"/>
<path d="M469.603 29.5123L469.477 29.6383L469.379 29.5394L469.505 29.4134L469.603 29.5123Z" fill="white"/>
<path d="M467.087 30.2682L466.71 29.8902L466.808 29.7913L467.186 30.1694L467.087 30.2682Z" fill="white"/>
<path d="M466.521 29.7013L466.646 29.8274L466.745 29.7285L466.619 29.6024L466.521 29.7013Z" fill="white"/>
<path d="M466.458 29.6383L466.332 29.5123L466.431 29.4134L466.557 29.5394L466.458 29.6383Z" fill="white"/>
<path d="M469.089 32.272L468.711 31.894L468.81 31.7951L469.187 32.1731L469.089 32.272Z" fill="white"/>
<path d="M469.152 32.335L469.277 32.4611L469.376 32.3622L469.25 32.2361L469.152 32.335Z" fill="white"/>
<path d="M469.466 32.6501L469.341 32.5241L469.439 32.4252L469.565 32.5512L469.466 32.6501Z" fill="white"/>
<path d="M201.595 103.569L202.08 101.786L202.566 103.569L204.346 104.055L202.566 104.541L202.08 106.323L201.595 104.541L199.815 104.055L201.595 103.569Z" fill="white"/>
<path d="M200.959 105.276L201.337 104.898L201.238 104.799L200.86 105.177L200.959 105.276Z" fill="white"/>
<path d="M200.896 105.34L200.77 105.466L200.671 105.367L200.797 105.241L200.896 105.34Z" fill="white"/>
<path d="M200.582 105.655L200.707 105.529L200.609 105.43L200.483 105.556L200.582 105.655Z" fill="white"/>
<path d="M202.961 103.273L203.338 102.895L203.24 102.796L202.862 103.174L202.961 103.273Z" fill="white"/>
<path d="M203.527 102.706L203.401 102.832L203.302 102.733L203.428 102.607L203.527 102.706Z" fill="white"/>
<path d="M203.59 102.643L203.716 102.517L203.617 102.418L203.491 102.544L203.59 102.643Z" fill="white"/>
<path d="M200.822 102.894L201.2 103.273L201.299 103.174L200.921 102.796L200.822 102.894Z" fill="white"/>
<path d="M200.759 102.832L200.633 102.706L200.732 102.607L200.858 102.733L200.759 102.832Z" fill="white"/>
<path d="M200.445 102.517L200.571 102.643L200.669 102.544L200.543 102.418L200.445 102.517Z" fill="white"/>
<path d="M202.824 104.898L203.201 105.276L203.3 105.177L202.922 104.799L202.824 104.898Z" fill="white"/>
<path d="M203.39 105.465L203.264 105.339L203.363 105.24L203.489 105.366L203.39 105.465Z" fill="white"/>
<path d="M203.453 105.528L203.579 105.654L203.678 105.555L203.552 105.429L203.453 105.528Z" fill="white"/>
<g opacity="0.5">
<path d="M411.508 362.13L412.263 359.359L415.031 358.603L412.263 357.848L411.508 355.077L410.753 357.848L407.985 358.603L410.753 359.359L411.508 362.13Z" fill="white"/>
<path d="M778.293 349.843C778.293 351.164 777.224 352.235 775.904 352.235C774.585 352.235 773.515 351.164 773.515 349.843C773.515 348.522 774.585 347.451 775.904 347.451C777.224 347.451 778.293 348.522 778.293 349.843Z" fill="white"/>
<path d="M51.1725 187.736L52.4888 182.904L57.3152 181.586L52.4888 180.268L51.1725 175.436L49.8562 180.268L45.0298 181.586L49.8562 182.904L51.1725 187.736Z" fill="white"/>
<path d="M54.2695 178.332L53.2457 179.357L53.3993 179.511L54.423 178.486L54.2695 178.332Z" fill="white"/>
<path d="M54.4401 178.161L54.7814 177.82L54.9349 177.973L54.5937 178.315L54.4401 178.161Z" fill="white"/>
<path d="M55.2932 177.307L54.952 177.649L55.1056 177.803L55.4468 177.461L55.2932 177.307Z" fill="white"/>
<path d="M48.8434 183.764L47.8196 184.789L47.9732 184.943L48.997 183.918L48.8434 183.764Z" fill="white"/>
<path d="M47.3077 185.302L47.649 184.96L47.8026 185.114L47.4613 185.455L47.3077 185.302Z" fill="white"/>
<path d="M47.1371 185.473L46.7959 185.814L46.9494 185.968L47.2907 185.626L47.1371 185.473Z" fill="white"/>
<path d="M54.5253 184.789L53.5015 183.764L53.3479 183.918L54.3717 184.943L54.5253 184.789Z" fill="white"/>
<path d="M54.6959 184.96L55.0372 185.302L54.8836 185.455L54.5423 185.114L54.6959 184.96Z" fill="white"/>
<path d="M55.5491 185.814L55.2078 185.473L55.0542 185.626L55.3955 185.968L55.5491 185.814Z" fill="white"/>
<path d="M49.0992 179.357L48.0755 178.332L47.9219 178.486L48.9457 179.511L49.0992 179.357Z" fill="white"/>
<path d="M47.5635 177.82L47.9048 178.161L47.7512 178.315L47.41 177.973L47.5635 177.82Z" fill="white"/>
<path d="M47.3929 177.649L47.0516 177.307L46.8981 177.461L47.2393 177.802L47.3929 177.649Z" fill="white"/>
<path d="M840.561 81.5241L841.877 76.6923L846.704 75.3745L841.877 74.0567L840.561 69.2249L839.245 74.0567L834.418 75.3745L839.245 76.6923L840.561 81.5241Z" fill="white"/>
<path d="M842.634 73.1455L843.658 72.1205L843.812 72.2743L842.788 73.2992L842.634 73.1455Z" fill="white"/>
<path d="M844.17 71.6081L843.829 71.9497L843.982 72.1034L844.323 71.7618L844.17 71.6081Z" fill="white"/>
<path d="M844.341 71.4372L844.682 71.0956L844.835 71.2493L844.494 71.5909L844.341 71.4372Z" fill="white"/>
<path d="M837.208 78.5776L838.232 77.5527L838.386 77.7064L837.362 78.7314L837.208 78.5776Z" fill="white"/>
<path d="M837.038 78.7484L836.696 79.0901L836.85 79.2439L837.191 78.9022L837.038 78.7484Z" fill="white"/>
<path d="M836.184 79.6026L836.526 79.2609L836.679 79.4147L836.338 79.7563L836.184 79.6026Z" fill="white"/>
<path d="M842.89 77.5526L843.914 78.5776L843.76 78.7313L842.736 77.7064L842.89 77.5526Z" fill="white"/>
<path d="M844.426 79.09L844.084 78.7484L843.931 78.9021L844.272 79.2438L844.426 79.09Z" fill="white"/>
<path d="M844.596 79.2609L844.938 79.6025L844.784 79.7563L844.443 79.4146L844.596 79.2609Z" fill="white"/>
<path d="M837.464 72.1205L838.488 73.1454L838.334 73.2991L837.31 72.2742L837.464 72.1205Z" fill="white"/>
<path d="M837.293 71.9496L836.952 71.608L836.799 71.7617L837.14 72.1034L837.293 71.9496Z" fill="white"/>
<path d="M836.44 71.0955L836.781 71.4371L836.628 71.5909L836.287 71.2492L836.44 71.0955Z" fill="white"/>
<path d="M104.392 -38.8062C105.712 -38.8062 106.781 -39.877 106.781 -41.1979C106.781 -42.5188 105.712 -43.5896 104.392 -43.5896C103.073 -43.5896 102.003 -42.5188 102.003 -41.1979C102.003 -39.877 103.073 -38.8062 104.392 -38.8062Z" fill="white"/>
<path d="M126.647 -16.3433C126.094 -16.3433 125.646 -15.895 125.646 -15.3418C125.646 -14.7887 126.094 -14.3402 126.647 -14.3402C127.199 -14.3402 127.647 -14.7887 127.647 -15.3418C127.647 -15.895 127.199 -16.3433 126.647 -16.3433Z" fill="white"/>
<path d="M339.405 6.24658L340.721 1.41467L345.548 0.0968933L340.721 -1.22086L339.405 -6.0527L338.089 -1.22086L333.263 0.0968933L338.089 1.41467L339.405 6.24658Z" fill="white"/>
<path d="M341.478 -2.13211L342.502 -3.1571L342.656 -3.00336L341.632 -1.97839L341.478 -2.13211Z" fill="white"/>
<path d="M343.014 -3.66956L342.673 -3.32788L342.826 -3.17413L343.168 -3.51581L343.014 -3.66956Z" fill="white"/>
<path d="M343.185 -3.84036L343.526 -4.18201L343.68 -4.02829L343.338 -3.68665L343.185 -3.84036Z" fill="white"/>
<path d="M336.052 3.30005L337.076 2.27509L337.23 2.42883L336.206 3.4538L336.052 3.30005Z" fill="white"/>
<path d="M335.882 3.47086L335.54 3.81253L335.694 3.96628L336.035 3.6246L335.882 3.47086Z" fill="white"/>
<path d="M335.029 4.32498L335.37 3.98334L335.523 4.13708L335.182 4.4787L335.029 4.32498Z" fill="white"/>
<path d="M341.734 2.27502L342.758 3.29993L342.604 3.45374L341.581 2.42874L341.734 2.27502Z" fill="white"/>
<path d="M343.27 3.81244L342.929 3.47079L342.775 3.62451L343.116 3.96616L343.27 3.81244Z" fill="white"/>
<path d="M343.441 3.98331L343.782 4.32495L343.628 4.47867L343.287 4.13702L343.441 3.98331Z" fill="white"/>
<path d="M336.308 -3.15714L337.332 -2.1322L337.178 -1.97849L336.155 -3.00339L336.308 -3.15714Z" fill="white"/>
<path d="M336.138 -3.32797L335.796 -3.66962L335.643 -3.51587L335.984 -3.17426L336.138 -3.32797Z" fill="white"/>
<path d="M335.284 -4.18213L335.626 -3.84048L335.472 -3.68674L335.131 -4.02835L335.284 -4.18213Z" fill="white"/>
<path d="M568.187 120.492L566.87 125.324L565.554 120.492L560.728 119.174L565.554 117.856L566.87 113.024L568.187 117.856L573.013 119.174L568.187 120.492Z" fill="white"/>
<path d="M569.967 115.92L568.943 116.945L569.097 117.099L570.121 116.074L569.967 115.92Z" fill="white"/>
<path d="M570.138 115.749L570.479 115.407L570.633 115.561L570.291 115.903L570.138 115.749Z" fill="white"/>
<path d="M570.991 114.895L570.65 115.237L570.803 115.39L571.145 115.049L570.991 114.895Z" fill="white"/>
<path d="M564.541 121.352L563.517 122.377L563.671 122.531L564.695 121.506L564.541 121.352Z" fill="white"/>
<path d="M563.006 122.889L563.347 122.548L563.5 122.702L563.159 123.043L563.006 122.889Z" fill="white"/>
<path d="M562.835 123.06L562.494 123.402L562.647 123.556L562.988 123.214L562.835 123.06Z" fill="white"/>
<path d="M570.223 122.377L569.199 121.352L569.046 121.506L570.069 122.531L570.223 122.377Z" fill="white"/>
<path d="M570.394 122.548L570.735 122.889L570.581 123.043L570.24 122.702L570.394 122.548Z" fill="white"/>
<path d="M571.247 123.402L570.906 123.06L570.752 123.214L571.093 123.556L571.247 123.402Z" fill="white"/>
<path d="M564.797 116.945L563.773 115.92L563.62 116.074L564.643 117.098L564.797 116.945Z" fill="white"/>
<path d="M563.261 115.407L563.603 115.749L563.449 115.903L563.108 115.561L563.261 115.407Z" fill="white"/>
<path d="M563.091 115.236L562.749 114.895L562.596 115.049L562.937 115.39L563.091 115.236Z" fill="white"/>
<path d="M412.664 357.292L413.251 356.704L413.405 356.858L412.818 357.446L412.664 357.292Z" fill="white"/>
<path d="M413.545 356.41L413.349 356.606L413.502 356.76L413.698 356.564L413.545 356.41Z" fill="white"/>
<path d="M413.642 356.312L413.838 356.116L413.992 356.27L413.796 356.466L413.642 356.312Z" fill="white"/>
<path d="M409.552 360.407L410.139 359.819L410.293 359.973L409.706 360.561L409.552 360.407Z" fill="white"/>
<path d="M409.454 360.505L409.259 360.701L409.412 360.855L409.608 360.659L409.454 360.505Z" fill="white"/>
<path d="M408.965 360.995L409.16 360.799L409.314 360.953L409.118 361.149L408.965 360.995Z" fill="white"/>
<path d="M412.876 359.82L413.463 360.407L413.31 360.561L412.723 359.973L412.876 359.82Z" fill="white"/>
<path d="M413.757 360.701L413.562 360.505L413.408 360.659L413.604 360.855L413.757 360.701Z" fill="white"/>
<path d="M413.855 360.799L414.051 360.995L413.897 361.149L413.701 360.953L413.855 360.799Z" fill="white"/>
<path d="M409.765 356.705L410.352 357.292L410.199 357.446L409.612 356.858L409.765 356.705Z" fill="white"/>
<path d="M409.667 356.607L409.472 356.411L409.318 356.564L409.514 356.76L409.667 356.607Z" fill="white"/>
<path d="M409.178 356.117L409.373 356.313L409.22 356.466L409.024 356.27L409.178 356.117Z" fill="white"/>
<path d="M825.619 245.864L824.864 248.635L824.109 245.864L821.342 245.109L824.109 244.353L824.864 241.582L825.619 244.353L828.387 245.109L825.619 245.864Z" fill="white"/>
<path d="M826.608 243.21L826.021 243.797L826.174 243.951L826.761 243.363L826.608 243.21Z" fill="white"/>
<path d="M826.705 243.112L826.901 242.916L827.055 243.069L826.859 243.265L826.705 243.112Z" fill="white"/>
<path d="M827.194 242.622L826.999 242.818L827.152 242.971L827.348 242.775L827.194 242.622Z" fill="white"/>
<path d="M823.496 246.325L822.909 246.912L823.062 247.066L823.649 246.478L823.496 246.325Z" fill="white"/>
<path d="M822.615 247.206L822.811 247.01L822.964 247.164L822.769 247.36L822.615 247.206Z" fill="white"/>
<path d="M822.517 247.304L822.321 247.5L822.475 247.654L822.671 247.458L822.517 247.304Z" fill="white"/>
<path d="M826.82 246.913L826.233 246.325L826.079 246.479L826.667 247.066L826.82 246.913Z" fill="white"/>
<path d="M826.918 247.01L827.114 247.206L826.96 247.36L826.765 247.164L826.918 247.01Z" fill="white"/>
<path d="M827.407 247.5L827.212 247.304L827.058 247.458L827.254 247.654L827.407 247.5Z" fill="white"/>
<path d="M823.709 243.798L823.122 243.21L822.968 243.364L823.555 243.951L823.709 243.798Z" fill="white"/>
<path d="M822.828 242.916L823.024 243.112L822.87 243.266L822.674 243.07L822.828 242.916Z" fill="white"/>
<path d="M822.73 242.818L822.534 242.622L822.381 242.776L822.576 242.972L822.73 242.818Z" fill="white"/>
</g>
<path opacity="0.1" d="M79.2945 65.0038L78.9849 58.3376L204.789 -55.6074L86.3396 65.3139L79.2945 65.0038Z" fill="#E9E6ED"/>
<path fill-rule="evenodd" clip-rule="evenodd" d="M81.2544 64.9775L83.3581 59.2626L78.6483 63.1155L72.9412 61.0065L76.79 65.7249L74.6864 71.4398L79.3962 67.5869L85.1033 69.6959L81.2544 64.9775ZM79.6744 70.7822L79.3836 69.0435L79.8812 68.9602L80.172 70.6989L79.6744 70.7822ZM79.7223 71.0719L79.8192 71.6515L80.3169 71.5682L80.22 70.9886L79.7223 71.0719ZM79.9647 72.521L79.8677 71.9414L80.3654 71.8581L80.4624 72.4377L79.9647 72.521ZM78.1351 61.5684L77.8443 59.8297L78.3419 59.7464L78.6327 61.4851L78.1351 61.5684ZM77.6989 58.9603L77.7958 59.5399L78.2935 59.4566L78.1966 58.877L77.6989 58.9603ZM77.6497 58.6699L77.5527 58.0903L78.0504 58.007L78.1474 58.5866L77.6497 58.6699ZM84.6193 64.669L82.8829 64.9597L82.7995 64.4611L84.5359 64.1704L84.6193 64.669ZM84.9101 64.6212L85.4888 64.5243L85.4054 64.0258L84.8267 64.1226L84.9101 64.6212ZM86.3565 64.3788L85.7778 64.4757L85.6944 63.9771L86.2732 63.8803L86.3565 64.3788ZM75.416 66.2108L73.6797 66.5016L73.5963 66.0029L75.3326 65.7122L75.416 66.2108ZM72.8113 66.6468L73.3901 66.55L73.3067 66.0514L72.728 66.1483L72.8113 66.6468ZM72.5222 66.6956L71.9434 66.7925L71.86 66.2939L72.4388 66.197L72.5222 66.6956Z" fill="white"/>
<path opacity="0.1" d="M174.812 218.161L174.726 216.307L311.934 87.6377L176.772 218.247L174.812 218.161Z" fill="#E9E6ED"/>
<path fill-rule="evenodd" clip-rule="evenodd" d="M175.182 217.812L174.737 216.178L174.291 217.812L172.659 218.258L174.291 218.704L174.737 220.339L175.182 218.704L176.815 218.258L175.182 217.812ZM175.761 219.383L175.414 219.036L175.514 218.937L175.86 219.283L175.761 219.383ZM175.818 219.441L175.934 219.557L176.033 219.457L175.918 219.341L175.818 219.441ZM176.107 219.73L175.991 219.614L176.091 219.515L176.207 219.631L176.107 219.73ZM173.926 217.545L173.579 217.198L173.678 217.099L174.025 217.446L173.926 217.545ZM173.405 217.025L173.521 217.141L173.621 217.041L173.505 216.925L173.405 217.025ZM173.348 216.967L173.232 216.852L173.331 216.752L173.447 216.868L173.348 216.967ZM175.894 217.198L175.548 217.545L175.449 217.446L175.795 217.099L175.894 217.198ZM175.953 217.141L176.068 217.025L175.969 216.925L175.853 217.041L175.953 217.141ZM176.241 216.852L176.126 216.968L176.026 216.868L176.142 216.752L176.241 216.852ZM174.059 219.036L173.712 219.383L173.613 219.284L173.959 218.937L174.059 219.036ZM173.539 219.557L173.655 219.441L173.555 219.341L173.44 219.457L173.539 219.557ZM173.482 219.614L173.366 219.73L173.267 219.631L173.382 219.515L173.482 219.614Z" fill="white"/>
<path opacity="0.1" d="M678.459 200.963L678.149 194.297L1019.72 -134.594L685.504 201.273L678.459 200.963Z" fill="#E9E6ED"/>
<path fill-rule="evenodd" clip-rule="evenodd" d="M680.351 196.465L674.27 196.596L679.578 199.575L679.712 205.664L682.684 200.351L688.765 200.219L683.457 197.241L683.323 191.151L680.351 196.465ZM686.325 195.81L684.816 196.718L684.556 196.284L686.065 195.377L686.325 195.81ZM686.577 195.659L687.08 195.356L686.82 194.923L686.317 195.226L686.577 195.659ZM687.835 194.902L687.332 195.205L687.072 194.771L687.575 194.469L687.835 194.902ZM678.327 200.621L676.818 201.529L676.558 201.095L678.067 200.188L678.327 200.621ZM676.064 201.983L676.567 201.68L676.307 201.247L675.804 201.55L676.064 201.983ZM675.812 202.135L675.309 202.438L675.049 202.005L675.552 201.702L675.812 202.135ZM678.832 193.444L679.739 194.955L679.306 195.215L678.399 193.704L678.832 193.444ZM678.681 193.191L678.379 192.687L677.946 192.947L678.249 193.451L678.681 193.191ZM677.926 191.932L678.228 192.436L677.795 192.696L677.493 192.192L677.926 191.932ZM683.637 201.452L684.544 202.963L684.112 203.223L683.205 201.712L683.637 201.452ZM684.998 203.719L684.695 203.215L684.263 203.475L684.565 203.979L684.998 203.719ZM685.149 203.97L685.451 204.474L685.018 204.734L684.716 204.231L685.149 203.97Z" fill="white"/>
<path opacity="0.1" d="M531.493 11.6682L531.332 8.1911L584.44 -38.709L535.16 11.8299L531.493 11.6682Z" fill="#E9E6ED"/>
<path fill-rule="evenodd" clip-rule="evenodd" d="M531.966 10.8455L530.639 7.963L530.321 11.1215L527.441 12.4513L530.596 12.7691L531.923 15.6515L532.241 12.493L535.12 11.1632L531.966 10.8455ZM533.52 13.5682L532.773 13.0348L532.926 12.8203L533.673 13.3538L533.52 13.5682ZM533.644 13.6573L533.893 13.8351L534.046 13.6206L533.797 13.4428L533.644 13.6573ZM534.267 14.102L534.018 13.9242L534.171 13.7097L534.42 13.8875L534.267 14.102ZM529.562 10.7406L528.815 10.2072L528.967 9.99272L529.714 10.5262L529.562 10.7406ZM528.441 9.94053L528.69 10.1183L528.843 9.90386L528.594 9.72606L528.441 9.94053ZM528.316 9.8517L528.067 9.67391L528.22 9.45945L528.469 9.63724L528.316 9.8517ZM533.092 9.49062L532.56 10.2386L532.345 10.0857L532.878 9.33772L533.092 9.49062ZM533.182 9.36576L533.359 9.11642L533.145 8.96351L532.968 9.21285L533.182 9.36576ZM533.626 8.74278L533.448 8.99212L533.234 8.83922L533.412 8.58988L533.626 8.74278ZM530.268 13.4546L529.735 14.2025L529.521 14.0497L530.054 13.3017L530.268 13.4546ZM529.469 14.5766L529.646 14.3273L529.432 14.1743L529.255 14.4237L529.469 14.5766ZM529.38 14.7011L529.203 14.9505L528.989 14.7976L529.166 14.5482L529.38 14.7011Z" fill="white"/>
<path opacity="0.1" d="M417.728 -75.955L232.931 98.8223" stroke="url(#paint0_linear)" stroke-width="2"/>
<path opacity="0.1" d="M407.493 128.995L222.696 303.203" stroke="url(#paint1_linear)" stroke-width="2"/>
</g>
<path d="M764.121 147.61L753.399 155.64C752.167 156.553 749.703 155.777 746.007 153.085C735.969 145.785 720.73 127.078 711.969 111.291C706.403 101.344 704.806 94.9566 706.859 93.4053L717.582 85.375C715.528 86.9263 717.125 93.3141 722.646 103.261C731.406 119.048 746.646 137.755 756.684 145.055C760.425 147.747 762.889 148.523 764.121 147.61Z" fill="white"/>
<path d="M764.121 147.61L753.399 155.64C752.167 156.553 749.703 155.777 746.007 153.085C735.969 145.785 720.73 127.078 711.969 111.291C706.403 101.344 704.806 94.9566 706.859 93.4053L717.582 85.375C715.528 86.9263 717.125 93.3141 722.646 103.261C731.406 119.048 746.646 137.755 756.684 145.055C760.425 147.747 762.889 148.523 764.121 147.61Z" fill="#190138"/>
<path d="M724.973 87.9306C735.011 95.2309 750.25 113.938 759.01 129.679C767.771 145.42 766.721 152.31 756.683 145.01C746.646 137.71 731.406 119.003 722.646 103.216C713.885 87.4288 714.935 80.6304 724.973 87.9306Z" fill="#5E2C88"/>
<path d="M743.406 111.384L742.996 114.031L737.019 106.731L736.38 110.928L731.315 104.769L730.722 108.738L733.551 112.251L734.007 109.559L739.026 115.719L739.711 111.521L745.642 118.822L746.235 114.898L743.406 111.384Z" fill="white"/>
<path d="M747.65 122.424L748.061 119.778L750.89 123.246L750.296 127.17L744.365 119.915L743.681 124.113L738.662 117.953L738.205 120.645L735.376 117.132L736.015 113.162L741.034 119.322L741.673 115.124L747.65 122.424Z" fill="white"/>
<g filter="url(#filter3_d)">
<path d="M340.65 87.1322C340.722 87.1082 340.793 87.0842 340.889 87.0602C341.105 86.9882 341.321 86.9163 341.537 86.8443C341.633 86.8203 341.753 86.7723 341.849 86.7483C342.041 86.6764 342.233 86.6284 342.449 86.5564C342.545 86.5324 342.665 86.4845 342.761 86.4605C342.976 86.3885 343.192 86.3405 343.408 86.2925C343.48 86.2686 343.576 86.2446 343.648 86.2206C343.936 86.1486 344.248 86.0767 344.536 86.0047C344.584 85.9807 344.656 85.9807 344.704 85.9567C344.944 85.9087 345.183 85.8608 345.423 85.7888C345.519 85.7648 345.615 85.7408 345.711 85.7408C345.927 85.6928 346.143 85.6688 346.335 85.6209C346.431 85.5969 346.527 85.5969 346.623 85.5729C346.887 85.5249 347.15 85.4769 347.414 85.4529C347.438 85.4529 347.486 85.4529 347.51 85.429C347.798 85.381 348.11 85.333 348.398 85.309C348.518 85.285 348.638 85.285 348.734 85.261C348.926 85.237 349.118 85.2131 349.309 85.1891C349.525 85.1651 349.717 85.1411 349.933 85.1411C350.077 85.1411 350.197 85.1171 350.341 85.1171C350.413 85.1171 350.509 85.1171 350.581 85.0931C350.797 85.0691 351.013 85.0691 351.229 85.0451C351.324 85.0451 351.42 85.0451 351.54 85.0212C351.708 85.0212 351.9 84.9972 352.068 84.9972C352.236 84.9972 352.38 84.9972 352.548 84.9972C352.716 84.9972 352.86 84.9972 353.028 84.9972C353.172 84.9972 353.34 84.9972 353.483 84.9972C353.651 84.9972 353.795 84.9972 353.963 84.9972C354.107 84.9972 354.275 84.9972 354.419 85.0212C354.563 85.0212 354.731 85.0451 354.875 85.0451C355.019 85.0451 355.187 85.0691 355.331 85.0691C355.475 85.0691 355.594 85.0931 355.738 85.0931C355.954 85.1171 356.17 85.1411 356.386 85.1411C356.506 85.1651 356.626 85.1651 356.746 85.1891C356.962 85.2131 357.202 85.237 357.418 85.285C357.514 85.309 357.633 85.309 357.729 85.333C357.873 85.357 357.993 85.381 358.137 85.405C358.281 85.429 358.425 85.4529 358.569 85.4769C358.713 85.5009 358.833 85.5249 358.953 85.5489C359.097 85.5729 359.241 85.5969 359.385 85.6449C359.481 85.6688 359.553 85.6928 359.649 85.7168C359.816 85.7648 359.984 85.7888 360.128 85.8368C360.224 85.8608 360.32 85.8847 360.416 85.9087C360.584 85.9567 360.752 86.0047 360.944 86.0527C360.992 86.0767 361.064 86.0767 361.112 86.1006C361.328 86.1726 361.544 86.2446 361.76 86.3165C362.047 86.4125 362.311 86.5084 362.575 86.6284C362.647 86.6524 362.743 86.7004 362.815 86.7243C362.983 86.7963 363.151 86.8683 363.319 86.9402C363.415 86.9882 363.535 87.0362 363.631 87.0842C363.751 87.1322 363.847 87.2041 363.966 87.2521C364.086 87.3001 364.182 87.372 364.302 87.444C364.398 87.492 364.494 87.54 364.59 87.6119C364.71 87.6839 364.806 87.7559 364.926 87.8278C364.998 87.8758 365.07 87.9238 365.142 87.9718C365.286 88.0677 365.406 88.1637 365.55 88.2596C365.598 88.2836 365.622 88.3076 365.67 88.3556C365.838 88.4995 366.006 88.6194 366.173 88.7634C366.317 88.8833 366.461 89.0273 366.581 89.1472C366.629 89.1952 366.677 89.2432 366.725 89.2911C366.821 89.3871 366.893 89.483 366.965 89.555C367.013 89.603 367.061 89.6749 367.109 89.7229C367.181 89.8189 367.253 89.9148 367.325 89.9868C367.373 90.0348 367.397 90.1067 367.445 90.1547C367.517 90.2507 367.565 90.3466 367.637 90.4426C367.661 90.4906 367.709 90.5385 367.733 90.6105C367.805 90.7304 367.853 90.8264 367.925 90.9463C367.949 90.9943 367.973 91.0183 367.997 91.0663C368.069 91.2342 368.141 91.3781 368.212 91.5461C368.212 91.57 368.236 91.594 368.236 91.618C368.284 91.762 368.332 91.9059 368.38 92.0498C368.404 92.1458 368.428 92.2417 368.452 92.3617C368.476 92.4336 368.5 92.5056 368.5 92.5776L367.397 86.5804C367.397 86.5804 367.397 86.5804 367.397 86.5564C367.373 86.4845 367.373 86.4125 367.349 86.3645C367.325 86.2686 367.301 86.1726 367.277 86.0527C367.229 85.9087 367.181 85.7648 367.133 85.6449C367.133 85.6209 367.109 85.5969 367.109 85.5729C367.061 85.429 366.989 85.261 366.917 85.1171C366.917 85.1171 366.917 85.1171 366.917 85.0931C366.893 85.0451 366.869 85.0211 366.845 84.9732C366.797 84.8772 366.749 84.7813 366.701 84.6853C366.701 84.6613 366.677 84.6613 366.677 84.6373C366.653 84.5894 366.605 84.5414 366.581 84.4694C366.533 84.3974 366.485 84.3255 366.461 84.2535C366.437 84.2295 366.413 84.2055 366.413 84.1815C366.365 84.1336 366.341 84.0616 366.293 84.0136C366.245 83.9656 366.221 83.9177 366.173 83.8697C366.149 83.8217 366.101 83.7977 366.077 83.7498C366.03 83.7018 365.982 83.6298 365.934 83.5818C365.91 83.5578 365.886 83.5099 365.838 83.4859C365.79 83.4379 365.718 83.3659 365.67 83.318C365.622 83.27 365.574 83.222 365.526 83.174C365.502 83.15 365.478 83.126 365.478 83.126C365.358 83.0061 365.238 82.9101 365.118 82.7902C365.094 82.7902 365.094 82.7662 365.07 82.7662C364.926 82.6463 364.782 82.5263 364.614 82.4064C364.614 82.4064 364.614 82.4064 364.59 82.4064C364.542 82.3824 364.518 82.3584 364.47 82.3104C364.35 82.2145 364.23 82.1425 364.134 82.0466C364.11 82.0226 364.086 82.0226 364.086 82.0226C364.014 81.9746 363.943 81.9266 363.871 81.8786C363.775 81.8307 363.703 81.7587 363.607 81.7107C363.583 81.6867 363.559 81.6867 363.535 81.6627C363.439 81.6148 363.343 81.5428 363.247 81.4948C363.175 81.4468 363.103 81.3989 363.007 81.3509C362.983 81.3269 362.935 81.3269 362.911 81.3029C362.791 81.2549 362.695 81.183 362.575 81.135C362.503 81.087 362.431 81.063 362.335 81.015C362.311 80.9911 362.287 80.9911 362.239 80.9671C362.071 80.8951 361.903 80.8231 361.736 80.7512C361.664 80.7272 361.616 80.7032 361.544 80.6552C361.52 80.6552 361.52 80.6552 361.496 80.6312C361.232 80.5113 360.944 80.4153 360.68 80.3194C360.656 80.3194 360.656 80.3194 360.656 80.2954C360.464 80.2234 360.248 80.1515 360.032 80.1035C359.984 80.0795 359.912 80.0795 359.864 80.0555C359.768 80.0315 359.673 79.9835 359.553 79.9595C359.481 79.9356 359.409 79.9116 359.337 79.9116C359.241 79.8876 359.145 79.8636 359.049 79.8396C358.881 79.7916 358.737 79.7676 358.569 79.7197C358.473 79.6957 358.401 79.6717 358.305 79.6477C358.281 79.6477 358.233 79.6237 358.209 79.6237C358.089 79.5997 357.993 79.5757 357.873 79.5517C357.753 79.5278 357.61 79.5038 357.49 79.4798C357.346 79.4558 357.202 79.4318 357.058 79.4078C356.914 79.3838 356.794 79.3598 356.65 79.3358C356.626 79.3358 356.602 79.3358 356.554 79.3119C356.482 79.3119 356.386 79.2879 356.314 79.2879C356.098 79.2639 355.882 79.2159 355.642 79.1919C355.522 79.1679 355.403 79.1679 355.283 79.1439C355.067 79.1199 354.851 79.096 354.635 79.096C354.563 79.096 354.491 79.072 354.419 79.072C354.347 79.072 354.299 79.072 354.227 79.072C354.083 79.072 353.939 79.048 353.771 79.048C353.627 79.048 353.459 79.024 353.316 79.024C353.172 79.024 353.004 79.024 352.86 79C352.692 79 352.548 79 352.38 79C352.236 79 352.068 79 351.924 79C351.756 79 351.612 79 351.444 79C351.3 79 351.133 79 350.965 79C350.869 79 350.773 79 350.701 79C350.605 79 350.533 79 350.437 79C350.341 79 350.245 79 350.125 79.024C349.909 79.024 349.693 79.048 349.477 79.072C349.405 79.072 349.309 79.072 349.237 79.096C349.213 79.096 349.189 79.096 349.142 79.096C349.046 79.096 348.926 79.1199 348.83 79.1199C348.614 79.1439 348.422 79.1439 348.206 79.1679C348.158 79.1679 348.134 79.1679 348.086 79.1679C347.966 79.2159 347.798 79.2399 347.654 79.2639C347.534 79.2879 347.414 79.2879 347.318 79.3119C347.294 79.3119 347.27 79.3119 347.246 79.3119C346.983 79.3358 346.719 79.3838 346.455 79.4318H346.431C346.407 79.4318 346.359 79.4318 346.335 79.4558C346.119 79.4798 345.903 79.5278 345.687 79.5517C345.639 79.5517 345.591 79.5757 345.543 79.5757C345.447 79.5997 345.351 79.5997 345.255 79.6237C345.135 79.6477 345.039 79.6717 344.92 79.6957C344.8 79.6957 344.704 79.7197 344.608 79.7436C344.512 79.7676 344.416 79.7916 344.32 79.7916C344.272 79.8156 344.2 79.8156 344.152 79.8156C343.96 79.8636 343.792 79.8876 343.6 79.9356C343.552 79.9595 343.48 79.9595 343.432 79.9835C343.408 79.9835 343.408 79.9835 343.384 79.9835C343.12 80.0555 342.88 80.1035 342.617 80.1754C342.593 80.1754 342.569 80.1994 342.545 80.1994C342.473 80.2234 342.377 80.2474 342.305 80.2714C342.161 80.3194 341.993 80.3434 341.849 80.3913C341.777 80.4153 341.729 80.4393 341.657 80.4633C341.561 80.4873 341.441 80.5353 341.345 80.5593C341.249 80.5833 341.153 80.6072 341.057 80.6312C340.961 80.6552 340.841 80.7032 340.745 80.7272C340.65 80.7512 340.53 80.7991 340.434 80.8231C340.386 80.8471 340.338 80.8471 340.266 80.8711C340.098 80.9191 339.93 80.9911 339.786 81.039C339.714 81.063 339.642 81.087 339.546 81.111C339.522 81.111 339.498 81.135 339.498 81.135C339.234 81.2309 338.97 81.3269 338.706 81.4229C338.706 81.4229 338.682 81.4229 338.682 81.4468C338.634 81.4708 338.563 81.4948 338.515 81.5188C338.323 81.5908 338.131 81.6627 337.939 81.7347C337.867 81.7587 337.795 81.7827 337.723 81.8307C337.531 81.9026 337.339 81.9986 337.147 82.0705C337.123 82.0705 337.123 82.0945 337.099 82.0945C336.859 82.1905 336.643 82.2864 336.428 82.4064C336.404 82.4064 336.404 82.4304 336.38 82.4304C336.14 82.5503 335.9 82.6703 335.66 82.7902C335.636 82.7902 335.612 82.8142 335.612 82.8142C335.564 82.8382 335.516 82.8622 335.468 82.8862C335.3 82.9821 335.132 83.0541 334.964 83.15C334.916 83.174 334.892 83.198 334.844 83.198C334.796 83.222 334.772 83.246 334.724 83.27C334.532 83.3659 334.365 83.4859 334.173 83.5818C334.125 83.6058 334.077 83.6298 334.053 83.6538C334.029 83.6538 334.029 83.6778 334.005 83.6778C333.765 83.8217 333.525 83.9656 333.285 84.1096C333.261 84.1096 333.261 84.1336 333.237 84.1336C333.117 84.2055 332.997 84.2775 332.901 84.3735C332.877 84.3974 332.853 84.3974 332.829 84.4214C332.685 84.5174 332.541 84.6133 332.421 84.7093C332.397 84.7093 332.397 84.7333 332.373 84.7333C332.301 84.7813 332.254 84.8292 332.182 84.8772C332.086 84.9492 331.99 85.0211 331.894 85.0931C331.822 85.1411 331.774 85.1891 331.702 85.237C331.63 85.285 331.582 85.333 331.51 85.381C331.486 85.405 331.462 85.405 331.438 85.429C331.294 85.5489 331.174 85.6449 331.03 85.7648C330.982 85.7888 330.958 85.8368 330.91 85.8608C330.742 86.0047 330.598 86.1486 330.43 86.2925L330.406 86.3165C330.382 86.3405 330.334 86.3885 330.31 86.4125C330.214 86.5084 330.095 86.6044 329.999 86.7243C329.951 86.7723 329.903 86.8203 329.855 86.8923C329.759 86.9882 329.687 87.0842 329.591 87.1561C329.543 87.2041 329.495 87.2761 329.447 87.3241C329.375 87.42 329.279 87.516 329.207 87.6119C329.159 87.6599 329.111 87.7079 329.063 87.7798C328.991 87.8758 328.895 87.9718 328.823 88.0917C328.799 88.1397 328.751 88.1877 328.727 88.2116C328.631 88.3556 328.511 88.4995 328.415 88.6434C328.415 88.6674 328.391 88.6674 328.391 88.6914C328.295 88.8114 328.223 88.9553 328.151 89.0752C328.127 89.1232 328.103 89.1712 328.056 89.2192C328.008 89.3151 327.936 89.4111 327.888 89.507C327.864 89.555 327.84 89.627 327.792 89.6749C327.744 89.7709 327.696 89.8669 327.648 89.9628C327.624 90.0108 327.6 90.0828 327.576 90.1307C327.528 90.2267 327.504 90.3226 327.456 90.4186C327.432 90.4666 327.408 90.5145 327.384 90.5865C327.336 90.7065 327.312 90.8264 327.264 90.9224C327.264 90.9463 327.24 90.9943 327.24 91.0183C327.192 91.1622 327.168 91.3062 327.12 91.4501C327.12 91.4981 327.096 91.5221 327.096 91.5701C327.072 91.69 327.048 91.7859 327.048 91.9059C327.048 91.9539 327.024 92.0018 327.024 92.0738C327.024 92.1698 327 92.2657 327 92.3617C327 92.4097 327 92.4816 327 92.5296C327 92.6256 327 92.7215 327 92.8175C327 92.8654 327 92.9374 327 92.9854C327 93.0813 327 93.1773 327.024 93.2732C327.024 93.3212 327.024 93.3692 327.024 93.4172C327.048 93.5611 327.048 93.705 327.072 93.849L328.151 99.8701C328.127 99.7262 328.103 99.5823 328.103 99.4383C328.103 99.3903 328.103 99.3424 328.103 99.2944C328.103 99.1984 328.079 99.1025 328.079 99.0065C328.079 98.9586 328.079 98.8866 328.079 98.8386C328.079 98.7427 328.079 98.6467 328.079 98.5507C328.079 98.5028 328.079 98.4308 328.079 98.3828C328.079 98.2869 328.103 98.1909 328.103 98.095C328.103 98.047 328.127 97.999 328.127 97.927C328.271 97.8311 328.271 97.7111 328.295 97.6152C328.295 97.5672 328.319 97.5432 328.319 97.4952C328.343 97.3513 328.391 97.2074 328.439 97.0634C328.439 97.0395 328.463 96.9915 328.463 96.9675C328.487 96.8476 328.535 96.7276 328.583 96.6317C328.607 96.5837 328.631 96.5357 328.655 96.4637C328.703 96.3678 328.727 96.2718 328.775 96.1759C328.775 96.1039 328.799 96.0319 328.847 95.984C328.895 95.888 328.943 95.7921 328.991 95.6961C329.015 95.6481 329.039 95.5762 329.087 95.5282C329.135 95.4322 329.183 95.3363 329.255 95.2403C329.279 95.1923 329.303 95.1444 329.351 95.0964C329.423 94.9764 329.519 94.8325 329.591 94.7126C329.591 94.6886 329.615 94.6886 329.615 94.6646C329.711 94.5207 329.807 94.3767 329.927 94.2328C329.951 94.1848 329.999 94.1368 330.023 94.1128C330.095 94.0169 330.167 93.8969 330.262 93.801C330.31 93.753 330.358 93.705 330.406 93.6331C330.478 93.5371 330.55 93.4412 330.646 93.3692C330.694 93.3212 330.742 93.2493 330.79 93.2013C330.862 93.1053 330.958 93.0094 331.054 92.9374C331.102 92.8894 331.15 92.8414 331.198 92.7695C331.294 92.6735 331.39 92.5776 331.51 92.4576C331.558 92.4097 331.582 92.3857 331.63 92.3377C331.774 92.1938 331.942 92.0498 332.11 91.9059C332.134 91.8819 332.182 91.8339 332.23 91.8099C332.349 91.69 332.493 91.594 332.637 91.4741C332.709 91.4021 332.805 91.3542 332.877 91.2822C332.949 91.2342 332.997 91.1862 333.069 91.1383C333.165 91.0663 333.261 90.9943 333.357 90.9224C333.429 90.8744 333.477 90.8264 333.549 90.7784C333.693 90.6585 333.861 90.5625 334.005 90.4666C334.029 90.4426 334.053 90.4426 334.077 90.4186C334.197 90.3226 334.341 90.2507 334.484 90.1547C334.724 90.0108 334.94 89.8669 335.204 89.7229C335.252 89.6989 335.324 89.651 335.372 89.627C335.54 89.531 335.732 89.4111 335.924 89.3151C335.996 89.2671 336.068 89.2192 336.164 89.1952C336.332 89.0992 336.5 89.0273 336.667 88.9313C336.739 88.8833 336.811 88.8593 336.883 88.8114C337.123 88.6914 337.363 88.5715 337.603 88.4515C337.627 88.4515 337.627 88.4275 337.651 88.4275C337.867 88.3316 338.107 88.2116 338.323 88.1157C338.539 88.0197 338.73 87.9238 338.946 87.8518C339.21 87.7559 339.45 87.6359 339.714 87.54C339.786 87.516 339.834 87.492 339.906 87.468C340.074 87.348 340.362 87.2521 340.65 87.1322Z" fill="#5E2C88"/>
<path d="M338.826 87.8524C348.662 83.7503 360.896 84.1581 366.173 88.788C371.451 93.4178 367.757 100.518 357.921 104.62C348.086 108.723 335.852 108.315 330.574 103.685C325.297 99.0551 328.991 91.9545 338.826 87.8524Z" fill="#190138"/>
<path d="M355.883 92.29L354.443 95.0487L349.67 94.8808L347.391 99.2467L343.337 99.1268L341.178 103.253L343.457 103.325L344.944 100.518L348.974 100.662L351.277 96.2961L356.051 96.4401L358.186 92.362L355.883 92.29Z" fill="white"/>
<path d="M346.191 98.1908L348.47 93.8249L353.244 93.9928L355.379 89.9147L353.1 89.8428L351.66 92.5775L346.863 92.4335L344.584 96.7755L340.53 96.6555L338.371 100.782L340.674 100.854L342.137 98.0469L346.191 98.1908Z" fill="white"/>
</g>
<path d="M627.615 11.4317C627.787 11.3743 627.959 11.317 628.189 11.2597C628.704 11.0877 629.22 10.9158 629.736 10.7438C629.966 10.6865 630.252 10.5719 630.481 10.5145C630.94 10.3426 631.399 10.2279 631.914 10.056C632.144 9.99866 632.43 9.88401 632.66 9.82669C633.175 9.65473 633.691 9.54009 634.207 9.42545C634.379 9.36813 634.609 9.31081 634.78 9.25349C635.468 9.08153 636.213 8.90956 636.901 8.7376C637.016 8.68028 637.188 8.68028 637.303 8.62296C637.876 8.50832 638.449 8.39368 639.022 8.22172C639.251 8.1644 639.481 8.10708 639.71 8.10708C640.226 7.99244 640.742 7.93512 641.2 7.82047C641.43 7.76315 641.659 7.76315 641.888 7.70583C642.519 7.59119 643.149 7.47655 643.78 7.41923C643.837 7.41923 643.952 7.41923 644.009 7.36191C644.697 7.24727 645.442 7.13263 646.13 7.07531C646.417 7.01799 646.703 7.01799 646.932 6.96067C647.391 6.90335 647.85 6.84602 648.308 6.7887C648.824 6.73138 649.283 6.67406 649.798 6.67406C650.142 6.67406 650.429 6.61674 650.773 6.61674C650.945 6.61674 651.174 6.61674 651.346 6.55942C651.862 6.5021 652.378 6.5021 652.894 6.44478C653.123 6.44478 653.352 6.44478 653.639 6.38746C654.04 6.38746 654.499 6.33014 654.9 6.33014C655.301 6.33014 655.645 6.33014 656.046 6.33014C656.448 6.33014 656.792 6.33014 657.193 6.33014C657.537 6.33014 657.938 6.33014 658.282 6.33014C658.683 6.33014 659.027 6.33014 659.428 6.33014C659.772 6.33014 660.173 6.33014 660.517 6.38746C660.861 6.38746 661.263 6.44478 661.606 6.44478C661.95 6.44478 662.352 6.5021 662.696 6.5021C663.039 6.5021 663.326 6.55942 663.67 6.55942C664.186 6.61674 664.702 6.67406 665.218 6.67406C665.504 6.73138 665.791 6.73138 666.077 6.7887C666.593 6.84602 667.167 6.90335 667.682 7.01799C667.912 7.07531 668.198 7.07531 668.428 7.13263C668.772 7.18995 669.058 7.24727 669.402 7.30459C669.746 7.36191 670.09 7.41923 670.434 7.47655C670.778 7.53387 671.064 7.59119 671.351 7.64851C671.695 7.70583 672.039 7.76315 672.383 7.8778C672.612 7.93512 672.784 7.99244 673.013 8.04976C673.415 8.1644 673.816 8.22172 674.16 8.33636C674.389 8.39368 674.618 8.451 674.848 8.50832C675.249 8.62296 675.65 8.7376 676.109 8.85224C676.223 8.90956 676.395 8.90956 676.51 8.96689C677.026 9.13885 677.542 9.31081 678.057 9.48277C678.745 9.71205 679.376 9.94133 680.006 10.2279C680.178 10.2853 680.408 10.3999 680.58 10.4572C680.981 10.6292 681.382 10.8011 681.783 10.9731C682.013 11.0877 682.299 11.2024 682.528 11.317C682.815 11.4317 683.044 11.6036 683.331 11.7183C683.618 11.8329 683.847 12.0049 684.133 12.1768C684.363 12.2915 684.592 12.4061 684.821 12.5781C685.108 12.75 685.337 12.922 685.624 13.094C685.796 13.2086 685.968 13.3232 686.14 13.4379C686.484 13.6672 686.77 13.8965 687.114 14.1257C687.229 14.1831 687.286 14.2404 687.401 14.355C687.802 14.6989 688.203 14.9855 688.604 15.3295C688.948 15.6161 689.292 15.96 689.579 16.2466C689.694 16.3612 689.808 16.4759 689.923 16.5905C690.152 16.8198 690.324 17.0491 690.496 17.221C690.611 17.3357 690.725 17.5076 690.84 17.6223C691.012 17.8516 691.184 18.0809 691.356 18.2528C691.47 18.3675 691.528 18.5394 691.642 18.6541C691.814 18.8833 691.929 19.1126 692.101 19.3419C692.158 19.4565 692.273 19.5712 692.33 19.7432C692.502 20.0298 692.617 20.259 692.789 20.5456C692.846 20.6603 692.904 20.7176 692.961 20.8322C693.133 21.2335 693.305 21.5774 693.477 21.9787C693.477 22.036 693.534 22.0933 693.534 22.1506C693.649 22.4945 693.763 22.8385 693.878 23.1824C693.935 23.4117 693.993 23.6409 694.05 23.9276C694.107 24.0995 694.165 24.2715 694.165 24.4434L691.528 10.1133C691.528 10.1133 691.528 10.1133 691.528 10.056C691.47 9.88401 691.47 9.71205 691.413 9.59741C691.356 9.36813 691.299 9.13885 691.241 8.85224C691.127 8.50832 691.012 8.1644 690.897 7.8778C690.897 7.82047 690.84 7.76315 690.84 7.70583C690.725 7.36191 690.553 6.96067 690.381 6.61674C690.381 6.61674 690.381 6.61674 690.381 6.55942C690.324 6.44478 690.267 6.38746 690.209 6.27282C690.095 6.04354 689.98 5.81425 689.866 5.58497C689.866 5.52765 689.808 5.52765 689.808 5.47033C689.751 5.35569 689.636 5.24105 689.579 5.06909C689.464 4.89713 689.35 4.72516 689.292 4.5532C689.235 4.49588 689.178 4.43856 689.178 4.38124C689.063 4.2666 689.006 4.09464 688.891 3.98C688.776 3.86536 688.719 3.75071 688.604 3.63607C688.547 3.52143 688.432 3.46411 688.375 3.34947C688.261 3.23483 688.146 3.06287 688.031 2.94823C687.974 2.89091 687.917 2.77627 687.802 2.71894C687.687 2.6043 687.515 2.43234 687.401 2.3177C687.286 2.20306 687.171 2.08842 687.057 1.97378C686.999 1.91646 686.942 1.85914 686.942 1.85914C686.656 1.57253 686.369 1.34325 686.082 1.05665C686.025 1.05665 686.025 0.999329 685.968 0.999329C685.624 0.712726 685.28 0.426122 684.879 0.13952C684.879 0.13952 684.879 0.13952 684.821 0.13952C684.707 0.0821991 684.649 0.0248785 684.535 -0.0897627C684.248 -0.319045 683.961 -0.491007 683.732 -0.720289C683.675 -0.77761 683.618 -0.777609 683.618 -0.777609C683.446 -0.892251 683.274 -1.00689 683.102 -1.12153C682.872 -1.23617 682.7 -1.40814 682.471 -1.52278C682.414 -1.5801 682.357 -1.5801 682.299 -1.63742C682.07 -1.75206 681.841 -1.92402 681.611 -2.03866C681.439 -2.1533 681.267 -2.26794 681.038 -2.38259C680.981 -2.43991 680.866 -2.43991 680.809 -2.49723C680.522 -2.61187 680.293 -2.78383 680.006 -2.89847C679.834 -3.01311 679.662 -3.07043 679.433 -3.18507C679.376 -3.24239 679.319 -3.24239 679.204 -3.29971C678.803 -3.47168 678.401 -3.64364 678 -3.8156C677.828 -3.87292 677.714 -3.93024 677.542 -4.04488C677.484 -4.04488 677.484 -4.04488 677.427 -4.1022C676.796 -4.3888 676.109 -4.61809 675.478 -4.84737C675.421 -4.84737 675.421 -4.84737 675.421 -4.90469C674.962 -5.07665 674.446 -5.24861 673.93 -5.36325C673.816 -5.42057 673.644 -5.42057 673.529 -5.4779C673.3 -5.53522 673.071 -5.64986 672.784 -5.70718C672.612 -5.7645 672.44 -5.82182 672.268 -5.82182C672.039 -5.87914 671.81 -5.93646 671.58 -5.99378C671.179 -6.10842 670.835 -6.16574 670.434 -6.28038C670.205 -6.3377 670.033 -6.39502 669.803 -6.45234C669.746 -6.45234 669.631 -6.50967 669.574 -6.50967C669.287 -6.56699 669.058 -6.62431 668.772 -6.68163C668.485 -6.73895 668.141 -6.79627 667.854 -6.85359C667.51 -6.91091 667.167 -6.96823 666.823 -7.02555C666.479 -7.08287 666.192 -7.14019 665.848 -7.19751C665.791 -7.19751 665.734 -7.19751 665.619 -7.25483C665.447 -7.25483 665.218 -7.31215 665.046 -7.31215C664.53 -7.36947 664.014 -7.48412 663.441 -7.54144C663.154 -7.59876 662.868 -7.59876 662.581 -7.65608C662.065 -7.7134 661.549 -7.77072 661.033 -7.77072C660.861 -7.77072 660.689 -7.82804 660.517 -7.82804C660.345 -7.82804 660.231 -7.82804 660.059 -7.82804C659.715 -7.82804 659.371 -7.88536 658.97 -7.88536C658.626 -7.88536 658.225 -7.94268 657.881 -7.94268C657.537 -7.94268 657.135 -7.94268 656.792 -8C656.39 -8 656.046 -8 655.645 -8C655.301 -8 654.9 -8 654.556 -8C654.155 -8 653.811 -8 653.41 -8C653.066 -8 652.664 -8 652.263 -8C652.034 -8 651.805 -8 651.633 -8C651.403 -8 651.231 -8 651.002 -8C650.773 -8 650.544 -8 650.257 -7.94268C649.741 -7.94268 649.225 -7.88536 648.709 -7.82804C648.537 -7.82804 648.308 -7.82804 648.136 -7.77072C648.079 -7.77072 648.022 -7.77072 647.907 -7.77072C647.678 -7.77072 647.391 -7.7134 647.162 -7.7134C646.646 -7.65608 646.187 -7.65608 645.671 -7.59876C645.557 -7.59876 645.499 -7.59876 645.385 -7.59876C645.098 -7.48411 644.697 -7.42679 644.353 -7.36947C644.066 -7.31215 643.78 -7.31215 643.551 -7.25483C643.493 -7.25483 643.436 -7.25483 643.379 -7.25483C642.748 -7.19751 642.117 -7.08287 641.487 -6.96823H641.43C641.372 -6.96823 641.258 -6.96823 641.2 -6.91091C640.684 -6.85359 640.169 -6.73895 639.653 -6.68163C639.538 -6.68163 639.423 -6.62431 639.309 -6.62431C639.08 -6.56699 638.85 -6.56699 638.621 -6.50967C638.334 -6.45235 638.105 -6.39502 637.818 -6.3377C637.532 -6.3377 637.303 -6.28038 637.073 -6.22306C636.844 -6.16574 636.615 -6.10842 636.385 -6.10842C636.271 -6.0511 636.099 -6.0511 635.984 -6.0511C635.526 -5.93646 635.124 -5.87914 634.666 -5.7645C634.551 -5.70718 634.379 -5.70718 634.265 -5.64986C634.207 -5.64986 634.207 -5.64986 634.15 -5.64986C633.519 -5.4779 632.946 -5.36325 632.316 -5.19129C632.258 -5.19129 632.201 -5.13397 632.144 -5.13397C631.972 -5.07665 631.742 -5.01933 631.571 -4.96201C631.227 -4.84737 630.825 -4.79005 630.481 -4.67541C630.309 -4.61809 630.195 -4.56077 630.023 -4.50345C629.794 -4.44613 629.507 -4.33148 629.278 -4.27416C629.048 -4.21684 628.819 -4.15952 628.59 -4.1022C628.361 -4.04488 628.074 -3.93024 627.845 -3.87292C627.615 -3.8156 627.329 -3.70096 627.1 -3.64364C626.985 -3.58632 626.87 -3.58632 626.698 -3.529C626.297 -3.41436 625.896 -3.24239 625.552 -3.12775C625.38 -3.07043 625.208 -3.01311 624.979 -2.95579C624.921 -2.95579 624.864 -2.89847 624.864 -2.89847C624.233 -2.66919 623.603 -2.43991 622.972 -2.21062C622.972 -2.21062 622.915 -2.21062 622.915 -2.1533C622.8 -2.09598 622.629 -2.03866 622.514 -1.98134C622.055 -1.80938 621.597 -1.63742 621.138 -1.46546C620.966 -1.40814 620.794 -1.35081 620.622 -1.23617C620.164 -1.06421 619.705 -0.83493 619.247 -0.662968C619.189 -0.662968 619.189 -0.605648 619.132 -0.605648C618.559 -0.376366 618.043 -0.147084 617.527 0.13952C617.47 0.13952 617.47 0.19684 617.412 0.19684C616.839 0.483443 616.266 0.770045 615.693 1.05665C615.635 1.05665 615.578 1.11397 615.578 1.11397C615.463 1.17129 615.349 1.22861 615.234 1.28593C614.833 1.51521 614.432 1.68717 614.03 1.91646C613.916 1.97378 613.858 2.0311 613.744 2.0311C613.629 2.08842 613.572 2.14574 613.457 2.20306C612.999 2.43234 612.597 2.71894 612.139 2.94823C612.024 3.00555 611.91 3.06287 611.852 3.12019C611.795 3.12019 611.795 3.17751 611.738 3.17751C611.164 3.52143 610.591 3.86536 610.018 4.20928C609.961 4.20928 609.961 4.2666 609.903 4.2666C609.617 4.43856 609.33 4.61052 609.101 4.8398C609.044 4.89713 608.986 4.89713 608.929 4.95445C608.585 5.18373 608.241 5.41301 607.954 5.64229C607.897 5.64229 607.897 5.69961 607.84 5.69961C607.668 5.81425 607.553 5.9289 607.381 6.04354C607.152 6.2155 606.923 6.38746 606.693 6.55942C606.521 6.67406 606.407 6.7887 606.235 6.90335C606.063 7.01799 605.948 7.13263 605.776 7.24727C605.719 7.30459 605.662 7.30459 605.604 7.36191C605.26 7.64851 604.974 7.8778 604.63 8.1644C604.515 8.22172 604.458 8.33636 604.343 8.39368C603.942 8.7376 603.598 9.08153 603.197 9.42545L603.14 9.48277C603.082 9.54009 602.968 9.65473 602.91 9.71205C602.681 9.94134 602.394 10.1706 602.165 10.4572C602.05 10.5719 601.936 10.6865 601.821 10.8585C601.592 11.0877 601.42 11.317 601.191 11.489C601.076 11.6036 600.961 11.7756 600.847 11.8902C600.675 12.1195 600.445 12.3488 600.273 12.5781C600.159 12.6927 600.044 12.8074 599.93 12.9793C599.758 13.2086 599.528 13.4379 599.356 13.7245C599.299 13.8391 599.184 13.9538 599.127 14.0111C598.898 14.355 598.611 14.6989 598.382 15.0429C598.382 15.1002 598.325 15.1002 598.325 15.1575C598.095 15.4441 597.923 15.788 597.751 16.0746C597.694 16.1893 597.637 16.3039 597.522 16.4186C597.407 16.6478 597.236 16.8771 597.121 17.1064C597.064 17.221 597.006 17.393 596.892 17.5076C596.777 17.7369 596.662 17.9662 596.548 18.1955C596.49 18.3101 596.433 18.4821 596.376 18.5967C596.261 18.826 596.204 19.0553 596.089 19.2846C596.032 19.3992 595.974 19.5139 595.917 19.6858C595.802 19.9724 595.745 20.259 595.631 20.4883C595.631 20.5456 595.573 20.6603 595.573 20.7176C595.459 21.0615 595.401 21.4054 595.287 21.7494C595.287 21.864 595.229 21.9213 595.229 22.036C595.172 22.3226 595.115 22.5519 595.115 22.8385C595.115 22.9531 595.057 23.0677 595.057 23.2397C595.057 23.469 595 23.6983 595 23.9276C595 24.0422 595 24.2142 595 24.3288C595 24.5581 595 24.7874 595 25.0166C595 25.1313 595 25.3032 595 25.4179C595 25.6472 595 25.8764 595.057 26.1057C595.057 26.2204 595.057 26.335 595.057 26.4497C595.115 26.7936 595.115 27.1375 595.172 27.4814L597.751 41.8689C597.694 41.525 597.637 41.181 597.637 40.8371C597.637 40.7225 597.637 40.6078 597.637 40.4932C597.637 40.2639 597.579 40.0346 597.579 39.8053C597.579 39.6907 597.579 39.5187 597.579 39.4041C597.579 39.1748 597.579 38.9455 597.579 38.7163C597.579 38.6016 597.579 38.4297 597.579 38.315C597.579 38.0857 597.637 37.8564 597.637 37.6272C597.637 37.5125 597.694 37.3979 597.694 37.2259C598.038 36.9966 598.038 36.71 598.095 36.4808C598.095 36.3661 598.153 36.3088 598.153 36.1941C598.21 35.8502 598.325 35.5063 598.439 35.1624C598.439 35.1051 598.497 34.9904 598.497 34.9331C598.554 34.6465 598.669 34.3599 598.783 34.1306C598.84 34.016 598.898 33.9013 598.955 33.7294C599.07 33.5001 599.127 33.2708 599.242 33.0415C599.242 32.8696 599.299 32.6976 599.414 32.583C599.528 32.3537 599.643 32.1244 599.758 31.8951C599.815 31.7805 599.872 31.6085 599.987 31.4939C600.102 31.2646 600.216 31.0353 600.388 30.806C600.445 30.6914 600.503 30.5767 600.617 30.4621C600.789 30.1755 601.019 29.8316 601.191 29.545C601.191 29.4876 601.248 29.4876 601.248 29.4303C601.477 29.0864 601.707 28.7425 601.993 28.3986C602.05 28.2839 602.165 28.1693 602.222 28.112C602.394 27.8827 602.566 27.5961 602.796 27.3668C602.91 27.2521 603.025 27.1375 603.14 26.9655C603.311 26.7363 603.483 26.507 603.713 26.335C603.827 26.2204 603.942 26.0484 604.057 25.9338C604.229 25.7045 604.458 25.4752 604.687 25.3032C604.802 25.1886 604.916 25.074 605.031 24.902C605.26 24.6727 605.49 24.4434 605.776 24.1568C605.891 24.0422 605.948 23.9849 606.063 23.8702C606.407 23.5263 606.808 23.1824 607.209 22.8385C607.267 22.7811 607.381 22.6665 607.496 22.6092C607.782 22.3226 608.126 22.0933 608.47 21.8067C608.642 21.6347 608.872 21.5201 609.044 21.3481C609.215 21.2335 609.33 21.1188 609.502 21.0042C609.731 20.8322 609.961 20.6603 610.19 20.4883C610.362 20.3737 610.477 20.259 610.649 20.1444C610.992 19.8578 611.394 19.6285 611.738 19.3992C611.795 19.3419 611.852 19.3419 611.91 19.2846C612.196 19.0553 612.54 18.8833 612.884 18.6541C613.457 18.3101 613.973 17.9662 614.604 17.6223C614.718 17.565 614.89 17.4503 615.005 17.393C615.406 17.1637 615.865 16.8771 616.323 16.6478C616.495 16.5332 616.667 16.4186 616.896 16.3612C617.298 16.132 617.699 15.96 618.1 15.7307C618.272 15.6161 618.444 15.5588 618.616 15.4441C619.189 15.1575 619.762 14.8709 620.336 14.5843C620.393 14.5843 620.393 14.527 620.45 14.527C620.966 14.2977 621.539 14.0111 622.055 13.7818C622.571 13.5525 623.03 13.3232 623.546 13.1513C624.176 12.922 624.749 12.6354 625.38 12.4061C625.552 12.3488 625.666 12.2915 625.838 12.2342C626.24 11.9476 626.928 11.7183 627.615 11.4317Z" fill="#5E2C88"/>
<path d="M623.259 13.1522C646.76 3.35036 675.994 4.32481 688.604 15.3877C701.215 26.4505 692.388 43.4174 668.886 53.2192C645.385 63.0211 616.151 62.0466 603.541 50.9837C590.93 39.9209 599.758 22.954 623.259 13.1522Z" fill="#190138"/>
<path d="M664.014 23.7549L660.575 30.3467L649.168 29.9455L643.723 40.3778L634.036 40.0912L628.877 49.9504L634.322 50.1223L637.876 43.4158L647.506 43.7598L653.009 33.3274L664.416 33.6713L669.517 23.9268L664.014 23.7549Z" fill="white"/>
<path d="M640.857 37.8558L646.302 27.4234L657.709 27.8247L662.811 18.0802L657.365 17.9082L653.926 24.4427L642.462 24.0988L637.016 34.4738L627.329 34.1872L622.17 44.0464L627.673 44.2183L631.17 37.5118L640.857 37.8558Z" fill="white"/>
<path d="M405.633 187.751C425.943 180.856 436.794 187.644 429.952 202.984C423.111 218.324 401.09 236.336 380.779 243.231C360.469 250.125 349.619 243.337 356.46 227.998C363.355 212.658 385.323 194.646 405.633 187.751Z" fill="#190138"/>
<path d="M357.85 225.166C357.957 225.006 358.064 224.845 358.117 224.631C358.278 224.364 358.438 224.043 358.598 223.776C358.705 223.616 358.812 223.402 358.919 223.242C359.079 222.974 359.293 222.654 359.453 222.387C359.56 222.173 359.721 222.012 359.828 221.799C360.041 221.531 360.202 221.211 360.416 220.943C360.522 220.783 360.683 220.569 360.79 220.409C361.11 219.981 361.431 219.554 361.752 219.126C361.805 219.073 361.859 218.966 361.912 218.912C362.179 218.592 362.393 218.271 362.66 217.95C363.035 217.523 363.355 217.042 363.729 216.614C363.836 216.507 363.943 216.347 364.05 216.24C364.478 215.705 364.959 215.171 365.44 214.636C365.547 214.53 365.6 214.476 365.707 214.369C366.081 213.942 366.455 213.514 366.829 213.14C367.043 212.926 367.257 212.712 367.471 212.499C367.738 212.231 368.005 211.964 368.272 211.643C368.54 211.376 368.807 211.109 369.074 210.842C369.288 210.628 369.502 210.414 369.716 210.254C370.036 209.933 370.357 209.612 370.678 209.345C370.838 209.185 370.998 209.024 371.159 208.864C371.64 208.383 372.174 207.955 372.655 207.474C372.762 207.367 372.869 207.314 372.923 207.207C373.35 206.833 373.778 206.459 374.152 206.138C374.312 205.978 374.526 205.817 374.686 205.711C375.007 205.443 375.381 205.123 375.702 204.855C375.916 204.695 376.076 204.535 376.29 204.374C376.61 204.107 376.931 203.84 377.305 203.573C377.519 203.412 377.733 203.252 377.947 203.092C378.267 202.824 378.642 202.557 378.962 202.29C379.176 202.129 379.336 202.023 379.55 201.862C379.924 201.595 380.298 201.274 380.726 201.007C380.886 200.9 381.047 200.793 381.207 200.686C381.742 200.312 382.276 199.938 382.811 199.564C382.917 199.511 383.024 199.404 383.131 199.35C383.559 199.029 383.986 198.762 384.467 198.442C384.628 198.335 384.788 198.228 384.948 198.121C385.376 197.854 385.804 197.586 386.231 197.319C386.392 197.212 386.498 197.159 386.659 197.052C387.247 196.678 387.781 196.357 388.369 195.983C388.476 195.929 388.583 195.876 388.636 195.823C389.117 195.555 389.598 195.235 390.026 194.967C390.4 194.754 390.774 194.54 391.149 194.326C391.416 194.166 391.683 194.005 391.95 193.898C392.805 193.417 393.661 192.99 394.516 192.509C394.836 192.348 395.157 192.188 395.478 192.028C395.692 191.921 395.959 191.814 396.173 191.707C396.6 191.493 396.974 191.333 397.402 191.119C397.562 191.012 397.776 190.959 397.936 190.852C398.524 190.585 399.112 190.317 399.754 190.05C399.807 189.997 399.914 189.997 399.968 189.943C400.502 189.729 401.037 189.516 401.518 189.302C401.945 189.141 402.426 188.928 402.854 188.767C403.068 188.66 403.281 188.607 403.495 188.5C404.137 188.233 404.831 188.019 405.473 187.805C405.793 187.698 406.061 187.591 406.381 187.538C406.969 187.324 407.557 187.164 408.145 187.004C408.252 186.95 408.359 186.95 408.466 186.897C409.054 186.736 409.588 186.576 410.176 186.416C410.283 186.416 410.337 186.362 410.443 186.362C410.871 186.255 411.245 186.148 411.673 186.095C411.78 186.095 411.887 186.041 411.993 186.041C412.475 185.935 412.902 185.828 413.33 185.774C413.437 185.774 413.543 185.721 413.65 185.721C413.918 185.667 414.185 185.614 414.452 185.56C414.559 185.56 414.719 185.507 414.826 185.507C415.093 185.454 415.307 185.454 415.575 185.4C415.681 185.4 415.842 185.347 415.949 185.347C416.162 185.347 416.323 185.293 416.537 185.293C416.697 185.293 416.804 185.24 416.964 185.24C417.178 185.24 417.338 185.186 417.552 185.186C417.659 185.186 417.766 185.186 417.873 185.186C418.407 185.133 418.942 185.133 419.423 185.133C419.476 185.133 419.53 185.133 419.583 185.133C420.011 185.133 420.492 185.133 420.919 185.186C420.973 185.186 421.08 185.186 421.133 185.186C421.507 185.186 421.881 185.24 422.256 185.293C422.309 185.293 422.363 185.293 422.469 185.293C422.79 185.347 423.164 185.4 423.485 185.454C423.538 185.454 423.538 185.454 423.592 185.454C423.913 185.507 424.233 185.614 424.554 185.667C424.607 185.667 424.714 185.721 424.768 185.721C425.088 185.828 425.356 185.881 425.676 185.988H425.73C425.997 186.095 426.264 186.202 426.531 186.309C426.585 186.362 426.638 186.362 426.745 186.416C427.013 186.523 427.226 186.629 427.494 186.79L427.547 186.843C427.761 186.95 427.975 187.11 428.188 187.217C428.242 187.271 428.295 187.271 428.349 187.324C428.563 187.485 428.776 187.645 428.99 187.805C429.044 187.805 429.044 187.859 429.097 187.859C429.257 188.019 429.471 188.179 429.632 188.34C429.685 188.393 429.685 188.393 429.738 188.447C429.899 188.66 430.113 188.821 430.273 189.035C430.38 189.141 430.433 189.248 430.54 189.409L422.042 177.276C421.988 177.169 421.881 177.062 421.828 176.955L421.775 176.902C421.614 176.688 421.454 176.528 421.24 176.314C421.24 176.314 421.24 176.26 421.187 176.26L421.133 176.207C420.973 176.047 420.812 175.886 420.599 175.726L420.545 175.672C420.331 175.512 420.118 175.352 419.904 175.191L419.85 175.138C419.797 175.138 419.797 175.084 419.744 175.084C419.53 174.978 419.316 174.817 419.102 174.71C419.102 174.71 419.049 174.71 419.049 174.657C418.835 174.55 418.568 174.39 418.3 174.283C418.247 174.283 418.247 174.229 418.194 174.229C418.14 174.229 418.14 174.176 418.087 174.176C417.819 174.069 417.552 173.962 417.285 173.855C417.285 173.855 417.285 173.855 417.231 173.855C416.964 173.748 416.644 173.695 416.376 173.588C416.323 173.588 416.323 173.588 416.269 173.534C416.216 173.534 416.216 173.534 416.162 173.534C415.842 173.481 415.521 173.374 415.2 173.321H415.147C414.826 173.267 414.506 173.214 414.131 173.16C414.078 173.16 414.025 173.16 414.025 173.16H413.971C413.597 173.107 413.223 173.107 412.849 173.053C412.795 173.053 412.795 173.053 412.742 173.053C412.688 173.053 412.635 173.053 412.635 173.053C412.207 173.053 411.78 173 411.299 173H411.245C411.192 173 411.192 173 411.138 173C410.657 173 410.123 173 409.588 173.053H409.535C409.428 173.053 409.321 173.053 409.214 173.053C409 173.053 408.84 173.053 408.626 173.107C408.466 173.107 408.359 173.107 408.199 173.16C408.038 173.16 407.824 173.214 407.611 173.214C407.557 173.214 407.504 173.214 407.504 173.214C407.45 173.214 407.343 173.214 407.29 173.267C407.023 173.321 406.809 173.321 406.542 173.374C406.435 173.374 406.274 173.428 406.168 173.428C405.9 173.481 405.633 173.534 405.366 173.588C405.259 173.588 405.205 173.588 405.099 173.641C405.045 173.641 405.045 173.641 404.992 173.641C404.564 173.748 404.083 173.802 403.655 173.909C403.549 173.909 403.442 173.962 403.335 173.962C402.961 174.069 402.533 174.122 402.105 174.229C402.052 174.229 401.999 174.283 401.892 174.283H401.838C401.304 174.443 400.716 174.603 400.128 174.764C400.021 174.817 399.914 174.817 399.807 174.871C399.219 175.031 398.631 175.245 398.043 175.405C397.99 175.405 397.936 175.405 397.936 175.459C397.669 175.566 397.402 175.619 397.188 175.726C396.547 175.94 395.852 176.207 395.211 176.421C394.997 176.528 394.783 176.581 394.569 176.688C394.142 176.848 393.661 177.009 393.233 177.222C393.18 177.222 393.126 177.276 393.073 177.276C392.592 177.49 392.111 177.703 391.63 177.864C391.576 177.917 391.523 177.917 391.416 177.971C390.828 178.238 390.24 178.505 389.598 178.772C389.438 178.879 389.224 178.933 389.064 179.04C388.636 179.253 388.209 179.414 387.835 179.628C387.621 179.735 387.407 179.841 387.14 179.948C386.926 180.055 386.659 180.162 386.445 180.322C386.338 180.376 386.285 180.429 386.178 180.483C385.323 180.91 384.467 181.391 383.612 181.819C383.559 181.819 383.559 181.872 383.505 181.872C383.292 181.979 383.078 182.14 382.811 182.247C382.436 182.46 382.062 182.674 381.688 182.888C381.635 182.941 381.581 182.941 381.474 182.995C381.047 183.209 380.673 183.476 380.245 183.743C380.138 183.797 380.085 183.85 379.978 183.904C379.978 183.904 379.924 183.904 379.924 183.957C379.443 184.278 378.909 184.545 378.428 184.866C378.374 184.919 378.321 184.919 378.267 184.972C378.107 185.079 378 185.133 377.84 185.24C377.573 185.4 377.305 185.56 377.038 185.721C376.878 185.828 376.717 185.935 376.557 186.041C376.397 186.148 376.236 186.255 376.076 186.362C375.969 186.469 375.809 186.523 375.702 186.629C375.381 186.843 375.06 187.057 374.74 187.271C374.633 187.324 374.526 187.431 374.419 187.485C374.366 187.485 374.366 187.538 374.312 187.538C373.831 187.859 373.404 188.179 372.976 188.5C372.923 188.554 372.869 188.554 372.816 188.607C372.655 188.714 372.495 188.821 372.335 188.928C372.067 189.141 371.8 189.302 371.533 189.516C371.426 189.623 371.319 189.676 371.212 189.783C370.998 189.943 370.838 190.05 370.624 190.21C370.464 190.317 370.304 190.478 370.143 190.585C369.983 190.745 369.769 190.852 369.609 191.012C369.395 191.173 369.181 191.333 368.967 191.493C368.86 191.6 368.754 191.654 368.647 191.76C368.433 191.921 368.166 192.135 367.952 192.295C367.738 192.455 367.578 192.616 367.364 192.776C367.31 192.829 367.257 192.883 367.15 192.936C366.883 193.15 366.562 193.417 366.295 193.631C366.135 193.792 365.921 193.952 365.76 194.059C365.707 194.112 365.707 194.112 365.654 194.166C365.279 194.486 364.905 194.86 364.531 195.181C364.424 195.288 364.317 195.342 364.21 195.448C363.729 195.876 363.248 196.304 362.767 196.785C362.767 196.785 362.767 196.785 362.714 196.838C362.553 196.998 362.393 197.159 362.233 197.319C361.912 197.586 361.591 197.907 361.324 198.174L361.271 198.228C361.057 198.442 360.843 198.655 360.629 198.816C360.362 199.083 360.148 199.297 359.881 199.564C359.828 199.617 359.828 199.617 359.828 199.671C359.56 199.938 359.293 200.205 359.026 200.526C358.812 200.74 358.652 200.9 358.438 201.114L358.385 201.167C358.01 201.595 357.583 202.023 357.209 202.45C357.155 202.557 357.048 202.611 356.995 202.717C356.514 203.252 356.086 203.786 355.605 204.321L355.552 204.374C355.445 204.481 355.391 204.588 355.284 204.695C354.91 205.123 354.536 205.604 354.216 206.031C354.162 206.085 354.109 206.192 354.055 206.245C353.841 206.512 353.681 206.726 353.467 206.993C353.414 207.1 353.36 207.154 353.307 207.261C353.04 207.635 352.719 208.009 352.452 208.436C352.398 208.49 352.398 208.543 352.345 208.597C352.238 208.757 352.078 208.971 351.971 209.131C351.757 209.399 351.597 209.719 351.383 209.986C351.276 210.2 351.115 210.361 351.009 210.574C350.902 210.735 350.795 210.949 350.688 211.109C350.634 211.216 350.581 211.323 350.474 211.43C350.367 211.59 350.26 211.804 350.153 211.964C349.993 212.231 349.833 212.552 349.672 212.819C349.565 212.98 349.459 213.14 349.405 213.354C349.245 213.674 349.084 213.995 348.924 214.262C348.871 214.423 348.764 214.53 348.71 214.69C348.497 215.118 348.283 215.599 348.069 216.026C345.396 221.959 345.396 226.609 347.588 229.656L355.979 241.575C353.841 238.475 353.841 233.878 356.46 227.945C356.674 227.518 356.888 227.037 357.102 226.609C357.155 226.449 357.262 226.342 357.316 226.181C357.476 225.807 357.636 225.487 357.85 225.166Z" fill="#5E2C88"/>
<path d="M402.747 216.933L398.524 214.261L384.949 225.325L381.314 223.133L368.486 233.609L370.517 234.892L379.229 227.783L382.864 229.975L396.44 218.911L400.716 221.53L413.383 211.214L411.299 209.932L402.747 216.933Z" fill="white"/>
<path d="M382.917 219.605L386.498 221.85L400.074 210.786L404.35 213.405L417.017 203.036L414.933 201.807L406.435 208.755L402.159 206.136L388.583 217.2L385.002 214.955L372.121 225.484L374.205 226.714L382.917 219.605Z" fill="white"/>
<path d="M665.849 231.178C686.909 230.094 703.703 234.069 703.344 240.031C702.985 245.994 685.562 251.685 664.501 252.769C643.396 253.853 626.646 249.878 627.006 243.916C627.41 237.954 644.788 232.217 665.849 231.178Z" fill="#5E2C88"/>
<path d="M703.344 239.805L704.108 252.813C704.108 252.949 704.108 253.084 704.108 253.175C703.749 259.137 686.325 264.829 665.265 265.913C644.654 266.951 628.128 263.157 627.769 257.421L627.006 244.457C627.365 250.194 643.845 253.988 664.502 252.949C685.562 251.865 702.985 246.174 703.344 240.211C703.344 240.076 703.344 239.94 703.344 239.805Z" fill="#23024D"/>
<path d="M703.344 239.805L704.108 252.813C704.108 252.949 704.108 253.084 704.108 253.175C703.749 259.137 686.325 264.829 665.265 265.913C644.654 266.951 628.128 263.157 627.769 257.421L627.006 244.457C627.365 250.194 643.845 253.988 664.502 252.949C685.562 251.865 702.985 246.174 703.344 240.211C703.344 240.076 703.344 239.94 703.344 239.805Z" fill="#190138"/>
<path d="M653.5 241.206L646.585 243.465L643.441 242.742L653.59 239.399L659.158 240.709L669.89 237.231L676.447 238.767L683.182 236.554L686.371 237.276L676.312 240.574L669.756 239.038L659.023 242.516L653.5 241.206Z" fill="white"/>
<path d="M676.222 241.929L683.003 239.716L686.146 240.484L676.132 243.736L669.576 242.2L658.844 245.723L653.276 244.413L646.405 246.627L643.217 245.904L653.41 242.607L658.934 243.917L669.666 240.393L676.222 241.929Z" fill="white"/>
<path d="M553.902 169.508C568.807 172.37 577.069 186.577 572.318 201.232C567.602 215.887 551.664 225.439 536.759 222.543C521.853 219.68 513.592 205.474 518.342 190.818C523.093 176.163 538.996 166.646 553.902 169.508Z" fill="#5E2C88"/>
<path d="M569.805 180.061L572.456 184.095C576.346 189.992 577.516 197.681 575.003 205.474C570.287 220.13 554.349 229.681 539.444 226.785C532.49 225.44 526.982 221.647 523.574 216.474L520.924 212.44C524.332 217.612 529.839 221.44 536.793 222.75C551.698 225.612 567.602 216.061 572.352 201.44C574.865 193.647 573.695 185.957 569.805 180.061Z" fill="white"/>
<path d="M569.805 180.061L572.456 184.095C576.346 189.992 577.516 197.681 575.003 205.474C570.287 220.13 554.349 229.681 539.444 226.785C532.49 225.44 526.982 221.647 523.574 216.474L520.924 212.44C524.332 217.612 529.839 221.44 536.793 222.75C551.698 225.612 567.602 216.061 572.352 201.44C574.865 193.647 573.695 185.957 569.805 180.061Z" fill="#190138"/>
<path d="M537.722 191.163L531.422 194.922L529.873 192.267L539.167 186.715L541.887 191.405L551.697 185.577L554.933 191.094L561.095 187.405L562.679 190.06L553.488 195.543L550.252 189.991L540.475 195.853L537.722 191.163Z" fill="white"/>
<path d="M552.422 198.888L558.583 195.198L560.167 197.853L550.976 203.301L547.74 197.784L537.964 203.646L535.21 198.957L528.91 202.715L527.361 200.06L536.656 194.508L539.375 199.198L549.186 193.336L552.422 198.888Z" fill="white"/>
<path d="M115.273 222.128L112.398 217.703C113.723 219.724 114.038 222.42 113.14 225.541C110.826 233.38 101.438 240.859 92.1626 242.296C92.0279 242.318 91.8931 242.341 91.7584 242.341C91.6685 242.363 91.6012 242.363 91.5113 242.363C91.4215 242.363 91.3317 242.386 91.2418 242.386C91.152 242.386 91.0846 242.408 90.9948 242.408C90.9049 242.408 90.8151 242.431 90.7477 242.431C90.6579 242.431 90.5905 242.453 90.5007 242.453C90.4108 242.453 90.321 242.476 90.2536 242.476C90.1638 242.476 90.0964 242.476 90.0066 242.498C89.9167 242.498 89.8493 242.498 89.7595 242.498C89.6921 242.498 89.6023 242.498 89.5349 242.498C89.4451 242.498 89.3777 242.498 89.2879 242.498C89.2205 242.498 89.1307 242.498 89.0633 242.498C88.9734 242.498 88.9061 242.498 88.8162 242.498C88.7488 242.498 88.659 242.498 88.5916 242.498C88.5018 242.498 88.4344 242.498 88.367 242.498C88.2997 242.498 88.2098 242.498 88.1424 242.476C88.0751 242.476 87.9852 242.476 87.9179 242.453C87.8505 242.453 87.7831 242.431 87.6933 242.431C87.6259 242.431 87.5361 242.408 87.4687 242.408C87.4013 242.408 87.3339 242.386 87.2665 242.386C87.1992 242.386 87.1093 242.363 87.0419 242.363C86.9746 242.363 86.9072 242.341 86.8398 242.341C86.7724 242.318 86.7051 242.318 86.6152 242.296C86.5478 242.273 86.4805 242.273 86.4131 242.251C86.3457 242.229 86.2783 242.229 86.211 242.206C86.1436 242.184 86.0762 242.184 86.0088 242.161C85.9414 242.139 85.8741 242.139 85.8067 242.116C85.7393 242.094 85.6719 242.094 85.6046 242.071C85.5372 242.049 85.4698 242.026 85.4024 242.026C85.3351 242.004 85.2677 241.981 85.2228 241.981C85.1554 241.959 85.088 241.937 85.0206 241.914C84.9532 241.892 84.9083 241.869 84.841 241.847C84.7736 241.824 84.7062 241.802 84.6388 241.779C84.5714 241.757 84.5265 241.734 84.4591 241.712C84.3918 241.69 84.3244 241.667 84.2795 241.645C84.2121 241.622 84.1672 241.6 84.0998 241.577C84.0324 241.555 83.9875 241.532 83.9201 241.487C83.8752 241.465 83.8078 241.442 83.7629 241.42C83.6955 241.398 83.6506 241.353 83.5832 241.33C83.5383 241.308 83.4709 241.285 83.426 241.24C83.3586 241.218 83.3137 241.173 83.2463 241.15C83.2014 241.128 83.1341 241.106 83.0891 241.061C83.0442 241.038 82.9768 240.993 82.9319 240.971C82.887 240.948 82.8421 240.903 82.7747 240.881C82.7298 240.859 82.6624 240.814 82.6175 240.769C82.5726 240.746 82.5277 240.701 82.4827 240.679C82.4378 240.634 82.3704 240.611 82.3255 240.567C82.2806 240.544 82.2357 240.499 82.1908 240.477C82.1458 240.432 82.1009 240.409 82.0336 240.364C81.9886 240.32 81.9437 240.297 81.8988 240.252C81.8539 240.207 81.809 240.162 81.764 240.14C81.7191 240.095 81.6742 240.072 81.6293 240.028C81.5844 239.983 81.5395 239.938 81.4945 239.893C81.4496 239.848 81.4272 239.825 81.3822 239.78C81.3373 239.736 81.2924 239.691 81.2475 239.646C81.2026 239.601 81.1801 239.578 81.1352 239.533C81.0903 239.489 81.0454 239.444 81.0004 239.399C80.978 239.354 80.9331 239.331 80.9106 239.286C80.8657 239.241 80.8208 239.174 80.7758 239.129C80.7534 239.084 80.7085 239.062 80.686 239.017C80.6411 238.949 80.5962 238.905 80.5512 238.837C80.5288 238.815 80.5063 238.77 80.4839 238.747C80.4165 238.658 80.3491 238.568 80.2817 238.455L83.1565 242.88C83.2239 242.97 83.2913 243.06 83.3586 243.172C83.3811 243.194 83.4036 243.239 83.426 243.262C83.4709 243.329 83.5159 243.396 83.5608 243.441C83.5832 243.486 83.6282 243.509 83.6506 243.554C83.6955 243.599 83.7405 243.666 83.7854 243.711C83.8078 243.756 83.8527 243.778 83.8752 243.823C83.9201 243.868 83.965 243.913 84.01 243.958C84.0549 244.003 84.0773 244.025 84.1223 244.07C84.1672 244.115 84.2121 244.16 84.257 244.205C84.3019 244.25 84.3244 244.272 84.3693 244.317C84.4142 244.362 84.4591 244.407 84.5041 244.452C84.549 244.497 84.5939 244.519 84.6164 244.564C84.6613 244.609 84.7062 244.654 84.7511 244.677C84.796 244.722 84.841 244.744 84.8859 244.766C84.9308 244.811 84.9757 244.834 85.0431 244.879C85.088 244.901 85.1329 244.946 85.1778 244.969C85.2228 245.013 85.2901 245.036 85.3351 245.081C85.38 245.103 85.4249 245.148 85.4698 245.171C85.5147 245.216 85.5821 245.238 85.627 245.283C85.6719 245.305 85.7169 245.35 85.7842 245.373C85.8292 245.395 85.8965 245.44 85.9414 245.463C85.9864 245.485 86.0537 245.53 86.0987 245.552C86.166 245.575 86.211 245.62 86.2783 245.642C86.3233 245.665 86.3906 245.687 86.4356 245.732C86.5029 245.755 86.5478 245.8 86.6152 245.822C86.6601 245.844 86.7275 245.867 86.7724 245.889C86.8398 245.912 86.8847 245.934 86.9521 245.979C87.0195 246.002 87.0644 246.024 87.1318 246.047C87.1992 246.069 87.2665 246.092 87.3115 246.114C87.3788 246.136 87.4238 246.159 87.4911 246.181C87.5585 246.204 87.6259 246.226 87.6933 246.249C87.7606 246.271 87.8056 246.294 87.8729 246.316C87.9403 246.339 88.0077 246.361 88.0751 246.383C88.1424 246.406 88.2098 246.428 88.2547 246.428C88.3221 246.451 88.3895 246.473 88.4569 246.473C88.5243 246.496 88.5916 246.496 88.659 246.518C88.7264 246.541 88.7938 246.541 88.8611 246.563C88.9285 246.586 88.9959 246.586 89.0633 246.608C89.1307 246.631 89.198 246.631 89.2654 246.653C89.3328 246.675 89.4002 246.675 89.4675 246.698C89.5349 246.72 89.6023 246.72 89.6921 246.743C89.7595 246.743 89.8269 246.765 89.8943 246.765C89.9616 246.765 90.0515 246.788 90.1189 246.788C90.1862 246.788 90.2536 246.81 90.321 246.81C90.3884 246.81 90.4782 246.833 90.5456 246.833C90.613 246.833 90.6803 246.855 90.7702 246.855C90.8375 246.855 90.9274 246.878 90.9948 246.878C91.0621 246.878 91.152 246.878 91.2194 246.9C91.2867 246.9 91.3766 246.9 91.4439 246.9C91.5113 246.9 91.6012 246.9 91.6685 246.9C91.7584 246.9 91.8258 246.9 91.9156 246.9C91.983 246.9 92.0728 246.9 92.1402 246.9C92.23 246.9 92.2974 246.9 92.3872 246.9C92.4546 246.9 92.5444 246.9 92.6118 246.9C92.7017 246.9 92.769 246.9 92.8589 246.9C92.9487 246.9 93.0161 246.9 93.1059 246.878C93.1958 246.878 93.2631 246.878 93.353 246.855C93.4428 246.855 93.5102 246.833 93.6 246.833C93.6899 246.833 93.7797 246.81 93.8471 246.81C93.9369 246.81 94.0043 246.788 94.0941 246.788C94.184 246.788 94.2738 246.765 94.3636 246.765C94.4535 246.765 94.5209 246.743 94.6107 246.743C94.6556 246.743 94.7005 246.743 94.7454 246.72C94.8353 246.698 94.9251 246.698 95.015 246.675C104.291 245.261 113.679 237.759 115.992 229.921C116.913 226.844 116.576 224.149 115.273 222.128Z" fill="#190138"/>
<path d="M102.964 238.336C111.821 232.592 116.106 223.474 112.536 217.968C108.965 212.463 98.8918 212.656 90.0356 218.4C81.1794 224.143 76.8942 233.262 80.4644 238.767C84.0346 244.272 94.1082 244.079 102.964 238.336Z" fill="#5E2C88"/>
<path d="M91.6671 227.96L87.9613 230.903L86.8833 229.937L92.3633 225.58L94.2499 227.287L100.022 222.683L102.223 224.704L105.884 221.807L106.939 222.772L101.527 227.085L99.3257 225.063L93.5312 229.667L91.6671 227.96Z" fill="white"/>
<path d="M101.01 228.858L104.648 225.961L105.704 226.927L100.313 231.239L98.0898 229.218L92.3178 233.822L90.4313 232.115L86.7255 235.079L85.6475 234.114L91.15 229.734L93.0141 231.463L98.7861 226.859L101.01 228.858Z" fill="white"/>
<path d="M244.299 314.417L234.466 321.781C233.337 322.618 231.077 321.906 227.688 319.438C218.483 312.743 204.508 295.588 196.474 281.111C191.37 271.989 189.905 266.131 191.788 264.709L201.621 257.345C199.738 258.767 201.202 264.625 206.265 273.747C214.299 288.224 228.274 305.379 237.479 312.074C240.91 314.542 243.169 315.254 244.299 314.417Z" fill="white"/>
<path d="M244.299 314.417L234.466 321.781C233.337 322.618 231.077 321.906 227.688 319.438C218.483 312.743 204.508 295.588 196.474 281.111C191.37 271.989 189.905 266.131 191.788 264.709L201.621 257.345C199.738 258.767 201.202 264.625 206.265 273.747C214.299 288.224 228.274 305.379 237.479 312.074C240.91 314.542 243.169 315.254 244.299 314.417Z" fill="#190138"/>
<path d="M208.399 259.688C217.605 266.382 231.58 283.537 239.613 297.973C247.647 312.408 246.685 318.726 237.479 312.031C228.274 305.337 214.299 288.182 206.266 273.704C198.232 259.227 199.194 252.993 208.399 259.688Z" fill="#5E2C88"/>
<path d="M225.303 281.195L224.927 283.622L219.446 276.927L218.86 280.777L214.215 275.128L213.671 278.768L216.266 281.99L216.684 279.521L221.287 285.17L221.914 281.32L227.354 288.015L227.898 284.417L225.303 281.195Z" fill="white"/>
<path d="M229.194 291.32L229.57 288.893L232.165 292.073L231.621 295.672L226.181 289.019L225.554 292.868L220.951 287.22L220.533 289.688L217.938 286.466L218.524 282.826L223.127 288.475L223.713 284.625L229.194 291.32Z" fill="white"/>
<path d="M204.504 8.04099C214.929 3.29357 216.544 15.2355 208.126 34.6657C199.708 54.0959 184.438 73.6729 174.013 78.3713C163.588 83.1188 161.973 71.1768 170.391 51.7466C178.809 32.3654 194.079 12.7884 204.504 8.04099Z" fill="#5E2C88"/>
<path d="M184.634 42.9381L178.614 50.6221L178.271 48.4197L187.179 37.0161L187.717 40.9315L197.163 28.9406L197.799 33.5412L203.721 25.9551L204.015 28.2064L195.205 39.4632L194.569 34.8137L185.172 46.8535L184.634 42.9381Z" fill="white"/>
<path d="M193.296 43.8662L199.219 36.3291L199.561 38.5315L190.751 49.7883L190.115 45.1387L180.718 57.1786L180.131 53.2632L174.111 60.9472L173.817 58.7448L182.725 47.3412L183.263 51.2566L192.66 39.2657L193.296 43.8662Z" fill="white"/>
<path d="M210.916 7.94238L222.858 15.1859C227.018 17.7309 226.235 27.9599 220.068 42.2511C211.65 61.6812 196.38 81.2582 185.955 85.9567C183.214 87.2292 181.061 87.2781 179.544 86.3972L167.553 79.1537C169.07 80.0836 171.174 79.9857 173.964 78.7132C184.389 73.9658 199.659 54.3888 208.077 35.0076C214.293 20.7164 215.076 10.4874 210.916 7.94238Z" fill="white"/>
<path d="M210.916 7.94238L222.858 15.1859C227.018 17.7309 226.235 27.9599 220.068 42.2511C211.65 61.6812 196.38 81.2582 185.955 85.9567C183.214 87.2292 181.061 87.2781 179.544 86.3972L167.553 79.1537C169.07 80.0836 171.174 79.9857 173.964 78.7132C184.389 73.9658 199.659 54.3888 208.077 35.0076C214.293 20.7164 215.076 10.4874 210.916 7.94238Z" fill="#190138"/>
</g>
<defs>
<filter id="filter0_d" x="0" y="0" width="852" height="351" filterUnits="userSpaceOnUse" color-interpolation-filters="sRGB">
<feFlood flood-opacity="0" result="BackgroundImageFix"/>
<feColorMatrix in="SourceAlpha" type="matrix" values="0 0 0 0 0 0 0 0 0 0 0 0 0 0 0 0 0 0 127 0" result="hardAlpha"/>
<feOffset dy="20"/>
<feGaussianBlur stdDeviation="15"/>
<feColorMatrix type="matrix" values="0 0 0 0 0 0 0 0 0 0.0235294 0 0 0 0 0.211765 0 0 0 0.06 0"/>
<feBlend mode="normal" in2="BackgroundImageFix" result="effect1_dropShadow"/>
<feBlend mode="normal" in="SourceGraphic" in2="effect1_dropShadow" result="shape"/>
</filter>
<filter id="filter1_f" x="-24.7466" y="-23.0615" width="488.829" height="361.618" filterUnits="userSpaceOnUse" color-interpolation-filters="sRGB">
<feFlood flood-opacity="0" result="BackgroundImageFix"/>
<feBlend mode="normal" in="SourceGraphic" in2="BackgroundImageFix" result="shape"/>
<feGaussianBlur stdDeviation="10" result="effect1_foregroundBlur"/>
</filter>
<filter id="filter2_f" x="417.627" y="-23.0615" width="488.829" height="361.618" filterUnits="userSpaceOnUse" color-interpolation-filters="sRGB">
<feFlood flood-opacity="0" result="BackgroundImageFix"/>
<feBlend mode="normal" in="SourceGraphic" in2="BackgroundImageFix" result="shape"/>
<feGaussianBlur stdDeviation="10" result="effect1_foregroundBlur"/>
</filter>
<filter id="filter3_d" x="323" y="79" width="49.5793" height="36.4465" filterUnits="userSpaceOnUse" color-interpolation-filters="sRGB">
<feFlood flood-opacity="0" result="BackgroundImageFix"/>
<feColorMatrix in="SourceAlpha" type="matrix" values="0 0 0 0 0 0 0 0 0 0 0 0 0 0 0 0 0 0 127 0" result="hardAlpha"/>
<feOffset dy="4"/>
<feGaussianBlur stdDeviation="2"/>
<feComposite in2="hardAlpha" operator="out"/>
<feColorMatrix type="matrix" values="0 0 0 0 0 0 0 0 0 0 0 0 0 0 0 0 0 0 0.25 0"/>
<feBlend mode="normal" in2="BackgroundImageFix" result="effect1_dropShadow"/>
<feBlend mode="normal" in="SourceGraphic" in2="effect1_dropShadow" result="shape"/>
</filter>
<linearGradient id="paint0_linear" x1="242.918" y1="99.6779" x2="398.513" y2="-62.0796" gradientUnits="userSpaceOnUse">
<stop stop-color="#F6F5F8"/>
<stop offset="1" stop-color="#23024D"/>
</linearGradient>
<linearGradient id="paint1_linear" x1="232.683" y1="304.056" x2="387.751" y2="142.32" gradientUnits="userSpaceOnUse">
<stop stop-color="#F6F5F8"/>
<stop offset="1" stop-color="#23024D"/>
</linearGradient>
</defs>
</svg>
