<svg width="33" height="33" viewBox="0 0 33 33" fill="none" xmlns="http://www.w3.org/2000/svg">
  <path d="M0 16.5C0 9.34753 0 5.77129 1.94044 3.34054C2.3535 2.82312 2.82312 2.3535 3.34054 1.94044C5.77129 0 9.34753 0 16.5 0V0C23.6525 0 27.2287 0 29.6595 1.94044C30.1769 2.3535 30.6465 2.82312 31.0596 3.34054C33 5.77129 33 9.34753 33 16.5V16.5C33 23.6525 33 27.2287 31.0596 29.6595C30.6465 30.1769 30.1769 30.6465 29.6595 31.0596C27.2287 33 23.6525 33 16.5 33V33C9.34753 33 5.77129 33 3.34054 31.0596C2.82312 30.6465 2.3535 30.1769 1.94044 29.6595C0 27.2287 0 23.6525 0 16.5V16.5Z" fill="#872AB0"/>
  <path fill-rule="evenodd" clip-rule="evenodd" d="M19.5261 15.1721L23.2054 18.8374L26.8589 15.1956L28.4625 16.7842L23.2059 22.0239L19.5261 18.3581L13.7237 24.1384L10.6103 21.0368L6.88316 24.7497L5.28003 23.1606L10.6103 17.8507L13.7237 20.9523L19.5261 15.1721Z" fill="white"/>
  <path fill-rule="evenodd" clip-rule="evenodd" d="M19.5261 8.99219L23.2054 12.6575L26.8589 9.01571L28.4625 10.6043L23.2059 15.844L19.5261 12.1783L13.7237 17.9585L10.6103 14.8569L6.88316 18.5698L5.28003 16.9807L10.6103 11.6708L13.7237 14.7724L19.5261 8.99219Z" fill="white"/>
</svg>
