<svg width="15" height="15" viewBox="0 0 15 15" fill="none" xmlns="http://www.w3.org/2000/svg">
<path d="M13.6126 3.17076C13.6124 3.16592 13.6118 3.16109 13.611 3.15628C13.5923 3.1295 13.5692 3.10645 13.5499 3.08021C13.4099 2.88943 13.2616 2.70581 13.1052 2.52932C13.0623 2.48109 13.0194 2.4334 12.9755 2.38624C12.8144 2.2137 12.6454 2.04918 12.4686 1.89272C12.4359 1.86377 12.4053 1.83378 12.3726 1.80537C11.9368 1.43201 11.4596 1.1098 10.9505 0.845111C10.9301 0.834404 10.9087 0.825299 10.8878 0.814561C10.661 0.699328 10.4285 0.595745 10.1911 0.504282C10.1375 0.485003 10.0888 0.466761 10.0379 0.450685C9.82674 0.374606 9.61238 0.307979 9.39482 0.250802C9.33052 0.233659 9.26621 0.215982 9.20084 0.200973C8.98649 0.151144 8.77216 0.113089 8.55297 0.0820047C8.48653 0.0723654 8.42116 0.0594921 8.35415 0.0514541C7.78964 -0.0171514 7.21891 -0.0171514 6.65437 0.0514541C6.5874 0.0594921 6.52203 0.0723654 6.45556 0.0820047C6.2364 0.113089 6.0199 0.151144 5.80768 0.200973C5.74231 0.215982 5.67801 0.233659 5.6137 0.250802C5.3947 0.307948 5.18037 0.374575 4.97066 0.450685C4.91707 0.468896 4.86831 0.487138 4.81741 0.504282C4.58007 0.595745 4.34753 0.699297 4.12077 0.814561C4.09986 0.825267 4.07845 0.834373 4.05807 0.845111C3.54719 1.10952 3.06839 1.4317 2.63104 1.80537C2.59836 1.83375 2.56781 1.86377 2.53512 1.89272C2.3565 2.0499 2.18751 2.21443 2.02819 2.38624C1.98427 2.4334 1.94138 2.48109 1.89852 2.52932C1.74168 2.70543 1.59342 2.88905 1.45376 3.08017C1.43448 3.10642 1.41144 3.12947 1.39266 3.15625C1.39021 3.16093 1.38804 3.16577 1.38622 3.17073C-0.462074 5.761 -0.462074 9.239 1.38622 11.8292C1.38804 11.8342 1.39018 11.839 1.39266 11.8437C1.4114 11.8705 1.43445 11.8935 1.45376 11.9198C1.59345 12.1106 1.74168 12.2942 1.89852 12.4707C1.94138 12.5189 1.98427 12.5666 2.02819 12.6138C2.18968 12.7863 2.35863 12.9508 2.53512 13.1073C2.56781 13.1362 2.59836 13.1662 2.63104 13.1946C3.06685 13.568 3.54405 13.8902 4.05323 14.1549C4.07361 14.1656 4.09503 14.1747 4.11594 14.1854C4.3427 14.3007 4.5752 14.4043 4.81257 14.4957C4.86617 14.515 4.91493 14.5332 4.96583 14.5493C5.17695 14.6254 5.39131 14.692 5.60887 14.7492C5.67317 14.7663 5.73747 14.784 5.80285 14.799C6.0172 14.8489 6.23153 14.8869 6.45072 14.918C6.51716 14.9276 6.58253 14.9405 6.64954 14.9485C7.21405 15.0172 7.78478 15.0172 8.34932 14.9485C8.41629 14.9405 8.48166 14.9276 8.54813 14.918C8.76729 14.8869 8.98379 14.8489 9.19601 14.799C9.26138 14.784 9.32568 14.7663 9.38999 14.7492C9.60933 14.6921 9.82369 14.6254 10.033 14.5493C10.0866 14.5311 10.1354 14.5129 10.1863 14.4957C10.4236 14.4043 10.6562 14.3007 10.8829 14.1854C10.9038 14.1747 10.9252 14.1656 10.9456 14.1549C11.4548 13.8902 11.932 13.568 12.3678 13.1946C12.4005 13.1662 12.431 13.1362 12.4637 13.1073C12.6424 12.9504 12.8113 12.7859 12.9707 12.6138C13.0146 12.5666 13.0575 12.5189 13.1003 12.4707C13.2572 12.2942 13.4054 12.1106 13.5451 11.9198C13.5644 11.8935 13.5874 11.8705 13.6062 11.8437C13.6086 11.839 13.6108 11.8342 13.6126 11.8292C15.4609 9.23903 15.4609 5.76103 13.6126 3.17076ZM13.0012 4.18464C13.5137 5.02866 13.8232 5.98016 13.9052 6.96419H10.6954C10.6561 6.32567 10.5556 5.69243 10.3953 5.07312C11.302 4.90332 12.1796 4.60409 13.0012 4.18464ZM8.86538 1.21753C8.8954 1.2245 8.92432 1.23414 8.95433 1.24111C9.14618 1.28613 9.33642 1.33756 9.52236 1.40187C9.55078 1.41151 9.57863 1.42278 9.60651 1.43295C9.79085 1.49726 9.97249 1.56853 10.1504 1.64731C10.1815 1.66178 10.2121 1.67786 10.2431 1.69233C10.4135 1.77344 10.58 1.86113 10.7426 1.95545L10.8497 2.02029C11.0041 2.11461 11.1541 2.21553 11.2999 2.32306C11.3374 2.35038 11.3749 2.37666 11.4119 2.40665C11.5547 2.51381 11.6916 2.62867 11.8223 2.75121C11.8566 2.7823 11.892 2.81285 11.9258 2.845C12.0629 2.97521 12.1937 3.11292 12.3201 3.25547C12.3362 3.27422 12.3534 3.29136 12.3694 3.30907C11.6439 3.65486 10.8752 3.90178 10.084 4.04319C9.71744 3.03556 9.23324 2.0747 8.64145 1.1806C8.71586 1.19398 8.79197 1.20148 8.86538 1.21753ZM5.37796 6.96416C5.42023 6.38435 5.51894 5.81004 5.6727 5.24939C6.27985 5.32152 6.89074 5.35728 7.50216 5.35656C8.11414 5.35637 8.7256 5.3197 9.33322 5.24669C9.48669 5.80825 9.58488 6.38347 9.62632 6.96416H5.37796ZM9.62632 8.03591C9.58406 8.61571 9.48534 9.19002 9.33159 9.75067C8.72443 9.67855 8.11355 9.64278 7.50213 9.6435C6.89017 9.64281 6.27875 9.67858 5.67107 9.75067C5.51775 9.18999 5.4196 8.61568 5.37793 8.03591H9.62632ZM7.50213 1.41904C8.11195 2.28335 8.6135 3.21918 8.99559 4.20556C8.49953 4.25824 8.00102 4.28471 7.50213 4.28487C7.0038 4.28427 6.50583 4.25765 6.01026 4.20502C6.39282 3.2193 6.89378 2.28379 7.50213 1.41904ZM2.6847 3.25491C2.81064 3.11236 2.94192 2.97464 3.0791 2.84443C3.11285 2.81228 3.14824 2.78173 3.18252 2.75065C3.31471 2.63027 3.45155 2.51541 3.593 2.40608C3.62998 2.37767 3.66747 2.35249 3.70499 2.3225C3.85075 2.21534 4.0008 2.11439 4.15512 2.01972L4.26228 1.95489C4.42483 1.85988 4.59131 1.77215 4.76171 1.69177C4.79279 1.67729 4.82334 1.66122 4.85443 1.64674C5.03233 1.56636 5.214 1.49509 5.39834 1.43239C5.42619 1.42221 5.45194 1.41094 5.48246 1.4013C5.6684 1.33913 5.85757 1.2877 6.05049 1.24054C6.0805 1.23357 6.10942 1.22393 6.13997 1.2175C6.21338 1.20142 6.28949 1.19392 6.36397 1.18051C5.77192 2.07477 5.28757 3.03581 4.92087 4.04363C4.12966 3.90222 3.36096 3.6553 2.63541 3.30951C2.65148 3.29079 2.66863 3.27365 2.6847 3.25491ZM2.00308 4.18464C2.82449 4.60406 3.70192 4.90329 4.60845 5.07312C4.44835 5.69246 4.34803 6.3257 4.30891 6.96419H1.09908C1.18116 5.98016 1.49062 5.02866 2.00308 4.18464ZM2.00308 10.8154C1.49059 9.97143 1.18113 9.01993 1.09908 8.03591H4.30891C4.34822 8.67443 4.4487 9.30767 4.60899 9.92697C3.70229 10.0967 2.82468 10.396 2.00308 10.8154ZM6.1389 13.7825C6.10889 13.7756 6.07997 13.7659 6.04995 13.759C5.85811 13.7139 5.66786 13.6625 5.48192 13.5982C5.45351 13.5886 5.42566 13.5773 5.39778 13.5671C5.21344 13.5028 5.0318 13.4315 4.85386 13.3528C4.82278 13.3383 4.79223 13.3222 4.76114 13.3077C4.59074 13.2266 4.42427 13.1389 4.26172 13.0446L4.15456 12.9798C4.00023 12.8855 3.85018 12.7845 3.70443 12.677C3.66691 12.6497 3.62942 12.6234 3.59243 12.5934C3.44954 12.4863 3.3127 12.3714 3.18196 12.2488C3.14767 12.2178 3.11229 12.1872 3.07853 12.1551C2.94135 12.0249 2.81061 11.8871 2.68414 11.7446C2.66806 11.7258 2.65092 11.7087 2.63484 11.691C3.36043 11.3452 4.12909 11.0983 4.9203 10.9569C5.28685 11.9645 5.77104 12.9254 6.36284 13.8195C6.28839 13.8061 6.21231 13.7986 6.1389 13.7825ZM7.50213 13.5811C6.89231 12.7167 6.39075 11.7809 6.00866 10.7945C7.00107 10.6877 8.00208 10.6877 8.99449 10.7945L8.99396 10.7951C8.61146 11.7808 8.1105 12.7163 7.50213 13.5811ZM12.3196 11.7452C12.1936 11.8877 12.0624 12.0254 11.9252 12.1556C11.8914 12.1878 11.856 12.2183 11.8218 12.2494C11.6896 12.3702 11.5527 12.485 11.4113 12.594C11.3743 12.6224 11.3368 12.6502 11.2993 12.6776C11.1535 12.7847 11.0035 12.8857 10.8492 12.9803L10.742 13.0452C10.5798 13.1398 10.4133 13.2275 10.2426 13.3083C10.2115 13.3228 10.1809 13.3388 10.1499 13.3533C9.97196 13.4337 9.79029 13.505 9.60594 13.5677C9.57809 13.5778 9.55235 13.5891 9.52183 13.5988C9.33589 13.6609 9.14671 13.7124 8.9538 13.7595C8.92378 13.7665 8.89487 13.7761 8.86432 13.7826C8.79091 13.7986 8.7148 13.8061 8.64032 13.8196C9.23212 12.9255 9.71634 11.9646 10.0829 10.957C10.8741 11.0984 11.6428 11.3453 12.3683 11.6911C12.3528 11.7093 12.3357 11.7264 12.3196 11.7452ZM13.0012 10.8154C12.1798 10.396 11.3024 10.0968 10.3958 9.92697C10.5559 9.30764 10.6563 8.67439 10.6954 8.03591H13.9052C13.8231 9.0199 13.5137 9.9714 13.0012 10.8154Z" fill="#000427"/>
</svg>
