<svg width="116" height="34" viewBox="0 0 116 34" fill="none" xmlns="http://www.w3.org/2000/svg">
  <path d="M49.3483 23.1815C49.2477 22.9802 49.166 22.6218 49.1031 22.1061C48.2919 22.9488 47.3235 23.3701 46.1978 23.3701C45.1917 23.3701 44.3647 23.0871 43.717 22.5212C43.0756 21.9489 42.7549 21.2257 42.7549 20.3517C42.7549 19.2889 43.1573 18.4651 43.9623 17.8803C44.7735 17.2892 45.9117 16.9936 47.3769 16.9936H49.0748V16.1918C49.0748 15.5818 48.8924 15.0976 48.5277 14.7392C48.163 14.3745 47.6253 14.1921 46.9147 14.1921C46.2921 14.1921 45.7702 14.3493 45.3489 14.6637C44.9275 14.9782 44.7169 15.3586 44.7169 15.8051H42.9624C42.9624 15.2957 43.1416 14.8052 43.5001 14.3336C43.8648 13.8557 44.3553 13.4784 44.9716 13.2017C45.5941 12.925 46.2764 12.7866 47.0185 12.7866C48.1944 12.7866 49.1157 13.0822 49.7822 13.6733C50.4488 14.2581 50.7947 15.0662 50.8198 16.0975V20.795C50.8198 21.732 50.9393 22.4772 51.1783 23.0305V23.1815H49.3483ZM46.4525 21.8515C46.9996 21.8515 47.5184 21.71 48.0089 21.427C48.4994 21.144 48.8547 20.7761 49.0748 20.3234V18.2293H47.7071C45.569 18.2293 44.4999 18.855 44.4999 20.1064C44.4999 20.6535 44.6823 21.0811 45.047 21.3892C45.4118 21.6974 45.8803 21.8515 46.4525 21.8515Z" fill="#010739"/>
  <path d="M53.1309 17.9935C53.1309 16.3899 53.4987 15.1228 54.2345 14.1921C54.9702 13.2551 55.9575 12.7866 57.1964 12.7866C58.4037 12.7866 59.3564 13.1922 60.0545 14.0034L60.1299 12.9753H61.7335V27.1055H59.9884V22.2382C59.2841 22.9928 58.3471 23.3701 57.1775 23.3701C55.945 23.3701 54.9608 22.8922 54.2251 21.9363C53.4956 20.9742 53.1309 19.7008 53.1309 18.1161V17.9935ZM54.8759 18.1916C54.8759 19.3612 55.1212 20.2793 55.6117 20.9459C56.1085 21.6125 56.775 21.9458 57.6114 21.9458C58.649 21.9458 59.4413 21.4867 59.9884 20.5686V15.5693C59.4351 14.67 58.649 14.2204 57.6303 14.2204C56.7876 14.2204 56.1179 14.5568 55.6211 15.2297C55.1243 15.8963 54.8759 16.8836 54.8759 18.1916Z" fill="#010739"/>
  <path d="M70.8361 22.1722C70.1569 22.9708 69.1602 23.3701 67.8459 23.3701C66.758 23.3701 65.9279 23.0557 65.3556 22.4268C64.7897 21.7917 64.5036 20.8547 64.4973 19.6159V12.9753H66.2423V19.5687C66.2423 21.1157 66.8712 21.8892 68.1289 21.8892C69.462 21.8892 70.3487 21.3924 70.7889 20.3988V12.9753H72.5339V23.1815H70.8738L70.8361 22.1722Z" fill="#010739"/>
  <path d="M81.495 23.1815C81.3944 22.9802 81.3126 22.6218 81.2498 22.1061C80.4385 22.9488 79.4701 23.3701 78.3445 23.3701C77.3383 23.3701 76.5114 23.0871 75.8637 22.5212C75.2223 21.9489 74.9015 21.2257 74.9015 20.3517C74.9015 19.2889 75.304 18.4651 76.1089 17.8803C76.9201 17.2892 78.0584 16.9936 79.5236 16.9936H81.2215V16.1918C81.2215 15.5818 81.0391 15.0976 80.6744 14.7392C80.3096 14.3745 79.772 14.1921 79.0614 14.1921C78.4388 14.1921 77.9169 14.3493 77.4955 14.6637C77.0742 14.9782 76.8635 15.3586 76.8635 15.8051H75.1091C75.1091 15.2957 75.2883 14.8052 75.6467 14.3336C76.0115 13.8557 76.502 13.4784 77.1182 13.2017C77.7408 12.925 78.4231 12.7866 79.1651 12.7866C80.3411 12.7866 81.2623 13.0822 81.9289 13.6733C82.5955 14.2581 82.9414 15.0662 82.9665 16.0975V20.795C82.9665 21.732 83.086 22.4772 83.325 23.0305V23.1815H81.495ZM78.5992 21.8515C79.1463 21.8515 79.6651 21.71 80.1556 21.427C80.6461 21.144 81.0014 20.7761 81.2215 20.3234V18.2293H79.8537C77.7156 18.2293 76.6466 18.855 76.6466 20.1064C76.6466 20.6535 76.829 21.0811 77.1937 21.3892C77.5584 21.6974 78.0269 21.8515 78.5992 21.8515Z" fill="#010739"/>
  <path d="M90.6353 14.5411C90.3712 14.4971 90.0851 14.4751 89.7769 14.4751C88.6324 14.4751 87.8558 14.9624 87.447 15.9371V23.1815H85.702V12.9753H87.3999L87.4282 14.1544C88.0004 13.2425 88.8116 12.7866 89.8618 12.7866C90.2014 12.7866 90.4592 12.8306 90.6353 12.9187V14.5411Z" fill="#010739"/>
  <path d="M94.1443 23.1815H92.3992V12.9753H94.1443V23.1815ZM92.2577 10.2681C92.2577 9.98511 92.3426 9.74615 92.5124 9.5512C92.6885 9.35626 92.9463 9.25879 93.2859 9.25879C93.6255 9.25879 93.8833 9.35626 94.0594 9.5512C94.2355 9.74615 94.3235 9.98511 94.3235 10.2681C94.3235 10.5511 94.2355 10.7869 94.0594 10.9755C93.8833 11.1642 93.6255 11.2585 93.2859 11.2585C92.9463 11.2585 92.6885 11.1642 92.5124 10.9755C92.3426 10.7869 92.2577 10.5511 92.2577 10.2681Z" fill="#010739"/>
  <path d="M103.247 22.1722C102.568 22.9708 101.571 23.3701 100.257 23.3701C99.1688 23.3701 98.3387 23.0557 97.7664 22.4268C97.2005 21.7917 96.9143 20.8547 96.9081 19.6159V12.9753H98.6531V19.5687C98.6531 21.1157 99.2819 21.8892 100.54 21.8892C101.873 21.8892 102.759 21.3924 103.2 20.3988V12.9753H104.945V23.1815H103.285L103.247 22.1722Z" fill="#010739"/>
  <path d="M113.547 20.4743C113.547 20.0026 113.368 19.6379 113.01 19.3801C112.658 19.116 112.038 18.8896 111.151 18.7009C110.271 18.5123 109.57 18.2859 109.048 18.0218C108.532 17.7577 108.149 17.4432 107.897 17.0785C107.652 16.7138 107.529 16.2799 107.529 15.7768C107.529 14.9404 107.881 14.233 108.586 13.6544C109.296 13.0759 110.202 12.7866 111.302 12.7866C112.459 12.7866 113.396 13.0853 114.113 13.6827C114.836 14.2801 115.198 15.0442 115.198 15.9749H113.444C113.444 15.497 113.239 15.0851 112.83 14.7392C112.428 14.3933 111.919 14.2204 111.302 14.2204C110.667 14.2204 110.17 14.3587 109.812 14.6354C109.454 14.9121 109.274 15.2737 109.274 15.7202C109.274 16.1415 109.441 16.4591 109.774 16.6729C110.108 16.8867 110.708 17.0911 111.576 17.286C112.45 17.481 113.157 17.7136 113.698 17.984C114.239 18.2544 114.638 18.5814 114.896 18.965C115.16 19.3424 115.292 19.8046 115.292 20.3517C115.292 21.2635 114.928 21.9961 114.198 22.5495C113.469 23.0966 112.522 23.3701 111.359 23.3701C110.541 23.3701 109.818 23.2255 109.189 22.9362C108.561 22.6469 108.067 22.2445 107.708 21.7288C107.356 21.2069 107.18 20.6441 107.18 20.0404H108.925C108.957 20.6252 109.189 21.0905 109.623 21.4364C110.064 21.776 110.642 21.9458 111.359 21.9458C112.019 21.9458 112.547 21.8137 112.944 21.5496C113.346 21.2792 113.547 20.9208 113.547 20.4743Z" fill="#010739"/>
  <path d="M0 17C0 10.4531 0 7.17971 1.4736 4.77501C2.29816 3.42946 3.42946 2.29816 4.77501 1.4736C7.17971 0 10.4531 0 17 0C23.5469 0 26.8203 0 29.225 1.4736C30.5705 2.29816 31.7018 3.42946 32.5264 4.77501C34 7.17971 34 10.4531 34 17C34 23.5469 34 26.8203 32.5264 29.225C31.7018 30.5705 30.5705 31.7018 29.225 32.5264C26.8203 34 23.5469 34 17 34C10.4531 34 7.17971 34 4.77501 32.5264C3.42946 31.7018 2.29816 30.5705 1.4736 29.225C0 26.8203 0 23.5469 0 17Z" fill="#872AB0"/>
  <path fill-rule="evenodd" clip-rule="evenodd" d="M20.1297 15.6366L23.9315 19.4111L27.7067 15.6608L29.3637 17.2968L23.932 22.6927L20.1297 18.9176L14.1341 24.8702L10.9169 21.6761L7.06569 25.4997L5.40918 23.8633L10.9169 18.3951L14.1341 21.5891L20.1297 15.6366Z" fill="white"/>
  <path fill-rule="evenodd" clip-rule="evenodd" d="M20.1297 9.27246L23.9315 13.047L27.7067 9.29668L29.3637 10.9326L23.932 16.3286L20.1297 12.5535L14.1341 18.5061L10.9169 15.312L7.06569 19.1356L5.40918 17.4992L10.9169 12.031L14.1341 15.225L20.1297 9.27246Z" fill="white"/>
</svg>
