<svg width="1768" height="645" viewBox="0 0 1768 645" fill="none" xmlns="http://www.w3.org/2000/svg">
<mask id="mask0" mask-type="alpha" maskUnits="userSpaceOnUse" x="-3" y="0" width="1771" height="645">
<rect x="-3" width="1771" height="645" fill="#5F0E8E"/>
</mask>
<g mask="url(#mask0)">
<mask id="mask1" mask-type="alpha" maskUnits="userSpaceOnUse" x="-3" y="0" width="1775" height="645">
<rect x="-3" width="1775" height="645" fill="#24034F"/>
</mask>
<g mask="url(#mask1)">
<g opacity="0.1">
<path opacity="0.1" d="M891.348 367.186C891.348 368.466 890.31 369.503 889.031 369.503C887.751 369.503 886.714 368.466 886.714 367.186C886.714 365.907 887.751 364.869 889.031 364.869C890.31 364.869 891.348 365.907 891.348 367.186Z" fill="white"/>
<path opacity="0.1" d="M568.743 337.076C568.743 338.355 567.706 339.393 566.426 339.393C565.146 339.393 564.109 338.355 564.109 337.076C564.109 335.796 565.146 334.759 566.426 334.759C567.706 334.759 568.743 335.796 568.743 337.076Z" fill="white"/>
<path d="M603.867 517.577C603.867 519.176 602.571 520.473 600.971 520.473C599.372 520.473 598.075 519.176 598.075 517.577C598.075 515.977 599.372 514.681 600.971 514.681C602.571 514.681 603.867 515.977 603.867 517.577Z" fill="white"/>
<path d="M363.788 321.724C363.788 323.324 362.491 324.621 360.891 324.621C359.292 324.621 357.995 323.324 357.995 321.724C357.995 320.125 359.292 318.828 360.891 318.828C362.491 318.828 363.788 320.125 363.788 321.724Z" fill="white"/>
<path fill-rule="evenodd" clip-rule="evenodd" d="M901.541 624.165C900.289 624.165 899.274 625.18 899.274 626.432C899.274 627.685 900.289 628.7 901.541 628.7C902.794 628.7 903.809 627.685 903.809 626.432C903.809 625.18 902.794 624.165 901.541 624.165ZM898.016 626.432C898.016 624.485 899.595 622.907 901.541 622.907C903.488 622.907 905.066 624.485 905.066 626.432C905.066 628.379 903.488 629.957 901.541 629.957C899.595 629.957 898.016 628.379 898.016 626.432Z" fill="white"/>
<path d="M521.788 101.888C521.788 103.168 520.751 104.205 519.471 104.205C518.191 104.205 517.154 103.168 517.154 101.888C517.154 100.609 518.191 99.5713 519.471 99.5713C520.751 99.5713 521.788 100.609 521.788 101.888Z" fill="white"/>
<path fill-rule="evenodd" clip-rule="evenodd" d="M1162.6 182.143C1163.83 182.143 1164.82 181.15 1164.82 179.925C1164.82 178.7 1163.83 177.707 1162.6 177.707C1161.38 177.707 1160.39 178.7 1160.39 179.925C1160.39 181.15 1161.38 182.143 1162.6 182.143ZM1162.6 183.4C1164.52 183.4 1166.08 181.844 1166.08 179.925C1166.08 178.005 1164.52 176.449 1162.6 176.449C1160.68 176.449 1159.13 178.005 1159.13 179.925C1159.13 181.844 1160.68 183.4 1162.6 183.4Z" fill="white"/>
<path fill-rule="evenodd" clip-rule="evenodd" d="M783.871 217.219C785.096 217.219 786.089 216.226 786.089 215.001C786.089 213.776 785.096 212.783 783.871 212.783C782.646 212.783 781.653 213.776 781.653 215.001C781.653 216.226 782.646 217.219 783.871 217.219ZM783.871 218.476C785.791 218.476 787.347 216.92 787.347 215.001C787.347 213.081 785.791 211.525 783.871 211.525C781.952 211.525 780.396 213.081 780.396 215.001C780.396 216.92 781.952 218.476 783.871 218.476Z" fill="white"/>
<path fill-rule="evenodd" clip-rule="evenodd" d="M588.259 301.131C589.484 301.131 590.477 300.138 590.477 298.913C590.477 297.688 589.484 296.695 588.259 296.695C587.034 296.695 586.041 297.688 586.041 298.913C586.041 300.138 587.034 301.131 588.259 301.131ZM588.259 302.389C590.179 302.389 591.735 300.832 591.735 298.913C591.735 296.994 590.179 295.438 588.259 295.438C586.34 295.438 584.784 296.994 584.784 298.913C584.784 300.832 586.34 302.389 588.259 302.389Z" fill="white"/>
<path fill-rule="evenodd" clip-rule="evenodd" d="M933.511 360.572C934.736 360.572 935.729 359.579 935.729 358.354C935.729 357.129 934.736 356.136 933.511 356.136C932.286 356.136 931.293 357.129 931.293 358.354C931.293 359.579 932.286 360.572 933.511 360.572ZM933.511 361.83C935.43 361.83 936.986 360.274 936.986 358.354C936.986 356.435 935.43 354.879 933.511 354.879C931.591 354.879 930.035 356.435 930.035 358.354C930.035 360.274 931.591 361.83 933.511 361.83Z" fill="white"/>
<path d="M1187.18 449.173C1187.18 451.092 1185.63 452.648 1183.71 452.648C1181.79 452.648 1180.23 451.092 1180.23 449.173C1180.23 447.253 1181.79 445.697 1183.71 445.697C1185.63 445.697 1187.18 447.253 1187.18 449.173Z" fill="white"/>
<path fill-rule="evenodd" clip-rule="evenodd" d="M1292.52 519.275C1293.75 519.275 1294.74 518.282 1294.74 517.057C1294.74 515.832 1293.75 514.839 1292.52 514.839C1291.3 514.839 1290.31 515.832 1290.31 517.057C1290.31 518.282 1291.3 519.275 1292.52 519.275ZM1292.52 520.532C1294.44 520.532 1296 518.976 1296 517.057C1296 515.137 1294.44 513.581 1292.52 513.581C1290.6 513.581 1289.05 515.137 1289.05 517.057C1289.05 518.976 1290.6 520.532 1292.52 520.532Z" fill="white"/>
</g>
<g opacity="0.1" filter="url(#filter0_f)">
<path opacity="0.1" d="M505.408 452.033C505.408 453.104 504.54 453.972 503.469 453.972C502.398 453.972 501.529 453.104 501.529 452.033C501.529 450.962 502.398 450.094 503.469 450.094C504.54 450.094 505.408 450.962 505.408 452.033Z" fill="white"/>
<path opacity="0.1" d="M235.392 426.832C235.392 427.903 234.524 428.771 233.453 428.771C232.382 428.771 231.514 427.903 231.514 426.832C231.514 425.761 232.382 424.893 233.453 424.893C234.524 424.893 235.392 425.761 235.392 426.832Z" fill="white"/>
<path opacity="0.1" d="M206.975 108.979C206.975 110.05 206.107 110.919 205.036 110.919C203.965 110.919 203.097 110.05 203.097 108.979C203.097 107.908 203.965 107.04 205.036 107.04C206.107 107.04 206.975 107.908 206.975 108.979Z" fill="white"/>
<path d="M264.791 577.908C264.791 579.246 263.706 580.332 262.367 580.332C261.028 580.332 259.943 579.246 259.943 577.908C259.943 576.569 261.028 575.483 262.367 575.483C263.706 575.483 264.791 576.569 264.791 577.908Z" fill="white"/>
<path d="M63.8483 413.983C63.8483 415.322 62.7629 416.407 61.4241 416.407C60.0853 416.407 59 415.322 59 413.983C59 412.644 60.0853 411.559 61.4241 411.559C62.7629 411.559 63.8483 412.644 63.8483 413.983Z" fill="white"/>
<path d="M196.092 229.984C196.092 231.055 195.223 231.924 194.152 231.924C193.081 231.924 192.213 231.055 192.213 229.984C192.213 228.913 193.081 228.045 194.152 228.045C195.223 228.045 196.092 228.913 196.092 229.984Z" fill="white"/>
<path fill-rule="evenodd" clip-rule="evenodd" d="M732.445 297.155C733.47 297.155 734.302 296.324 734.302 295.299C734.302 294.273 733.47 293.442 732.445 293.442C731.42 293.442 730.589 294.273 730.589 295.299C730.589 296.324 731.42 297.155 732.445 297.155ZM732.445 298.208C734.052 298.208 735.354 296.905 735.354 295.299C735.354 293.692 734.052 292.39 732.445 292.39C730.839 292.39 729.536 293.692 729.536 295.299C729.536 296.905 730.839 298.208 732.445 298.208Z" fill="white"/>
<path fill-rule="evenodd" clip-rule="evenodd" d="M415.452 326.513C416.477 326.513 417.308 325.682 417.308 324.657C417.308 323.632 416.477 322.801 415.452 322.801C414.426 322.801 413.595 323.632 413.595 324.657C413.595 325.682 414.426 326.513 415.452 326.513ZM415.452 327.566C417.058 327.566 418.361 326.264 418.361 324.657C418.361 323.05 417.058 321.748 415.452 321.748C413.845 321.748 412.543 323.05 412.543 324.657C412.543 326.264 413.845 327.566 415.452 327.566Z" fill="white"/>
<path fill-rule="evenodd" clip-rule="evenodd" d="M251.727 396.746C252.753 396.746 253.584 395.915 253.584 394.889C253.584 393.864 252.753 393.033 251.727 393.033C250.702 393.033 249.871 393.864 249.871 394.889C249.871 395.915 250.702 396.746 251.727 396.746ZM251.727 397.798C253.334 397.798 254.636 396.496 254.636 394.889C254.636 393.283 253.334 391.98 251.727 391.98C250.121 391.98 248.818 393.283 248.818 394.889C248.818 396.496 250.121 397.798 251.727 397.798Z" fill="white"/>
<path fill-rule="evenodd" clip-rule="evenodd" d="M540.698 446.499C541.723 446.499 542.554 445.668 542.554 444.642C542.554 443.617 541.723 442.786 540.698 442.786C539.672 442.786 538.841 443.617 538.841 444.642C538.841 445.668 539.672 446.499 540.698 446.499ZM540.698 447.551C542.304 447.551 543.606 446.249 543.606 444.642C543.606 443.036 542.304 441.733 540.698 441.733C539.091 441.733 537.789 443.036 537.789 444.642C537.789 446.249 539.091 447.551 540.698 447.551Z" fill="white"/>
<path d="M753.016 520.655C753.016 522.262 751.714 523.564 750.107 523.564C748.501 523.564 747.198 522.262 747.198 520.655C747.198 519.048 748.501 517.746 750.107 517.746C751.714 517.746 753.016 519.048 753.016 520.655Z" fill="white"/>
<path fill-rule="evenodd" clip-rule="evenodd" d="M845.442 470.801C846.468 470.801 847.299 469.969 847.299 468.944C847.299 467.919 846.468 467.088 845.442 467.088C844.417 467.088 843.586 467.919 843.586 468.944C843.586 469.969 844.417 470.801 845.442 470.801ZM845.442 471.853C847.049 471.853 848.351 470.551 848.351 468.944C848.351 467.338 847.049 466.035 845.442 466.035C843.836 466.035 842.533 467.338 842.533 468.944C842.533 470.551 843.836 471.853 845.442 471.853Z" fill="white"/>
</g>
<g opacity="0.1" filter="url(#filter1_f)">
<path opacity="0.1" d="M1283.4 452.033C1283.4 453.104 1282.54 453.972 1281.47 453.972C1280.39 453.972 1279.53 453.104 1279.53 452.033C1279.53 450.962 1280.39 450.094 1281.47 450.094C1282.54 450.094 1283.4 450.962 1283.4 452.033Z" fill="white"/>
<path opacity="0.1" d="M1013.39 426.832C1013.39 427.903 1012.52 428.771 1011.45 428.771C1010.38 428.771 1009.51 427.903 1009.51 426.832C1009.51 425.761 1010.38 424.893 1011.45 424.893C1012.52 424.893 1013.39 425.761 1013.39 426.832Z" fill="white"/>
<path opacity="0.1" d="M984.972 108.979C984.972 110.05 984.104 110.919 983.033 110.919C981.962 110.919 981.094 110.05 981.094 108.979C981.094 107.908 981.962 107.04 983.033 107.04C984.104 107.04 984.972 107.908 984.972 108.979Z" fill="white"/>
<path d="M1042.79 577.908C1042.79 579.246 1041.7 580.332 1040.36 580.332C1039.03 580.332 1037.94 579.246 1037.94 577.908C1037.94 576.569 1039.03 575.483 1040.36 575.483C1041.7 575.483 1042.79 576.569 1042.79 577.908Z" fill="white"/>
<path d="M841.845 413.983C841.845 415.322 840.76 416.407 839.421 416.407C838.082 416.407 836.997 415.322 836.997 413.983C836.997 412.644 838.082 411.559 839.421 411.559C840.76 411.559 841.845 412.644 841.845 413.983Z" fill="white"/>
<path d="M974.089 229.984C974.089 231.055 973.221 231.924 972.15 231.924C971.079 231.924 970.21 231.055 970.21 229.984C970.21 228.913 971.079 228.045 972.15 228.045C973.221 228.045 974.089 228.913 974.089 229.984Z" fill="white"/>
<path fill-rule="evenodd" clip-rule="evenodd" d="M1510.44 297.155C1511.47 297.155 1512.3 296.324 1512.3 295.299C1512.3 294.273 1511.47 293.442 1510.44 293.442C1509.42 293.442 1508.59 294.273 1508.59 295.299C1508.59 296.324 1509.42 297.155 1510.44 297.155ZM1510.44 298.208C1512.05 298.208 1513.35 296.905 1513.35 295.299C1513.35 293.692 1512.05 292.39 1510.44 292.39C1508.84 292.39 1507.53 293.692 1507.53 295.299C1507.53 296.905 1508.84 298.208 1510.44 298.208Z" fill="white"/>
<path fill-rule="evenodd" clip-rule="evenodd" d="M1193.45 326.513C1194.47 326.513 1195.31 325.682 1195.31 324.657C1195.31 323.632 1194.47 322.801 1193.45 322.801C1192.42 322.801 1191.59 323.632 1191.59 324.657C1191.59 325.682 1192.42 326.513 1193.45 326.513ZM1193.45 327.566C1195.06 327.566 1196.36 326.264 1196.36 324.657C1196.36 323.05 1195.06 321.748 1193.45 321.748C1191.84 321.748 1190.54 323.05 1190.54 324.657C1190.54 326.264 1191.84 327.566 1193.45 327.566Z" fill="white"/>
<path fill-rule="evenodd" clip-rule="evenodd" d="M1029.72 396.746C1030.75 396.746 1031.58 395.915 1031.58 394.889C1031.58 393.864 1030.75 393.033 1029.72 393.033C1028.7 393.033 1027.87 393.864 1027.87 394.889C1027.87 395.915 1028.7 396.746 1029.72 396.746ZM1029.72 397.798C1031.33 397.798 1032.63 396.496 1032.63 394.889C1032.63 393.283 1031.33 391.98 1029.72 391.98C1028.12 391.98 1026.82 393.283 1026.82 394.889C1026.82 396.496 1028.12 397.798 1029.72 397.798Z" fill="white"/>
<path fill-rule="evenodd" clip-rule="evenodd" d="M1318.69 446.499C1319.72 446.499 1320.55 445.668 1320.55 444.642C1320.55 443.617 1319.72 442.786 1318.69 442.786C1317.67 442.786 1316.84 443.617 1316.84 444.642C1316.84 445.668 1317.67 446.499 1318.69 446.499ZM1318.69 447.551C1320.3 447.551 1321.6 446.249 1321.6 444.642C1321.6 443.036 1320.3 441.733 1318.69 441.733C1317.09 441.733 1315.79 443.036 1315.79 444.642C1315.79 446.249 1317.09 447.551 1318.69 447.551Z" fill="white"/>
<path d="M1531.01 520.655C1531.01 522.262 1529.71 523.564 1528.1 523.564C1526.5 523.564 1525.2 522.262 1525.2 520.655C1525.2 519.048 1526.5 517.746 1528.1 517.746C1529.71 517.746 1531.01 519.048 1531.01 520.655Z" fill="white"/>
<path fill-rule="evenodd" clip-rule="evenodd" d="M1623.44 470.801C1624.46 470.801 1625.3 469.969 1625.3 468.944C1625.3 467.919 1624.46 467.088 1623.44 467.088C1622.41 467.088 1621.58 467.919 1621.58 468.944C1621.58 469.969 1622.41 470.801 1623.44 470.801ZM1623.44 471.853C1625.05 471.853 1626.35 470.551 1626.35 468.944C1626.35 467.338 1625.05 466.035 1623.44 466.035C1621.83 466.035 1620.53 467.338 1620.53 468.944C1620.53 470.551 1621.83 471.853 1623.44 471.853Z" fill="white"/>
</g>
<path d="M890.357 162.975L889.503 166.105L886.372 166.959L889.503 167.813L890.357 170.944L891.211 167.813L894.342 166.959L891.211 166.105L890.357 162.975Z" fill="white"/>
<path d="M475.428 176.857C475.428 175.365 476.638 174.155 478.131 174.155C479.623 174.155 480.833 175.365 480.833 176.857C480.833 178.35 479.623 179.559 478.131 179.559C476.638 179.559 475.428 178.35 475.428 176.857Z" fill="white"/>
<path d="M1297.99 360.016L1296.5 365.476L1291.04 366.965L1296.5 368.453L1297.99 373.913L1299.48 368.453L1304.94 366.965L1299.48 365.476L1297.99 360.016Z" fill="white"/>
<path d="M1294.49 370.641L1295.64 369.483L1295.47 369.309L1294.31 370.467L1294.49 370.641Z" fill="white"/>
<path d="M1294.29 370.834L1293.91 371.22L1293.73 371.046L1294.12 370.66L1294.29 370.834Z" fill="white"/>
<path d="M1293.33 371.799L1293.71 371.413L1293.54 371.239L1293.15 371.625L1293.33 371.799Z" fill="white"/>
<path d="M1300.62 364.503L1301.78 363.345L1301.61 363.172L1300.45 364.33L1300.62 364.503Z" fill="white"/>
<path d="M1302.36 362.766L1301.98 363.152L1301.8 362.979L1302.19 362.593L1302.36 362.766Z" fill="white"/>
<path d="M1302.55 362.573L1302.94 362.187L1302.77 362.014L1302.38 362.4L1302.55 362.573Z" fill="white"/>
<path d="M1294.2 363.345L1295.35 364.504L1295.53 364.33L1294.37 363.172L1294.2 363.345Z" fill="white"/>
<path d="M1294 363.152L1293.62 362.766L1293.79 362.593L1294.18 362.979L1294 363.152Z" fill="white"/>
<path d="M1293.04 362.187L1293.42 362.573L1293.6 362.4L1293.21 362.014L1293.04 362.187Z" fill="white"/>
<path d="M1300.33 369.483L1301.49 370.641L1301.67 370.467L1300.51 369.309L1300.33 369.483Z" fill="white"/>
<path d="M1302.07 371.22L1301.69 370.834L1301.86 370.66L1302.25 371.046L1302.07 371.22Z" fill="white"/>
<path d="M1302.27 371.413L1302.65 371.799L1302.82 371.626L1302.44 371.24L1302.27 371.413Z" fill="white"/>
<path d="M354.449 588.335L352.96 593.794L347.5 595.283L352.96 596.772L354.449 602.231L355.938 596.772L361.398 595.283L355.938 593.794L354.449 588.335Z" fill="white"/>
<path d="M352.104 597.801L350.945 598.96L350.772 598.786L351.93 597.628L352.104 597.801Z" fill="white"/>
<path d="M350.366 599.539L350.752 599.153L350.579 598.979L350.193 599.365L350.366 599.539Z" fill="white"/>
<path d="M350.173 599.732L349.787 600.118L349.614 599.944L350 599.558L350.173 599.732Z" fill="white"/>
<path d="M358.242 591.664L357.084 592.822L356.91 592.648L358.068 591.49L358.242 591.664Z" fill="white"/>
<path d="M358.435 591.471L358.821 591.085L358.647 590.911L358.261 591.297L358.435 591.471Z" fill="white"/>
<path d="M359.4 590.506L359.014 590.892L358.84 590.718L359.226 590.332L359.4 590.506Z" fill="white"/>
<path d="M351.814 592.822L350.656 591.664L350.83 591.49L351.988 592.648L351.814 592.822Z" fill="white"/>
<path d="M350.077 591.085L350.463 591.471L350.637 591.297L350.251 590.911L350.077 591.085Z" fill="white"/>
<path d="M349.884 590.892L349.498 590.506L349.672 590.332L350.058 590.718L349.884 590.892Z" fill="white"/>
<path d="M357.953 598.96L356.794 597.802L356.968 597.628L358.126 598.786L357.953 598.96Z" fill="white"/>
<path d="M358.146 599.153L358.532 599.539L358.705 599.365L358.319 598.979L358.146 599.153Z" fill="white"/>
<path d="M359.111 600.118L358.725 599.732L358.898 599.558L359.284 599.944L359.111 600.118Z" fill="white"/>
<path d="M1237.78 615.978C1236.29 615.978 1235.08 617.188 1235.08 618.68C1235.08 620.173 1236.29 621.382 1237.78 621.382C1239.28 621.382 1240.49 620.173 1240.49 618.68C1240.49 617.188 1239.28 615.978 1237.78 615.978Z" fill="white"/>
<path d="M1212.61 590.598C1213.23 590.598 1213.74 590.091 1213.74 589.466C1213.74 588.841 1213.23 588.335 1212.61 588.335C1211.98 588.335 1211.48 588.841 1211.48 589.466C1211.48 590.091 1211.98 590.598 1212.61 590.598Z" fill="white"/>
<path d="M971.924 565.074L970.435 570.534L964.975 572.023L970.435 573.512L971.924 578.971L973.413 573.512L978.873 572.023L973.413 570.534L971.924 565.074Z" fill="white"/>
<path d="M969.579 574.541L968.42 575.699L968.247 575.526L969.405 574.367L969.579 574.541Z" fill="white"/>
<path d="M967.841 576.278L968.227 575.892L968.054 575.719L967.668 576.105L967.841 576.278Z" fill="white"/>
<path d="M967.648 576.471L967.262 576.857L967.089 576.684L967.475 576.298L967.648 576.471Z" fill="white"/>
<path d="M975.717 568.404L974.559 569.562L974.385 569.388L975.543 568.23L975.717 568.404Z" fill="white"/>
<path d="M975.91 568.211L976.296 567.825L976.122 567.651L975.736 568.037L975.91 568.211Z" fill="white"/>
<path d="M976.875 567.246L976.489 567.632L976.315 567.458L976.701 567.072L976.875 567.246Z" fill="white"/>
<path d="M969.289 569.562L968.131 568.404L968.305 568.23L969.463 569.388L969.289 569.562Z" fill="white"/>
<path d="M967.552 567.825L967.938 568.211L968.112 568.037L967.726 567.651L967.552 567.825Z" fill="white"/>
<path d="M967.359 567.632L966.973 567.246L967.147 567.072L967.533 567.458L967.359 567.632Z" fill="white"/>
<path d="M975.427 575.699L974.269 574.541L974.443 574.368L975.601 575.526L975.427 575.699Z" fill="white"/>
<path d="M975.62 575.892L976.007 576.278L976.18 576.105L975.794 575.719L975.62 575.892Z" fill="white"/>
<path d="M976.586 576.857L976.2 576.471L976.373 576.298L976.759 576.684L976.586 576.857Z" fill="white"/>
<path d="M658.416 342.072L659.905 336.612L661.394 342.072L666.854 343.561L661.394 345.049L659.905 350.509L658.416 345.049L652.956 343.561L658.416 342.072Z" fill="white"/>
<path d="M656.402 347.237L657.56 346.079L657.386 345.905L656.228 347.063L656.402 347.237Z" fill="white"/>
<path d="M656.209 347.43L655.823 347.816L655.649 347.642L656.035 347.256L656.209 347.43Z" fill="white"/>
<path d="M655.244 348.395L655.63 348.009L655.456 347.835L655.07 348.221L655.244 348.395Z" fill="white"/>
<path d="M662.54 341.099L663.698 339.941L663.525 339.768L662.366 340.926L662.54 341.099Z" fill="white"/>
<path d="M664.277 339.362L663.891 339.748L663.718 339.575L664.104 339.189L664.277 339.362Z" fill="white"/>
<path d="M664.47 339.169L664.856 338.783L664.683 338.61L664.297 338.996L664.47 339.169Z" fill="white"/>
<path d="M656.112 339.942L657.271 341.1L657.444 340.926L656.286 339.768L656.112 339.942Z" fill="white"/>
<path d="M655.919 339.749L655.533 339.362L655.707 339.189L656.093 339.575L655.919 339.749Z" fill="white"/>
<path d="M654.954 338.783L655.34 339.169L655.514 338.996L655.128 338.61L654.954 338.783Z" fill="white"/>
<path d="M662.251 346.079L663.409 347.237L663.583 347.063L662.424 345.905L662.251 346.079Z" fill="white"/>
<path d="M663.988 347.816L663.602 347.43L663.776 347.256L664.162 347.642L663.988 347.816Z" fill="white"/>
<path d="M664.181 348.009L664.567 348.395L664.741 348.222L664.355 347.836L664.181 348.009Z" fill="white"/>
<path d="M889.049 168.441L888.385 169.105L888.211 168.931L888.876 168.267L889.049 168.441Z" fill="white"/>
<path d="M888.053 169.437L888.274 169.216L888.101 169.042L887.879 169.263L888.053 169.437Z" fill="white"/>
<path d="M887.943 169.548L887.721 169.769L887.548 169.595L887.769 169.374L887.943 169.548Z" fill="white"/>
<path d="M892.569 164.921L891.905 165.585L891.732 165.411L892.396 164.747L892.569 164.921Z" fill="white"/>
<path d="M892.68 164.81L892.902 164.589L892.728 164.415L892.507 164.637L892.68 164.81Z" fill="white"/>
<path d="M893.234 164.257L893.013 164.478L892.839 164.305L893.06 164.083L893.234 164.257Z" fill="white"/>
<path d="M888.809 165.585L888.145 164.921L888.319 164.747L888.983 165.411L888.809 165.585Z" fill="white"/>
<path d="M887.812 164.589L888.034 164.81L888.208 164.637L887.986 164.415L887.812 164.589Z" fill="white"/>
<path d="M887.702 164.478L887.481 164.257L887.654 164.083L887.876 164.305L887.702 164.478Z" fill="white"/>
<path d="M892.329 169.105L891.665 168.44L891.838 168.267L892.502 168.931L892.329 169.105Z" fill="white"/>
<path d="M892.439 169.215L892.661 169.437L892.835 169.263L892.613 169.041L892.439 169.215Z" fill="white"/>
<path d="M892.993 169.769L892.772 169.547L892.946 169.374L893.167 169.595L892.993 169.769Z" fill="white"/>
<path d="M421.891 294.339L422.744 291.208L423.598 294.339L426.729 295.193L423.598 296.047L422.744 299.177L421.891 296.047L418.759 295.193L421.891 294.339Z" fill="white"/>
<path d="M420.772 297.338L421.436 296.674L421.263 296.5L420.598 297.165L420.772 297.338Z" fill="white"/>
<path d="M420.662 297.449L420.44 297.671L420.266 297.497L420.488 297.275L420.662 297.449Z" fill="white"/>
<path d="M420.108 298.003L420.33 297.781L420.156 297.608L419.935 297.829L420.108 298.003Z" fill="white"/>
<path d="M424.292 293.819L424.956 293.155L424.783 292.981L424.119 293.645L424.292 293.819Z" fill="white"/>
<path d="M425.289 292.823L425.067 293.044L424.894 292.87L425.115 292.649L425.289 292.823Z" fill="white"/>
<path d="M425.4 292.712L425.621 292.491L425.447 292.317L425.226 292.538L425.4 292.712Z" fill="white"/>
<path d="M420.532 293.154L421.196 293.818L421.37 293.645L420.706 292.981L420.532 293.154Z" fill="white"/>
<path d="M420.421 293.044L420.199 292.823L420.373 292.649L420.595 292.87L420.421 293.044Z" fill="white"/>
<path d="M419.868 292.491L420.089 292.712L420.263 292.538L420.041 292.317L419.868 292.491Z" fill="white"/>
<path d="M424.052 296.674L424.716 297.338L424.889 297.164L424.225 296.5L424.052 296.674Z" fill="white"/>
<path d="M425.048 297.67L424.826 297.449L425 297.275L425.222 297.496L425.048 297.67Z" fill="white"/>
<path d="M425.159 297.781L425.38 298.002L425.554 297.829L425.333 297.607L425.159 297.781Z" fill="white"/>
<g opacity="0.5">
<path d="M791.063 748.506L792.39 743.639L797.258 742.311L792.39 740.984L791.063 736.117L789.735 740.984L784.867 742.311L789.735 743.639L791.063 748.506Z" fill="white"/>
<path d="M1436.12 726.924C1436.12 729.244 1434.24 731.125 1431.92 731.125C1429.6 731.125 1427.72 729.244 1427.72 726.924C1427.72 724.603 1429.6 722.723 1431.92 722.723C1434.24 722.723 1436.12 724.603 1436.12 726.924Z" fill="white"/>
<path d="M157.344 442.179L159.659 433.692L168.147 431.377L159.659 429.062L157.344 420.575L155.029 429.062L146.541 431.377L155.029 433.692L157.344 442.179Z" fill="white"/>
<path d="M162.791 425.661L160.99 427.461L161.261 427.731L163.061 425.931L162.791 425.661Z" fill="white"/>
<path d="M163.091 425.361L163.691 424.761L163.961 425.031L163.361 425.631L163.091 425.361Z" fill="white"/>
<path d="M164.591 423.861L163.991 424.461L164.261 424.731L164.862 424.131L164.591 423.861Z" fill="white"/>
<path d="M153.248 435.203L151.448 437.003L151.718 437.273L153.518 435.473L153.248 435.203Z" fill="white"/>
<path d="M150.547 437.903L151.148 437.303L151.418 437.573L150.818 438.173L150.547 437.903Z" fill="white"/>
<path d="M150.247 438.203L149.647 438.804L149.917 439.074L150.517 438.473L150.247 438.203Z" fill="white"/>
<path d="M163.241 437.003L161.44 435.203L161.17 435.473L162.971 437.273L163.241 437.003Z" fill="white"/>
<path d="M163.541 437.303L164.141 437.903L163.871 438.173L163.271 437.573L163.541 437.303Z" fill="white"/>
<path d="M165.041 438.803L164.441 438.203L164.171 438.473L164.771 439.073L165.041 438.803Z" fill="white"/>
<path d="M153.698 427.461L151.898 425.661L151.628 425.931L153.428 427.731L153.698 427.461Z" fill="white"/>
<path d="M150.997 424.761L151.598 425.361L151.327 425.631L150.727 425.031L150.997 424.761Z" fill="white"/>
<path d="M150.697 424.461L150.097 423.861L149.827 424.131L150.427 424.731L150.697 424.461Z" fill="white"/>
<path d="M1545.63 255.616L1547.95 247.128L1556.44 244.814L1547.95 242.499L1545.63 234.012L1543.32 242.499L1534.83 244.814L1543.32 247.128L1545.63 255.616Z" fill="white"/>
<path d="M1549.28 240.898L1551.08 239.098L1551.35 239.368L1549.55 241.168L1549.28 240.898Z" fill="white"/>
<path d="M1551.98 238.198L1551.38 238.798L1551.65 239.068L1552.25 238.468L1551.98 238.198Z" fill="white"/>
<path d="M1552.28 237.898L1552.88 237.298L1553.15 237.568L1552.55 238.168L1552.28 237.898Z" fill="white"/>
<path d="M1539.74 250.44L1541.54 248.64L1541.81 248.91L1540.01 250.71L1539.74 250.44Z" fill="white"/>
<path d="M1539.44 250.74L1538.84 251.34L1539.11 251.61L1539.71 251.01L1539.44 250.74Z" fill="white"/>
<path d="M1537.94 252.24L1538.54 251.64L1538.81 251.91L1538.21 252.51L1537.94 252.24Z" fill="white"/>
<path d="M1549.73 248.64L1551.53 250.44L1551.26 250.71L1549.46 248.91L1549.73 248.64Z" fill="white"/>
<path d="M1552.43 251.34L1551.83 250.74L1551.56 251.01L1552.16 251.61L1552.43 251.34Z" fill="white"/>
<path d="M1552.73 251.64L1553.33 252.24L1553.06 252.51L1552.46 251.91L1552.73 251.64Z" fill="white"/>
<path d="M1540.19 239.098L1541.99 240.898L1541.72 241.168L1539.92 239.368L1540.19 239.098Z" fill="white"/>
<path d="M1539.89 238.798L1539.29 238.198L1539.02 238.468L1539.62 239.068L1539.89 238.798Z" fill="white"/>
<path d="M1538.39 237.298L1538.99 237.898L1538.72 238.168L1538.12 237.568L1538.39 237.298Z" fill="white"/>
<path d="M250.941 44.2528C253.262 44.2528 255.143 42.3719 255.143 40.0518C255.143 37.7317 253.262 35.8507 250.941 35.8507C248.621 35.8507 246.74 37.7317 246.74 40.0518C246.74 42.3719 248.621 44.2528 250.941 44.2528Z" fill="white"/>
<path d="M290.08 83.7094C289.109 83.7094 288.321 84.497 288.321 85.4686C288.321 86.4402 289.109 87.2279 290.08 87.2279C291.052 87.2279 291.84 86.4402 291.84 85.4686C291.84 84.497 291.052 83.7094 290.08 83.7094Z" fill="white"/>
<path d="M664.256 123.389L666.571 114.902L675.059 112.587L666.571 110.272L664.256 101.785L661.941 110.272L653.453 112.587L661.941 114.902L664.256 123.389Z" fill="white"/>
<path d="M667.902 108.672L669.703 106.871L669.973 107.141L668.172 108.942L667.902 108.672Z" fill="white"/>
<path d="M670.603 105.971L670.003 106.571L670.273 106.841L670.873 106.241L670.603 105.971Z" fill="white"/>
<path d="M670.903 105.671L671.503 105.071L671.773 105.341L671.173 105.941L670.903 105.671Z" fill="white"/>
<path d="M658.359 118.213L660.16 116.413L660.43 116.683L658.63 118.483L658.359 118.213Z" fill="white"/>
<path d="M658.059 118.513L657.459 119.114L657.729 119.384L658.33 118.783L658.059 118.513Z" fill="white"/>
<path d="M656.559 120.014L657.159 119.414L657.429 119.684L656.829 120.284L656.559 120.014Z" fill="white"/>
<path d="M668.352 116.413L670.153 118.213L669.883 118.483L668.082 116.683L668.352 116.413Z" fill="white"/>
<path d="M671.053 119.113L670.453 118.513L670.183 118.783L670.783 119.383L671.053 119.113Z" fill="white"/>
<path d="M671.353 119.414L671.953 120.014L671.683 120.284L671.083 119.684L671.353 119.414Z" fill="white"/>
<path d="M658.809 106.871L660.61 108.672L660.34 108.942L658.539 107.141L658.809 106.871Z" fill="white"/>
<path d="M658.509 106.571L657.909 105.971L657.639 106.241L658.239 106.841L658.509 106.571Z" fill="white"/>
<path d="M657.009 105.071L657.609 105.671L657.339 105.941L656.739 105.341L657.009 105.071Z" fill="white"/>
<path d="M1066.61 324.063L1064.3 332.55L1061.98 324.063L1053.49 321.748L1061.98 319.434L1064.3 310.946L1066.61 319.434L1075.1 321.748L1066.61 324.063Z" fill="white"/>
<path d="M1069.74 316.033L1067.94 317.833L1068.21 318.103L1070.01 316.303L1069.74 316.033Z" fill="white"/>
<path d="M1070.04 315.733L1070.64 315.132L1070.91 315.402L1070.31 316.003L1070.04 315.733Z" fill="white"/>
<path d="M1071.54 314.232L1070.94 314.832L1071.21 315.102L1071.81 314.502L1071.54 314.232Z" fill="white"/>
<path d="M1060.2 325.574L1058.4 327.375L1058.67 327.645L1060.47 325.844L1060.2 325.574Z" fill="white"/>
<path d="M1057.5 328.275L1058.1 327.675L1058.37 327.945L1057.77 328.545L1057.5 328.275Z" fill="white"/>
<path d="M1057.2 328.575L1056.6 329.175L1056.87 329.445L1057.47 328.845L1057.2 328.575Z" fill="white"/>
<path d="M1070.19 327.375L1068.39 325.574L1068.12 325.844L1069.92 327.645L1070.19 327.375Z" fill="white"/>
<path d="M1070.49 327.675L1071.09 328.275L1070.82 328.545L1070.22 327.945L1070.49 327.675Z" fill="white"/>
<path d="M1071.99 329.175L1071.39 328.575L1071.12 328.845L1071.72 329.445L1071.99 329.175Z" fill="white"/>
<path d="M1060.65 317.833L1058.85 316.032L1058.58 316.303L1060.38 318.103L1060.65 317.833Z" fill="white"/>
<path d="M1057.95 315.132L1058.55 315.732L1058.28 316.002L1057.68 315.402L1057.95 315.132Z" fill="white"/>
<path d="M1057.65 314.832L1057.05 314.232L1056.78 314.502L1057.38 315.102L1057.65 314.832Z" fill="white"/>
<path d="M793.096 740.008L794.128 738.976L794.398 739.246L793.366 740.278L793.096 740.008Z" fill="white"/>
<path d="M794.644 738.459L794.3 738.803L794.57 739.073L794.914 738.729L794.644 738.459Z" fill="white"/>
<path d="M794.816 738.287L795.16 737.943L795.43 738.213L795.086 738.557L794.816 738.287Z" fill="white"/>
<path d="M787.623 745.48L788.655 744.447L788.925 744.717L787.893 745.75L787.623 745.48Z" fill="white"/>
<path d="M787.451 745.652L787.107 745.996L787.377 746.266L787.721 745.922L787.451 745.652Z" fill="white"/>
<path d="M786.59 746.512L786.934 746.168L787.204 746.438L786.86 746.782L786.59 746.512Z" fill="white"/>
<path d="M793.469 744.448L794.502 745.48L794.231 745.75L793.199 744.718L793.469 744.448Z" fill="white"/>
<path d="M795.018 745.996L794.674 745.652L794.404 745.922L794.748 746.266L795.018 745.996Z" fill="white"/>
<path d="M795.19 746.168L795.534 746.512L795.264 746.782L794.92 746.438L795.19 746.168Z" fill="white"/>
<path d="M787.997 738.976L789.03 740.009L788.76 740.279L787.727 739.246L787.997 738.976Z" fill="white"/>
<path d="M787.825 738.804L787.481 738.46L787.211 738.73L787.555 739.074L787.825 738.804Z" fill="white"/>
<path d="M786.964 737.944L787.308 738.288L787.038 738.558L786.694 738.214L786.964 737.944Z" fill="white"/>
<path d="M1519.36 544.283L1518.03 549.15L1516.7 544.283L1511.83 542.955L1516.7 541.628L1518.03 536.761L1519.36 541.628L1524.22 542.955L1519.36 544.283Z" fill="white"/>
<path d="M1521.09 539.62L1520.06 540.652L1520.33 540.922L1521.36 539.89L1521.09 539.62Z" fill="white"/>
<path d="M1521.27 539.447L1521.61 539.103L1521.88 539.373L1521.54 539.718L1521.27 539.447Z" fill="white"/>
<path d="M1522.13 538.587L1521.78 538.931L1522.05 539.201L1522.4 538.857L1522.13 538.587Z" fill="white"/>
<path d="M1515.62 545.091L1514.59 546.124L1514.86 546.394L1515.89 545.361L1515.62 545.091Z" fill="white"/>
<path d="M1514.07 546.64L1514.42 546.296L1514.69 546.566L1514.34 546.91L1514.07 546.64Z" fill="white"/>
<path d="M1513.9 546.812L1513.56 547.156L1513.83 547.426L1514.17 547.082L1513.9 546.812Z" fill="white"/>
<path d="M1521.47 546.124L1520.43 545.092L1520.16 545.362L1521.2 546.394L1521.47 546.124Z" fill="white"/>
<path d="M1521.64 546.296L1521.98 546.64L1521.71 546.91L1521.37 546.566L1521.64 546.296Z" fill="white"/>
<path d="M1522.5 547.156L1522.16 546.812L1521.89 547.082L1522.23 547.426L1522.5 547.156Z" fill="white"/>
<path d="M1516 540.653L1514.96 539.62L1514.69 539.89L1515.73 540.923L1516 540.653Z" fill="white"/>
<path d="M1514.45 539.104L1514.79 539.448L1514.52 539.718L1514.18 539.374L1514.45 539.104Z" fill="white"/>
<path d="M1514.27 538.932L1513.93 538.588L1513.66 538.858L1514 539.202L1514.27 538.932Z" fill="white"/>
</g>
<path opacity="0.1" d="M206.802 226.597L206.257 214.888L427.508 14.7412L219.192 227.142L206.802 226.597Z" fill="#E9E6ED"/>
<path fill-rule="evenodd" clip-rule="evenodd" d="M210.25 226.552L213.952 216.514L205.666 223.283L195.628 219.58L202.397 227.866L198.695 237.904L206.98 231.135L217.018 234.837L210.25 226.552ZM207.47 236.749L206.959 233.695L207.834 233.548L208.345 236.602L207.47 236.749ZM207.554 237.258L207.725 238.276L208.6 238.129L208.43 237.111L207.554 237.258ZM207.98 239.803L207.81 238.785L208.686 238.638L208.856 239.656L207.98 239.803ZM204.763 220.564L204.252 217.51L205.127 217.364L205.638 220.418L204.763 220.564ZM203.996 215.983L204.166 217.001L205.042 216.855L204.871 215.837L203.996 215.983ZM203.909 215.473L203.739 214.455L204.614 214.309L204.785 215.327L203.909 215.473ZM216.167 226.01L213.113 226.521L212.966 225.646L216.02 225.135L216.167 226.01ZM216.678 225.927L217.696 225.756L217.549 224.881L216.531 225.051L216.678 225.927ZM219.222 225.501L218.204 225.671L218.058 224.796L219.075 224.625L219.222 225.501ZM199.981 228.718L196.927 229.23L196.781 228.354L199.835 227.843L199.981 228.718ZM195.4 229.485L196.418 229.314L196.271 228.439L195.254 228.609L195.4 229.485ZM194.892 229.57L193.874 229.741L193.727 228.865L194.745 228.695L194.892 229.57Z" fill="white"/>
<path opacity="0.1" d="M374.788 495.622L374.636 492.364L615.942 266.354L378.235 495.773L374.788 495.622Z" fill="#E9E6ED"/>
<path fill-rule="evenodd" clip-rule="evenodd" d="M375.438 495.008L374.655 492.137L373.871 495.008L371 495.791L373.871 496.574L374.655 499.446L375.438 496.574L378.309 495.791L375.438 495.008ZM376.455 497.767L375.846 497.158L376.021 496.983L376.63 497.592L376.455 497.767ZM376.556 497.869L376.76 498.072L376.935 497.897L376.731 497.694L376.556 497.869ZM377.065 498.377L376.861 498.173L377.036 497.998L377.24 498.202L377.065 498.377ZM373.228 494.538L372.619 493.929L372.793 493.755L373.403 494.364L373.228 494.538ZM372.313 493.625L372.517 493.828L372.692 493.653L372.488 493.45L372.313 493.625ZM372.211 493.524L372.008 493.32L372.183 493.145L372.387 493.349L372.211 493.524ZM376.69 493.93L376.081 494.539L375.907 494.364L376.516 493.755L376.69 493.93ZM376.793 493.828L376.997 493.625L376.822 493.45L376.618 493.653L376.793 493.828ZM377.301 493.321L377.097 493.524L376.922 493.349L377.126 493.146L377.301 493.321ZM373.462 497.158L372.853 497.767L372.679 497.592L373.288 496.983L373.462 497.158ZM372.548 498.072L372.752 497.869L372.577 497.694L372.373 497.897L372.548 498.072ZM372.448 498.173L372.244 498.377L372.069 498.202L372.273 497.998L372.448 498.173Z" fill="white"/>
<path opacity="0.1" d="M1260.54 465.412L1260 453.703L1860.71 -124L1272.93 465.957L1260.54 465.412Z" fill="#E9E6ED"/>
<path fill-rule="evenodd" clip-rule="evenodd" d="M1263.87 457.512L1253.18 457.747L1262.51 462.975L1262.75 473.671L1267.97 464.337L1278.67 464.103L1269.34 458.874L1269.1 448.178L1263.87 457.512ZM1274.38 456.362L1271.73 457.956L1271.27 457.195L1273.92 455.601L1274.38 456.362ZM1274.82 456.097L1275.71 455.565L1275.25 454.804L1274.37 455.336L1274.82 456.097ZM1277.03 454.767L1276.15 455.299L1275.69 454.538L1276.58 454.006L1277.03 454.767ZM1260.31 464.812L1257.66 466.407L1257.2 465.646L1259.86 464.051L1260.31 464.812ZM1256.33 467.205L1257.22 466.673L1256.76 465.912L1255.88 466.444L1256.33 467.205ZM1255.89 467.472L1255.01 468.004L1254.55 467.243L1255.43 466.711L1255.89 467.472ZM1261.2 452.206L1262.8 454.86L1262.04 455.317L1260.44 452.663L1261.2 452.206ZM1260.94 451.761L1260.4 450.876L1259.64 451.333L1260.18 452.218L1260.94 451.761ZM1259.61 449.55L1260.14 450.434L1259.38 450.892L1258.85 450.007L1259.61 449.55ZM1269.65 466.272L1271.25 468.926L1270.49 469.384L1268.89 466.73L1269.65 466.272ZM1272.05 470.254L1271.51 469.369L1270.75 469.827L1271.28 470.711L1272.05 470.254ZM1272.31 470.696L1272.84 471.58L1272.08 472.038L1271.55 471.153L1272.31 470.696Z" fill="white"/>
<path opacity="0.1" d="M1002.08 132.911L1001.79 126.804L1095.2 44.4229L1008.53 133.196L1002.08 132.911Z" fill="#E9E6ED"/>
<path fill-rule="evenodd" clip-rule="evenodd" d="M1002.91 131.467L1000.58 126.403L1000.02 131.951L994.953 134.286L1000.5 134.845L1002.84 139.908L1003.39 134.361L1008.46 132.026L1002.91 131.467ZM1005.64 136.249L1004.33 135.312L1004.6 134.935L1005.91 135.872L1005.64 136.249ZM1005.86 136.405L1006.3 136.718L1006.57 136.341L1006.13 136.029L1005.86 136.405ZM1006.96 137.186L1006.52 136.874L1006.79 136.497L1007.23 136.81L1006.96 137.186ZM998.682 131.282L997.368 130.345L997.637 129.968L998.951 130.906L998.682 131.282ZM996.711 129.877L997.149 130.189L997.417 129.812L996.979 129.5L996.711 129.877ZM996.491 129.721L996.053 129.408L996.322 129.032L996.76 129.344L996.491 129.721ZM1004.89 129.087L1003.95 130.4L1003.58 130.132L1004.51 128.818L1004.89 129.087ZM1005.05 128.867L1005.36 128.429L1004.98 128.161L1004.67 128.599L1005.05 128.867ZM1005.83 127.773L1005.52 128.211L1005.14 127.942L1005.45 127.504L1005.83 127.773ZM999.925 136.049L998.988 137.363L998.611 137.094L999.548 135.781L999.925 136.049ZM998.519 138.02L998.831 137.582L998.454 137.314L998.142 137.751L998.519 138.02ZM998.363 138.239L998.051 138.677L997.674 138.408L997.986 137.97L998.363 138.239Z" fill="white"/>
<path opacity="0.1" d="M802 -21L477 286" stroke="url(#paint0_linear)" stroke-width="2"/>
<path opacity="0.1" d="M784 339L459 645" stroke="url(#paint1_linear)" stroke-width="2"/>
<path opacity="0.1" d="M1335 -91L1118 114" stroke="url(#paint2_linear)" stroke-width="2"/>
</g>
</g>
<defs>
<filter id="filter0_f" x="39" y="87.04" width="829.351" height="604.929" filterUnits="userSpaceOnUse" color-interpolation-filters="sRGB">
<feFlood flood-opacity="0" result="BackgroundImageFix"/>
<feBlend mode="normal" in="SourceGraphic" in2="BackgroundImageFix" result="shape"/>
<feGaussianBlur stdDeviation="10" result="effect1_foregroundBlur"/>
</filter>
<filter id="filter1_f" x="816.997" y="87.04" width="829.351" height="604.929" filterUnits="userSpaceOnUse" color-interpolation-filters="sRGB">
<feFlood flood-opacity="0" result="BackgroundImageFix"/>
<feBlend mode="normal" in="SourceGraphic" in2="BackgroundImageFix" result="shape"/>
<feGaussianBlur stdDeviation="10" result="effect1_foregroundBlur"/>
</filter>
<linearGradient id="paint0_linear" x1="494.564" y1="287.503" x2="767.857" y2="3.0356" gradientUnits="userSpaceOnUse">
<stop stop-color="#F6F5F8"/>
<stop offset="1" stop-color="#23024D"/>
</linearGradient>
<linearGradient id="paint1_linear" x1="476.564" y1="646.498" x2="748.929" y2="362.069" gradientUnits="userSpaceOnUse">
<stop stop-color="#F6F5F8"/>
<stop offset="1" stop-color="#23024D"/>
</linearGradient>
<linearGradient id="paint2_linear" x1="1129.73" y1="115.004" x2="1312.22" y2="-74.9337" gradientUnits="userSpaceOnUse">
<stop stop-color="#F6F5F8"/>
<stop offset="1" stop-color="#23024D"/>
</linearGradient>
</defs>
</svg>
