<svg width="41" height="34" viewBox="0 0 41 34" fill="none" xmlns="http://www.w3.org/2000/svg">
<path d="M35.0247 4.45719L30.2043 6.91656L6.92317 18.7352C6.8548 18.1204 6.82061 17.5397 6.82061 16.9249C6.82061 9.27347 13.0426 3.09088 20.7004 3.09088C23.0593 3.09088 25.384 3.70571 27.4352 4.83292L30.2043 3.43246L30.6146 3.2275C23.0593 -2.27193 12.4614 -0.564033 6.95736 6.98488C4.87197 9.88831 3.7438 13.3383 3.7438 16.9249C3.7438 17.3689 3.7438 17.7788 3.77799 18.2229C3.88055 19.4525 3.19682 20.6481 2.10284 21.1946L0.632812 21.9461V25.396L4.90615 23.2099L6.30781 22.4926L7.67528 21.8095L32.2214 9.30762L34.9905 7.90714L40.6997 5.00371V1.55377L35.0247 4.45719Z" fill="#8620B9"/>
<path d="M40.6655 8.48828L9.07693 24.5425L6.3078 25.943L0.632812 28.8464V32.2964L6.27362 29.4271L11.0939 26.9678L34.3751 15.1149C34.4435 15.7298 34.4777 16.3105 34.4777 16.9253C34.4777 24.5767 28.2557 30.7593 20.5979 30.7593C18.239 30.7593 15.8801 30.1444 13.8289 28.9831L13.6579 29.0855L10.6837 30.6227C18.239 36.1221 28.8369 34.4483 34.3409 26.8653C36.4263 23.9618 37.5545 20.5119 37.5545 16.9253C37.5545 16.4813 37.5545 16.0714 37.5203 15.6273C37.4177 14.3976 38.1015 13.2021 39.1954 12.6556L40.6655 11.9041V8.48828Z" fill="#8620B9"/>
</svg>
