<svg width="155" height="24" viewBox="0 0 155 24" fill="none" xmlns="http://www.w3.org/2000/svg">
    <path d="M10.72 16.832C10.72 16.1493 10.464 15.5947 9.952 15.168C9.46133 14.7413 8.832 14.3573 8.064 14.016C7.31733 13.6533 6.496 13.2907 5.6 12.928C4.72533 12.544 3.904 12.0853 3.136 11.552C2.38933 10.9973 1.76 10.3147 1.248 9.504C0.757333 8.69333 0.512 7.65867 0.512 6.4C0.512 5.312 0.693333 4.37333 1.056 3.584C1.41867 2.77333 1.93067 2.10133 2.592 1.568C3.27467 1.03467 4.07467 0.64 4.992 0.384001C5.90933 0.128 6.93333 0 8.064 0C9.36533 0 10.592 0.117334 11.744 0.352001C12.896 0.565334 13.8453 0.885334 14.592 1.312L13.216 4.992C12.7467 4.69333 12.0427 4.42667 11.104 4.192C10.1653 3.936 9.152 3.808 8.064 3.808C7.04 3.808 6.25067 4.01067 5.696 4.416C5.16267 4.82133 4.896 5.36533 4.896 6.048C4.896 6.688 5.14133 7.22133 5.632 7.648C6.144 8.07467 6.77333 8.46933 7.52 8.832C8.288 9.19467 9.10933 9.568 9.984 9.952C10.88 10.336 11.7013 10.8053 12.448 11.36C13.216 11.8933 13.8453 12.5653 14.336 13.376C14.848 14.1653 15.104 15.1573 15.104 16.352C15.104 17.5467 14.9013 18.5813 14.496 19.456C14.112 20.3093 13.5573 21.024 12.832 21.6C12.128 22.176 11.264 22.6027 10.24 22.88C9.23733 23.1573 8.128 23.296 6.912 23.296C5.312 23.296 3.904 23.1467 2.688 22.848C1.472 22.5493 0.576 22.2507 0 21.952L1.408 18.208C1.64267 18.336 1.94133 18.4747 2.304 18.624C2.688 18.7733 3.11467 18.912 3.584 19.04C4.05333 19.168 4.544 19.2747 5.056 19.36C5.58933 19.4453 6.13333 19.488 6.688 19.488C7.98933 19.488 8.98133 19.2747 9.664 18.848C10.368 18.4 10.72 17.728 10.72 16.832Z" fill="#23024D"/>
    <path d="M16.2647 6.848H18.4727V3.84L22.6327 2.656V6.848H26.5367V10.368H22.6327V16.512C22.6327 17.6213 22.7394 18.4213 22.9527 18.912C23.1874 19.3813 23.6141 19.616 24.2327 19.616C24.6594 19.616 25.0221 19.5733 25.3207 19.488C25.6407 19.4027 25.9927 19.2747 26.3767 19.104L27.1127 22.304C26.5367 22.5813 25.8647 22.816 25.0968 23.008C24.3288 23.2 23.5501 23.296 22.7607 23.296C21.2887 23.296 20.2008 22.9227 19.4967 22.176C18.8141 21.408 18.4727 20.16 18.4727 18.432V10.368H16.2647V6.848Z" fill="#23024D"/>
    <path d="M41.7288 21.472C41.0888 21.984 40.2141 22.4213 39.1048 22.784C38.0168 23.1253 36.8541 23.296 35.6168 23.296C33.0354 23.296 31.1474 22.5493 29.9527 21.056C28.7581 19.5413 28.1607 17.472 28.1607 14.848C28.1607 12.032 28.8328 9.92 30.1768 8.512C31.5208 7.104 33.4088 6.4 35.8408 6.4C36.6514 6.4 37.4408 6.50667 38.2088 6.72C38.9768 6.93333 39.6594 7.28533 40.2568 7.776C40.8541 8.26667 41.3341 8.928 41.6968 9.76C42.0594 10.592 42.2408 11.6267 42.2408 12.864C42.2408 13.312 42.2088 13.792 42.1448 14.304C42.1021 14.816 42.0274 15.3493 41.9208 15.904H32.3208C32.3848 17.248 32.7261 18.2613 33.3448 18.944C33.9848 19.6267 35.0088 19.968 36.4168 19.968C37.2914 19.968 38.0701 19.84 38.7528 19.584C39.4568 19.3067 39.9901 19.0293 40.3528 18.752L41.7288 21.472ZM35.7768 9.728C34.6888 9.728 33.8781 10.0587 33.3448 10.72C32.8328 11.36 32.5234 12.224 32.4168 13.312H38.3688C38.4541 12.16 38.2728 11.2747 37.8248 10.656C37.3981 10.0373 36.7154 9.728 35.7768 9.728Z" fill="#23024D"/>
    <path d="M49.4668 17.472C49.4668 18.2187 49.5628 18.7627 49.7548 19.104C49.9468 19.4453 50.2561 19.616 50.6828 19.616C50.9388 19.616 51.1841 19.5947 51.4188 19.552C51.6748 19.5093 51.9841 19.4133 52.3468 19.264L52.7948 22.528C52.4534 22.6987 51.9308 22.8693 51.2268 23.04C50.5228 23.2107 49.7974 23.296 49.0508 23.296C47.8348 23.296 46.9067 23.0187 46.2668 22.464C45.6268 21.888 45.3068 20.9493 45.3068 19.648V0.448H49.4668V17.472Z" fill="#23024D"/>
    <path d="M58.873 17.472C58.873 18.2187 58.969 18.7627 59.161 19.104C59.353 19.4453 59.6623 19.616 60.089 19.616C60.345 19.616 60.5903 19.5947 60.825 19.552C61.081 19.5093 61.3903 19.4133 61.753 19.264L62.201 22.528C61.8597 22.6987 61.337 22.8693 60.633 23.04C59.929 23.2107 59.2037 23.296 58.457 23.296C57.241 23.296 56.313 23.0187 55.673 22.464C55.033 21.888 54.713 20.9493 54.713 19.648V0.448H58.873V17.472Z" fill="#23024D"/>
    <path d="M63.8952 7.776C64.7486 7.392 65.7619 7.09333 66.9352 6.88C68.1086 6.64533 69.3353 6.528 70.6152 6.528C71.7246 6.528 72.6526 6.66667 73.3993 6.944C74.1459 7.2 74.7326 7.57333 75.1593 8.064C75.6073 8.55467 75.9166 9.14133 76.0872 9.824C76.2793 10.5067 76.3753 11.2747 76.3753 12.128C76.3753 13.0667 76.3433 14.016 76.2793 14.976C76.2152 15.9147 76.1726 16.8427 76.1513 17.76C76.1513 18.6773 76.1833 19.5733 76.2473 20.448C76.3113 21.3013 76.4713 22.112 76.7272 22.88H73.3353L72.6633 20.672H72.5033C72.0766 21.3333 71.4792 21.9093 70.7113 22.4C69.9646 22.8693 68.9939 23.104 67.7993 23.104C67.0526 23.104 66.3806 22.9973 65.7832 22.784C65.1859 22.5493 64.6739 22.2293 64.2473 21.824C63.8206 21.3973 63.4899 20.9067 63.2552 20.352C63.0206 19.776 62.9033 19.136 62.9033 18.432C62.9033 17.4507 63.1166 16.6293 63.5433 15.968C63.9913 15.2853 64.6206 14.7413 65.4313 14.336C66.2633 13.9093 67.2446 13.6213 68.3753 13.472C69.5273 13.3013 70.8073 13.248 72.2153 13.312C72.3646 12.1173 72.2793 11.264 71.9593 10.752C71.6393 10.2187 70.9246 9.952 69.8153 9.952C68.9833 9.952 68.0979 10.0373 67.1592 10.208C66.2419 10.3787 65.4846 10.6027 64.8873 10.88L63.8952 7.776ZM69.1753 19.68C70.0073 19.68 70.6686 19.4987 71.1593 19.136C71.6499 18.752 72.0126 18.3467 72.2473 17.92V15.84C71.5859 15.776 70.9459 15.7653 70.3273 15.808C69.7299 15.8507 69.1966 15.9467 68.7272 16.096C68.2579 16.2453 67.8846 16.4587 67.6073 16.736C67.3299 17.0133 67.1913 17.3653 67.1913 17.792C67.1913 18.3893 67.3619 18.8587 67.7033 19.2C68.0659 19.52 68.5566 19.68 69.1753 19.68Z" fill="#23024D"/>
    <path d="M88.6982 10.752C88.0369 10.5173 87.4396 10.4 86.9062 10.4C86.1596 10.4 85.5303 10.6027 85.0182 11.008C84.5276 11.392 84.1969 11.8933 84.0263 12.512V22.848H79.8662V6.848H83.0983L83.5783 8.96H83.7063C84.0689 8.17067 84.5596 7.56267 85.1783 7.136C85.7969 6.70933 86.5222 6.496 87.3542 6.496C87.9089 6.496 88.5382 6.61333 89.2422 6.848L88.6982 10.752Z" fill="#23024D"/>
    <path d="M107.085 4.352H100.557V22.848H96.173V4.352H89.613V0.448H107.085V4.352Z" fill="#23024D"/>
    <path d="M117.979 21.472C117.339 21.984 116.464 22.4213 115.355 22.784C114.267 23.1253 113.104 23.296 111.867 23.296C109.285 23.296 107.397 22.5493 106.203 21.056C105.008 19.5413 104.411 17.472 104.411 14.848C104.411 12.032 105.083 9.92 106.427 8.512C107.771 7.104 109.659 6.4 112.091 6.4C112.901 6.4 113.691 6.50667 114.459 6.72C115.227 6.93333 115.909 7.28533 116.507 7.776C117.104 8.26667 117.584 8.928 117.947 9.76C118.309 10.592 118.491 11.6267 118.491 12.864C118.491 13.312 118.459 13.792 118.395 14.304C118.352 14.816 118.277 15.3493 118.171 15.904H108.571C108.635 17.248 108.976 18.2613 109.595 18.944C110.235 19.6267 111.259 19.968 112.667 19.968C113.541 19.968 114.32 19.84 115.003 19.584C115.707 19.3067 116.24 19.0293 116.603 18.752L117.979 21.472ZM112.027 9.728C110.939 9.728 110.128 10.0587 109.595 10.72C109.083 11.36 108.773 12.224 108.667 13.312H114.619C114.704 12.16 114.523 11.2747 114.075 10.656C113.648 10.0373 112.965 9.728 112.027 9.728Z" fill="#23024D"/>
    <path d="M130.261 10.752C129.599 10.5173 129.002 10.4 128.469 10.4C127.722 10.4 127.093 10.6027 126.581 11.008C126.09 11.392 125.759 11.8933 125.589 12.512V22.848H121.429V6.848H124.661L125.141 8.96H125.269C125.631 8.17067 126.122 7.56267 126.741 7.136C127.359 6.70933 128.085 6.496 128.917 6.496C129.471 6.496 130.101 6.61333 130.805 6.848L130.261 10.752Z" fill="#23024D"/>
    <path d="M141.736 22.848V14.144C141.736 12.672 141.597 11.6267 141.32 11.008C141.042 10.3893 140.466 10.08 139.592 10.08C138.866 10.08 138.279 10.2827 137.831 10.688C137.383 11.072 137.042 11.5733 136.807 12.192V22.848H132.648V6.848H135.88L136.359 8.96H136.488C136.978 8.27733 137.597 7.68 138.344 7.168C139.112 6.656 140.093 6.4 141.288 6.4C142.312 6.4 143.144 6.61333 143.784 7.04C144.445 7.44533 144.957 8.13867 145.32 9.12C145.81 8.288 146.439 7.62667 147.208 7.136C147.976 6.64533 148.904 6.4 149.992 6.4C150.887 6.4 151.645 6.50667 152.264 6.72C152.904 6.93333 153.415 7.30667 153.799 7.84C154.205 8.352 154.504 9.04533 154.696 9.92C154.888 10.7947 154.984 11.904 154.984 13.248V22.848H150.824V13.856C150.824 12.5973 150.685 11.6587 150.408 11.04C150.152 10.4 149.565 10.08 148.648 10.08C147.901 10.08 147.303 10.2827 146.855 10.688C146.429 11.0933 146.109 11.648 145.896 12.352V22.848H141.736Z" fill="#23024D"/>
</svg>
