<svg width="128" height="25" viewBox="0 0 128 25" fill="none" xmlns="http://www.w3.org/2000/svg">
    <path d="M23.0846 0V5.99987H25.532V10.0699H23.0846V24.5175H17.5715V10.0699H15.2286V5.99987H17.5715V0H23.0856H23.0846ZM35.4118 5.44834C41.3045 5.44834 45.3366 9.69001 45.3366 16.5868V17.1728H31.3787C31.8619 19.1383 33.2739 20.1723 35.6524 20.1723C36.7548 20.1723 37.6511 19.8625 38.4784 19.1383H44.4747C42.682 23 39.6154 24.9655 35.4798 24.9655C32.6537 24.9655 30.3799 24.0005 28.4836 22.0006C26.6919 20.1032 25.7621 17.7589 25.7621 15.1384C25.7621 12.5523 26.761 10.1725 28.5872 8.34519C30.4489 6.48233 32.8953 5.44834 35.4118 5.44834ZM31.2072 13.3111H39.857C39.2012 11.4137 37.6511 10.3797 35.4798 10.3797C33.2049 10.3797 31.5858 11.5518 31.2061 13.31L31.2072 13.3111ZM47.6125 24.5175V0H53.023V24.5175H47.6125ZM56.5101 24.5175V0H61.9186V24.5175H56.5112H56.5101ZM78.5749 8.0689V6.00092H84.02V24.5175H78.7486V22.4496C77.1274 24.0351 75.4748 24.6211 73.2679 24.6211C71.0286 24.6211 69.0989 23.8969 67.4777 22.4496C65.3419 20.5522 64.2385 18.0687 64.2385 15.1729C64.2385 12.5167 65.2729 10.1379 67.2026 8.27612C68.9263 6.58594 71.0286 5.72463 73.3715 5.72463C75.6118 5.72463 77.3355 6.48233 78.5749 8.0689ZM74.4749 19.6898C76.8178 19.6898 78.782 17.7589 78.782 15.2074C78.782 12.5523 76.8178 10.5513 74.2678 10.5513C71.6833 10.5513 69.6835 12.6549 69.6835 15.1384C69.6835 17.7233 71.6833 19.6908 74.4739 19.6908L74.4749 19.6898ZM87.3126 24.5175V6.00092H92.8267V24.5175H87.3126ZM98.2268 5.72463C99.1985 5.72463 100.13 6.11088 100.818 6.7984C101.505 7.48592 101.891 8.4184 101.891 9.3907C101.891 10.363 101.505 11.2955 100.818 11.983C100.13 12.6705 99.1985 13.0568 98.2268 13.0568C97.2551 13.0568 96.3231 12.6705 95.636 11.983C94.9489 11.2955 94.5629 10.363 94.5629 9.3907C94.5629 8.4184 94.9489 7.48592 95.636 6.7984C96.3231 6.11088 97.2551 5.72463 98.2268 5.72463ZM114.81 15.3205L108.357 5.99987H115.009L118.179 10.5199L119.494 8.64555L121.35 5.99987H128L126.169 8.64555L124.872 10.5189H118.179L118.72 11.2912L120.576 13.9359L128 24.5175H121.178L118.179 20.1848L117.01 21.8719L115.179 24.5175H108.357L110.213 21.8719L114.81 15.3205ZM8.78784 13.0348C12.5783 14.0698 14.4735 15.5172 14.4735 18.5867C14.4735 22.3104 11.5449 25 7.06416 25C2.92858 25 0.378624 22.7593 0 19.0001H5.13548V19.1728C5.13548 20.2068 5.96176 20.931 7.13319 20.931C8.30567 20.931 8.99493 20.3449 8.99493 19.3109C8.99493 17.7935 7.51286 17.8625 5.20346 17.1383C1.99876 16.1378 0.447655 14.4141 0.447655 11.6209C0.447655 7.99983 3.10116 5.44834 7.51286 5.44834C11.3378 5.44834 13.7842 7.62098 13.9924 11.1384H9.06396C8.85687 9.93072 8.40817 9.41372 7.44383 9.41372C6.3749 9.41372 5.75571 10.0343 5.75571 10.9312C5.75571 12.208 6.89263 12.5167 8.78784 13.0348Z" fill="#25044F"/>
</svg>
