<svg width="1771" height="645" viewBox="0 0 1771 645" fill="none" xmlns="http://www.w3.org/2000/svg">
    <mask id="mask0" mask-type="alpha" maskUnits="userSpaceOnUse" x="0" y="0" width="1771" height="645">
        <rect width="1771" height="645" fill="#5F0E8E"/>
    </mask>
    <g mask="url(#mask0)">
        <circle opacity="0.1" cx="1521.62" cy="313.826" r="2.13192" fill="white"/>
        <path d="M1612.83 474.612L1614.09 479.237L1614.16 479.512L1614.44 479.587L1619.06 480.849L1614.44 482.11L1614.16 482.185L1614.09 482.461L1612.83 487.085L1611.57 482.461L1611.49 482.185L1611.22 482.11L1606.59 480.849L1611.22 479.587L1611.49 479.512L1611.57 479.237L1612.83 474.612Z" fill="white" stroke="#370954"/>
        <path d="M1615.68 483.696L1617.03 485.052" stroke="#370954"/>
        <path d="M1617.26 485.278L1617.71 485.73" stroke="#370954"/>
        <path d="M1617.94 485.956L1618.39 486.408" stroke="#370954"/>
        <path d="M1609.84 477.866L1608.49 476.51" stroke="#370954"/>
        <path d="M1608.26 476.283L1607.81 475.831" stroke="#370954"/>
        <path d="M1607.58 475.605L1607.13 475.153" stroke="#370954"/>
        <path d="M1615.81 477.866L1617.17 476.51" stroke="#370954"/>
        <path d="M1617.39 476.284L1617.85 475.832" stroke="#370954"/>
        <path d="M1618.07 475.606L1618.52 475.154" stroke="#370954"/>
        <path d="M1609.98 483.697L1608.62 485.053" stroke="#370954"/>
        <path d="M1608.4 485.279L1607.95 485.731" stroke="#370954"/>
        <path d="M1607.72 485.957L1607.27 486.409" stroke="#370954"/>
        <path d="M724.143 11.0282L725.404 15.6525L725.479 15.9282L725.755 16.0034L730.379 17.2645L725.755 18.5257L725.479 18.6009L725.404 18.8766L724.143 23.5009L722.881 18.8766L722.806 18.6009L722.531 18.5257L717.906 17.2645L722.531 16.0034L722.806 15.9282L722.881 15.6525L724.143 11.0282Z" fill="white" stroke="#370954"/>
        <path d="M726.993 20.1113L728.349 21.4674" stroke="#370954"/>
        <path d="M728.574 21.6934L729.026 22.1454" stroke="#370954"/>
        <path d="M729.251 22.3711L729.703 22.8231" stroke="#370954"/>
        <path d="M721.162 14.2803L719.806 12.9242" stroke="#370954"/>
        <path d="M719.58 12.6982L719.128 12.2462" stroke="#370954"/>
        <path d="M718.901 12.0195L718.449 11.5675" stroke="#370954"/>
        <path d="M727.127 14.2812L728.483 12.9251" stroke="#370954"/>
        <path d="M728.71 12.6992L729.162 12.2472" stroke="#370954"/>
        <path d="M729.388 12.0215L729.84 11.5694" stroke="#370954"/>
        <path d="M721.297 20.1123L719.941 21.4684" stroke="#370954"/>
        <path d="M719.714 21.6943L719.262 22.1464" stroke="#370954"/>
        <path d="M719.034 22.3721L718.582 22.8241" stroke="#370954"/>
        <path d="M1070.56 595.155L1071.82 599.779L1071.9 600.055L1072.17 600.13L1076.8 601.392L1072.17 602.653L1071.9 602.728L1071.82 603.004L1070.56 607.628L1069.3 603.004L1069.22 602.728L1068.95 602.653L1064.32 601.392L1068.95 600.13L1069.22 600.055L1069.3 599.779L1070.56 595.155Z" fill="white" stroke="#370954"/>
        <path d="M1073.41 604.241L1074.77 605.597" stroke="#370954"/>
        <path d="M1074.99 605.822L1075.45 606.274" stroke="#370954"/>
        <path d="M1075.67 606.5L1076.12 606.952" stroke="#370954"/>
        <path d="M1067.58 598.408L1066.22 597.052" stroke="#370954"/>
        <path d="M1066 596.825L1065.55 596.373" stroke="#370954"/>
        <path d="M1065.32 596.147L1064.87 595.695" stroke="#370954"/>
        <path d="M1073.55 598.407L1074.9 597.051" stroke="#370954"/>
        <path d="M1075.13 596.825L1075.58 596.373" stroke="#370954"/>
        <path d="M1075.81 596.147L1076.26 595.695" stroke="#370954"/>
        <path d="M1067.72 604.239L1066.36 605.595" stroke="#370954"/>
        <path d="M1066.13 605.821L1065.68 606.273" stroke="#370954"/>
        <path d="M1065.45 606.499L1065 606.951" stroke="#370954"/>
        <path d="M1263.9 39.0312L1267.09 50.716L1267.16 50.9916L1267.44 51.0668L1279.12 54.2536L1267.44 57.4403L1267.16 57.5155L1267.09 57.7912L1263.9 69.476L1260.71 57.7912L1260.64 57.5155L1260.36 57.4403L1248.68 54.2536L1260.36 51.0668L1260.64 50.9916L1260.71 50.716L1263.9 39.0312Z" fill="white" stroke="#370954"/>
        <path d="M1269.89 60.2461L1272.75 63.0999" stroke="#370954"/>
        <path d="M1273.22 63.5762L1274.17 64.5274" stroke="#370954"/>
        <path d="M1274.65 65.002L1275.6 65.9532" stroke="#370954"/>
        <path d="M1257.62 47.9746L1254.77 45.1208" stroke="#370954"/>
        <path d="M1254.29 44.6455L1253.34 43.6942" stroke="#370954"/>
        <path d="M1252.86 43.2188L1251.91 42.2675" stroke="#370954"/>
        <path d="M1270.17 47.9756L1273.03 45.1218" stroke="#370954"/>
        <path d="M1273.51 44.6465L1274.46 43.6952" stroke="#370954"/>
        <path d="M1274.93 43.2197L1275.88 42.2685" stroke="#370954"/>
        <path d="M1257.91 60.2461L1255.05 63.0999" stroke="#370954"/>
        <path d="M1254.58 63.5752L1253.62 64.5265" stroke="#370954"/>
        <path d="M1253.15 65.002L1252.2 65.9532" stroke="#370954"/>
        <path d="M383.994 115.75L387.181 127.435L387.256 127.71L387.532 127.786L399.217 130.972L387.532 134.159L387.256 134.234L387.181 134.51L383.994 146.195L380.807 134.51L380.732 134.234L380.457 134.159L368.772 130.972L380.457 127.786L380.732 127.71L380.807 127.435L383.994 115.75Z" fill="white" stroke="#370954"/>
        <path d="M389.987 136.965L392.841 139.819" stroke="#370954"/>
        <path d="M393.314 140.295L394.266 141.246" stroke="#370954"/>
        <path d="M394.742 141.721L395.693 142.672" stroke="#370954"/>
        <path d="M377.716 124.693L374.862 121.84" stroke="#370954"/>
        <path d="M374.386 121.364L373.434 120.413" stroke="#370954"/>
        <path d="M372.958 119.938L372.007 118.986" stroke="#370954"/>
        <path d="M390.27 124.694L393.123 121.841" stroke="#370954"/>
        <path d="M393.601 121.365L394.552 120.414" stroke="#370954"/>
        <path d="M395.028 119.938L395.98 118.987" stroke="#370954"/>
        <path d="M378 136.965L375.146 139.819" stroke="#370954"/>
        <path d="M374.67 140.294L373.719 141.245" stroke="#370954"/>
        <path d="M373.244 141.721L372.293 142.672" stroke="#370954"/>
        <circle cx="1264.97" cy="410.665" r="2.6649" fill="white"/>
        <circle cx="174.972" cy="289.665" r="2.6649" fill="white"/>
        <circle cx="1701.97" cy="568.665" r="2.6649" fill="white"/>
        <circle cx="844.807" cy="209.5" r="0.5" fill="white"/>
        <circle cx="913.807" cy="159.5" r="1.5" fill="white"/>
        <circle cx="1458.2" cy="355.932" r="2.6649" fill="white"/>
        <circle cx="1305.77" cy="484.914" r="2.6649" stroke="white"/>
        <circle cx="1181.59" cy="69.7218" r="2.13192" fill="white"/>
        <circle cx="1500.31" cy="370.323" r="2.69788" fill="white" stroke="#370954"/>
        <circle cx="560.505" cy="270.198" r="2.69788" fill="white" stroke="#370954"/>
        <circle cx="1246.61" cy="343.673" r="2.69788" fill="white" stroke="#370954"/>
        <circle cx="1219.96" cy="238.144" r="2.69788" fill="white" stroke="#370954"/>
        <circle cx="1439.55" cy="177.384" r="2.69788" fill="white" stroke="#370954"/>
        <circle cx="1458.28" cy="445.973" r="2.47337" fill="white" stroke="#370954"/>
        <circle cx="1306.3" cy="431.083" r="2.69788" fill="white" stroke="#370954"/>
        <circle cx="1405.44" cy="227.484" r="2.69788" fill="white" stroke="#370954"/>
        <circle cx="1601.57" cy="275.453" r="2.69788" fill="white" stroke="#370954"/>
        <g opacity="0.2">
            <circle opacity="0.1" cx="285.376" cy="298.41" r="2.13192" transform="rotate(-180 285.376 298.41)" fill="white"/>
            <path d="M194.173 137.624L192.912 133L192.836 132.724L192.561 132.649L187.937 131.388L192.561 130.127L192.836 130.051L192.912 129.776L194.173 125.151L195.434 129.776L195.509 130.051L195.785 130.127L200.409 131.388L195.785 132.649L195.509 132.724L195.434 133L194.173 137.624Z" fill="white" stroke="#1127E9"/>
            <path d="M191.324 128.54L189.968 127.184" stroke="#1127E9"/>
            <path d="M189.74 126.958L189.288 126.506" stroke="#1127E9"/>
            <path d="M189.064 126.28L188.612 125.828" stroke="#1127E9"/>
            <path d="M197.155 134.37L198.511 135.726" stroke="#1127E9"/>
            <path d="M198.737 135.953L199.189 136.405" stroke="#1127E9"/>
            <path d="M199.415 136.631L199.867 137.083" stroke="#1127E9"/>
            <path d="M191.189 134.37L189.833 135.726" stroke="#1127E9"/>
            <path d="M189.606 135.952L189.154 136.404" stroke="#1127E9"/>
            <path d="M188.929 136.63L188.477 137.082" stroke="#1127E9"/>
            <path d="M197.02 128.539L198.376 127.183" stroke="#1127E9"/>
            <path d="M198.603 126.957L199.055 126.505" stroke="#1127E9"/>
            <path d="M199.282 126.279L199.734 125.827" stroke="#1127E9"/>
            <path d="M1082.86 601.208L1081.6 596.584L1081.52 596.308L1081.25 596.233L1076.62 594.972L1081.25 593.711L1081.52 593.635L1081.6 593.36L1082.86 588.735L1084.12 593.36L1084.19 593.635L1084.47 593.711L1089.09 594.972L1084.47 596.233L1084.19 596.308L1084.12 596.584L1082.86 601.208Z" fill="white" stroke="#1127E9"/>
            <path d="M1080.01 592.125L1078.65 590.769" stroke="#1127E9"/>
            <path d="M1078.43 590.543L1077.97 590.091" stroke="#1127E9"/>
            <path d="M1077.75 589.865L1077.3 589.413" stroke="#1127E9"/>
            <path d="M1085.84 597.956L1087.19 599.312" stroke="#1127E9"/>
            <path d="M1087.42 599.538L1087.87 599.99" stroke="#1127E9"/>
            <path d="M1088.1 600.217L1088.55 600.669" stroke="#1127E9"/>
            <path d="M1079.87 597.955L1078.52 599.311" stroke="#1127E9"/>
            <path d="M1078.29 599.537L1077.84 599.989" stroke="#1127E9"/>
            <path d="M1077.61 600.215L1077.16 600.667" stroke="#1127E9"/>
            <path d="M1085.7 592.124L1087.06 590.768" stroke="#1127E9"/>
            <path d="M1087.29 590.542L1087.74 590.09" stroke="#1127E9"/>
            <path d="M1087.97 589.864L1088.42 589.412" stroke="#1127E9"/>
            <path d="M736.439 17.0812L735.178 12.4568L735.103 12.1812L734.827 12.106L730.203 10.8448L734.827 9.58365L735.103 9.50847L735.178 9.23282L736.439 4.6085L737.701 9.23282L737.776 9.50847L738.051 9.58365L742.676 10.8448L738.051 12.106L737.776 12.1812L737.701 12.4568L736.439 17.0812Z" fill="white" stroke="#1127E9"/>
            <path d="M733.591 7.99512L732.235 6.63901" stroke="#1127E9"/>
            <path d="M732.006 6.41406L731.554 5.96203" stroke="#1127E9"/>
            <path d="M731.331 5.73633L730.879 5.28429" stroke="#1127E9"/>
            <path d="M739.421 13.8281L740.777 15.1842" stroke="#1127E9"/>
            <path d="M741.003 15.4111L741.455 15.8632" stroke="#1127E9"/>
            <path d="M741.681 16.0889L742.133 16.5409" stroke="#1127E9"/>
            <path d="M733.454 13.8291L732.098 15.1852" stroke="#1127E9"/>
            <path d="M731.872 15.4111L731.42 15.8632" stroke="#1127E9"/>
            <path d="M731.193 16.0889L730.741 16.5409" stroke="#1127E9"/>
            <path d="M739.284 7.99707L740.64 6.64097" stroke="#1127E9"/>
            <path d="M740.867 6.41504L741.319 5.963" stroke="#1127E9"/>
            <path d="M741.547 5.7373L741.999 5.28527" stroke="#1127E9"/>
            <path d="M543.101 573.205L539.914 561.52L539.839 561.245L539.563 561.17L527.878 557.983L539.563 554.796L539.839 554.721L539.914 554.445L543.101 542.76L546.287 554.445L546.363 554.721L546.638 554.796L558.323 557.983L546.638 561.17L546.363 561.245L546.287 561.52L543.101 573.205Z" fill="white" stroke="#1127E9"/>
            <path d="M537.107 551.99L534.254 549.136" stroke="#1127E9"/>
            <path d="M533.78 548.66L532.829 547.709" stroke="#1127E9"/>
            <path d="M532.353 547.234L531.401 546.283" stroke="#1127E9"/>
            <path d="M549.379 564.262L552.233 567.116" stroke="#1127E9"/>
            <path d="M552.709 567.591L553.66 568.542" stroke="#1127E9"/>
            <path d="M554.137 569.018L555.088 569.969" stroke="#1127E9"/>
            <path d="M536.825 564.261L533.971 567.115" stroke="#1127E9"/>
            <path d="M533.494 567.59L532.543 568.541" stroke="#1127E9"/>
            <path d="M532.066 569.017L531.115 569.968" stroke="#1127E9"/>
            <path d="M549.095 551.99L551.949 549.136" stroke="#1127E9"/>
            <path d="M552.425 548.661L553.376 547.71" stroke="#1127E9"/>
            <path d="M553.851 547.234L554.802 546.283" stroke="#1127E9"/>
            <path d="M1423.01 496.486L1419.82 484.802L1419.74 484.526L1419.47 484.451L1407.78 481.264L1419.47 478.077L1419.74 478.002L1419.82 477.726L1423.01 466.042L1426.19 477.726L1426.27 478.002L1426.54 478.077L1438.23 481.264L1426.54 484.451L1426.27 484.526L1426.19 484.802L1423.01 496.486Z" fill="white" stroke="#1127E9"/>
            <path d="M1417.01 475.271L1414.16 472.418" stroke="#1127E9"/>
            <path d="M1413.69 471.941L1412.73 470.99" stroke="#1127E9"/>
            <path d="M1412.26 470.516L1411.31 469.564" stroke="#1127E9"/>
            <path d="M1429.28 487.543L1432.14 490.397" stroke="#1127E9"/>
            <path d="M1432.61 490.872L1433.57 491.823" stroke="#1127E9"/>
            <path d="M1434.04 492.299L1434.99 493.25" stroke="#1127E9"/>
            <path d="M1416.73 487.542L1413.88 490.396" stroke="#1127E9"/>
            <path d="M1413.4 490.871L1412.45 491.822" stroke="#1127E9"/>
            <path d="M1411.97 492.298L1411.02 493.249" stroke="#1127E9"/>
            <path d="M1429 475.271L1431.85 472.418" stroke="#1127E9"/>
            <path d="M1432.33 471.942L1433.28 470.991" stroke="#1127E9"/>
            <path d="M1433.76 470.516L1434.71 469.564" stroke="#1127E9"/>
            <circle cx="542.028" cy="201.571" r="2.6649" transform="rotate(-180 542.028 201.571)" fill="white"/>
            <circle cx="1632.03" cy="322.571" r="2.6649" transform="rotate(-180 1632.03 322.571)" fill="white"/>
            <circle cx="105.028" cy="43.5714" r="2.6649" transform="rotate(-180 105.028 43.5714)" fill="white"/>
            <circle cx="962.193" cy="402.736" r="0.5" transform="rotate(-180 962.193 402.736)" fill="white"/>
            <circle cx="893.193" cy="452.736" r="1.5" transform="rotate(-180 893.193 452.736)" fill="white"/>
            <circle cx="348.8" cy="256.304" r="2.6649" transform="rotate(-180 348.8 256.304)" fill="white"/>
            <circle cx="501.232" cy="127.322" r="2.6649" transform="rotate(-180 501.232 127.322)" stroke="white"/>
            <circle cx="625.415" cy="542.515" r="2.13192" transform="rotate(-180 625.415 542.515)" fill="white"/>
            <circle cx="306.694" cy="241.913" r="2.69788" transform="rotate(-180 306.694 241.913)" fill="white" stroke="#1127E9"/>
            <circle cx="1246.5" cy="342.038" r="2.69788" transform="rotate(-180 1246.5 342.038)" fill="white" stroke="#1127E9"/>
            <circle cx="560.392" cy="268.563" r="2.69788" transform="rotate(-180 560.392 268.563)" fill="white" stroke="#1127E9"/>
            <circle cx="587.042" cy="374.092" r="2.69788" transform="rotate(-180 587.042 374.092)" fill="white" stroke="#1127E9"/>
            <circle cx="367.453" cy="434.852" r="2.69788" transform="rotate(-180 367.453 434.852)" fill="white" stroke="#1127E9"/>
            <circle cx="1510.36" cy="620.372" r="2.69788" transform="rotate(-180 1510.36 620.372)" fill="white" stroke="#1127E9"/>
            <circle cx="348.72" cy="166.263" r="2.47337" transform="rotate(-180 348.72 166.263)" fill="white" stroke="#1127E9"/>
            <circle cx="500.699" cy="181.154" r="2.69788" transform="rotate(-180 500.699 181.154)" fill="white" stroke="#1127E9"/>
            <circle cx="401.565" cy="384.752" r="2.69788" transform="rotate(-180 401.565 384.752)" fill="white" stroke="#1127E9"/>
            <circle cx="205.427" cy="336.784" r="2.69788" transform="rotate(-180 205.427 336.784)" fill="white" stroke="#1127E9"/>
        </g>
    </g>
</svg>
