<svg width="91" height="12" viewBox="0 0 91 12" fill="none" xmlns="http://www.w3.org/2000/svg">
  <path d="M0.0400001 10.08V0.799999H2.216V9.328L3.032 10.144H6.168L6.984 9.328V0.799999H9.16V10.08L7.24 12H1.96L0.0400001 10.08ZM11.2431 0.575999H13.3551V12H11.2431V0.575999ZM16.0706 10.368V5.808H14.6306V4.032H16.1026V1.44H18.1826V4.032H20.6146V5.824H18.1826V9.68L18.7266 10.208H20.6146V12H17.7186L16.0706 10.368ZM21.9756 4.032H23.9276V5.36L25.2076 4.032H27.4796V5.824H25.6396L24.0876 7.424V12H21.9756V4.032ZM27.8763 10.528V8.704L29.3483 7.232H33.3963V6.224L32.9003 5.728H30.5003L30.0203 6.224V6.672H27.9403V5.76L29.6523 4.032H33.7643L35.4763 5.76V12H33.5723V10.864L32.3883 12H29.3483L27.8763 10.528ZM32.2443 10.368L33.3963 9.264V8.736H30.3883L29.9563 9.168V9.968L30.3563 10.368H32.2443ZM41.5188 10.272V8.672H43.6628V9.616L44.1908 10.144H47.5028L48.0468 9.6V7.744L47.5188 7.216H43.2788L41.5508 5.488V2.528L43.2788 0.799999H48.3348L50.0628 2.528V4.144H47.9188V3.184L47.3908 2.656H44.2228L43.6948 3.184V4.832L44.2228 5.36H48.4628L50.1908 7.088V10.24L48.4308 12H43.2468L41.5188 10.272ZM52.43 10.368V5.808H50.99V4.032H52.462V1.44H54.542V4.032H56.974V5.824H54.542V9.68L55.086 10.208H56.974V12H54.078L52.43 10.368ZM57.9406 10.368V5.696L59.5886 4.032H64.0846L65.7486 5.696V8.72H60.0526V9.744L60.5646 10.272H63.1726L63.6526 9.776V9.36H65.7326V10.4L64.1486 12H59.5566L57.9406 10.368ZM63.6366 7.248V6.32L63.0926 5.76H60.5966L60.0526 6.32V7.248H63.6366ZM67.5088 0.575999H69.6208V12H67.5088V0.575999ZM71.6963 0.575999H73.8083V12H71.6963V0.575999ZM75.5638 10.528V8.704L77.0358 7.232H81.0838V6.224L80.5878 5.728H78.1878L77.7078 6.224V6.672H75.6278V5.76L77.3398 4.032H81.4518L83.1638 5.76V12H81.2598V10.864L80.0758 12H77.0358L75.5638 10.528ZM79.9318 10.368L81.0838 9.264V8.736H78.0758L77.6438 9.168V9.968L78.0438 10.368H79.9318ZM85.0069 4.032H86.9589V5.36L88.2389 4.032H90.5109V5.824H88.6709L87.1189 7.424V12H85.0069V4.032Z" fill="#23024D"/>
</svg>
